<svg fill="#000" height="32" viewBox="0 0 32 32" width="32" xmlns="http://www.w3.org/2000/svg"><path clip-rule="evenodd" d="m26.5095 17.5527c1.0328.1967 2.011.6011 2.858 1.2296.8143.6011.6558 1.2787.5301 1.6831-1.7924 5.8255-7.2189 10.0607-13.6345 10.0607-7.87477 0-14.2631-6.3883-14.2631-14.2631 0-7.87469 6.38287-14.263 14.2631-14.263 6.4156 0 11.8421 4.23519 13.6345 10.0606.1257.4044.2842 1.0875-.5301 1.6886-.8522.6283-1.8246 1.0381-2.8571 1.2294.1521.8509.1518 1.7234-.0009 2.5741zm-.0031-2.5787c-.4581.087-.9271.1305-1.4014.1305-2.738-.003-3.8888-1.0237-4.9211-1.9393-.8407-.7456-1.6027-1.4215-3.0793-1.4215h-1.2295c-2.257 0-3.7434 1.6121-3.7434 3.6778v1.6777c0 2.0656 1.4864 3.6777 3.7434 3.6777h1.224c1.4756 0 2.2377-.675 3.0782-1.4195 1.0333-.9154 2.1853-1.9358 4.9277-1.9358.4754 0 .9455.0437 1.4045.1311 0 .0109 0 .0164-.0055.0273-.0874.4919-.2241.9782-.4154 1.4482.8689.1421 1.6723.47 2.3609.9727 0 .0055-.0055.0164-.0055.0219-.3935 1.2842-.9946 2.4974-1.7706 3.6013-.7705 1.0875-1.705 2.0493-2.7707 2.8471-2.2187 1.6613-4.8581 2.5411-7.6396 2.5411-1.7214 0-3.3883-.3388-4.9621-1-1.51921-.6394-2.87988-1.5629-4.04936-2.7324-1.16946-1.1695-2.08754-2.5357-2.73238-4.0494-.6667-1.5684-1.00007-3.2406-1.00007-4.962s.33883-3.3882 1.00007-4.962c.63938-1.51921 1.56292-2.87994 2.73238-4.0494 1.16948-1.16946 2.53562-2.08754 4.04936-2.73238 1.5684-.6667 3.2407-1.00005 4.9621-1.00005 2.7815 0 5.4209.87983 7.6396 2.54111 1.0657.80332 2.0002 1.75966 2.7707 2.84715.7815 1.10387 1.3771 2.31157 1.7706 3.60127 0 .0027.0014.0068.0027.0109.0014.0041.0028.0082.0028.011-.6886.5027-1.492.8306-2.3609.9727.1858.47.328.9563.4154 1.4482 0 .0041 0 .0113.0024.017zm-5.3142 5.5242-.0047.0042c-.9063.8026-2.0317 1.7992-4.0829 1.7992h-1.2296c-1.4864 0-2.8362-.541-3.8035-1.5192-.9454-.9564-1.4645-2.2624-1.4645-3.6833v-1.6777c0-1.4208.5191-2.7269 1.4645-3.6832.9673-.9782 2.3171-1.5192 3.8035-1.5192h1.2241c2.0512 0 3.1767.9966 4.0831 1.7993l.0046.0041.0027.0024c.9388.8296 1.7535 1.5496 3.91 1.5496.3388 0 .6667-.0274.9837-.0765 0-.0017-.0005-.0034-.0012-.005-.0005-.0011-.001-.0022-.0015-.0032-.0008-.0016-.0016-.0031-.0021-.0047-.0004-.0012-.0006-.0024-.0006-.0035-.1312-.317-.2788-.634-.4537-.9345l-1.4481-2.5029c-1.328-2.30064-3.7816-3.71602-6.432-3.71602h-2.8909c-2.6559 0-5.10952 1.41538-6.43199 3.71602l-1.44819 2.5029c-1.32794 2.3006-1.32794 5.1314 0 7.4321l1.44819 2.5028c1.32793 2.3007 3.78159 3.7161 6.43199 3.7161h2.8909c2.6559 0 5.1095-1.4154 6.432-3.7161l1.4481-2.5028c.1749-.3006.328-.6176.4537-.9345 0-.0013.0003-.0027.0008-.004.0005-.0014.0012-.0028.0019-.0042.0013-.0027.0027-.0055.0027-.0082-.3225-.0492-.6503-.0765-.9837-.0765-2.1586-.0055-2.9674.7104-3.9073 1.5465z" fill-rule="evenodd"/></svg>