<svg width="32" height="32" viewBox="0 0 32 32" fill="none" xmlns="http://www.w3.org/2000/svg">
<path d="M15.9213 20.748C20.2521 20.748 23.7954 17.2047 23.7954 12.874C23.7954 11.063 23.2442 9.48819 22.2206 8.14961C23.1654 7.44094 23.7954 6.25984 23.7954 5H15.9213C11.5906 5 8.04733 8.54331 8.04733 12.874C8.04733 17.2047 11.5906 20.748 15.9213 20.748ZM15.9213 8.62205C18.2836 8.62205 20.1733 10.5118 20.1733 12.874C20.1733 15.2362 18.2836 17.126 15.9213 17.126C13.5591 17.126 11.6694 15.2362 11.6694 12.874C11.6694 10.5118 13.5591 8.62205 15.9213 8.62205Z" fill="currentColor"/>
<path d="M26 22.874C25.5276 21.6929 24.5827 20.8268 23.3228 20.4331C21.2756 22.4016 18.5984 23.4252 16 23.4252C13.3228 23.4252 10.7244 22.4016 8.67717 20.4331C7.41732 20.8268 6.47244 21.6929 6 22.874C8.67717 25.6299 12.2992 27.0472 15.9213 27.0472C19.5433 27.0472 23.1654 25.6299 26 22.874Z" fill="currentColor"/>
</svg>
