<svg fill="#fff" height="32" viewBox="0 0 32 32" width="32" xmlns="http://www.w3.org/2000/svg"><path clip-rule="evenodd" d="m7.94994 26.7568c-3.26171-2.4457-5.37797-6.3546-5.37797-10.7568 0-7.41031 5.99134-13.42256 13.37593-13.42256 6.0969 0 12.7544 3.65625 14.363 9.25686-1.7995-6.25686-7.5471-10.8343-14.363-10.8343-8.25384 0-14.9479 6.71737-14.9479 15 0 8.2826 6.69406 15 14.9479 15 8.2538 0 14.9479-6.7174 14.9479-15v-.7907h-.8205c-.0244 0-.061 0-.1097 0-.0975 0-.2356-.0041-.4143-.0123-.3534-.0122-.8409-.0367-1.3892-.0856-1.1211-.0978-2.4006-.2894-3.2698-.64-1.4014-.5625-2.1935-1.3043-3.0952-2.1766l-.0529-.0489c-.9058-.8723-1.9212-1.8546-3.6882-2.68609-1.7385-.81931-3.6597-.68887-5.0692-.39544-.7149.14675-1.3324.34244-1.767.50138-.2194.07744-.394.15081-.5159.19975-.71077.3016-1.40134.6562-2.0959.9864 0 0 1.36888.375 2.0431.587.0244.0081.061.0204.1138.0367.1015.0325.2477.0855.4224.1589.3574.1467.8246.3628 1.2876.6644.7312.4688 1.3364 1.0638 1.5842 1.7894-1.5476.2038-3.0018.8886-4.09035 1.5286-.65806.3872-1.20644.7785-1.59231 1.0679-.19088.1467-.34525.269-.45088.3546-.08931.0734-1.48664 1.3084-1.48664 1.3084s1.80352.1916 2.69308.371c.593.1181 1.3892.3138 2.2259.6032.8368.2935 1.6817.6766 2.3843 1.1699.7028.4932 1.2186 1.0597 1.4705 1.7119.7392 1.8995.0122 3.7459-1.4461 4.7853-1.442 1.0272-3.6313 1.2718-5.82072-.2364zm5.10186 2.3478c.5889-.1915 1.1373-.4728 1.6328-.8233 1.9823-1.4144 3.0262-4.0069 1.9985-6.6482-.4062-1.0393-1.178-1.8301-2.035-2.4333-.8612-.6033-1.8482-1.0436-2.7662-1.3656-.6012-.2119-1.1861-.375-1.6938-.4973.1828-.1182.3736-.2405.5808-.3627 1.2105-.7133 2.7378-1.3696 4.2-1.3696 2.2057 0 3.8467.6807 5.4146 1.4063.1422.0652.2844.1345.4306.1997 1.4013.6603 2.8718 1.3533 4.5818 1.3533 1.7101 0 2.949-.4688 3.8385-.9579-.792 6.6521-6.434 11.8125-13.2784 11.8125-.9952 0-1.9659-.1101-2.8961-.3139zm14.4766-12.4647c-.589.1998-1.3038.3465-2.1365.3465-1.3405 0-2.494-.538-3.9563-1.2228-.13-.0612-.26-.1223-.394-.1834-1.4664-.6808-3.1602-1.4022-5.3659-1.5326-.2965-1.4633-1.4013-2.4661-2.3518-3.0775-.1056-.0693-.2112-.1345-.3168-.1957.0934-.0203.1908-.0448.2924-.0652 1.2754-.2649 2.7946-.3301 4.0823.2813 1.5273.7214 2.3924 1.553 3.2901 2.4171l.0325.0285c.922.8887 1.901 1.822 3.6029 2.5068.9464.3791 2.1731.5829 3.2211.697z" fill-rule="evenodd"/></svg>