<svg fill="none" height="32" viewBox="0 0 32 32" width="32" xmlns="http://www.w3.org/2000/svg"><path d="m28.7106 9.48225c.0203.28425.0203.56855.0203.85285 0 8.67-6.5989 18.6598-18.6598 18.6598-3.71579 0-7.16754-1.0761-10.0711-2.9441.527937.0609 1.0355.0812 1.58375.0812 3.06594 0 5.88831-1.0355 8.14212-2.802-2.88325-.0609-5.2995-1.9492-6.132-4.5482.40613.0608.81219.1015 1.23863.1015.58881 0 1.17769-.0813 1.72587-.2234-3.00506-.6091-5.25893-3.2487-5.25893-6.4365v-.0812c.87306.4873 1.88837.7919 2.96444.8324-1.7665-1.1777-2.92382-3.18779-2.92382-5.46191 0-1.21825.32482-2.335.89338-3.30963 3.22843 3.97969 8.08126 6.57864 13.52286 6.86294-.1015-.4873-.1625-.9949-.1625-1.5025 0-3.61425 2.9239-6.55837 6.5584-6.55837 1.8883 0 3.5939.79187 4.7919 2.07106 1.4822-.28425 2.9035-.8325 4.1624-1.58375-.4874 1.52287-1.5229 2.80206-2.8833 3.61419 1.3199-.14207 2.599-.50763 3.7767-1.01519-.8933 1.29944-2.0101 2.45675-3.2893 3.39081z" fill="currentColor"/></svg>