<svg fill="#000" height="32" viewBox="0 0 32 32" width="32" xmlns="http://www.w3.org/2000/svg"><path d="m7.50297 4.78367c3.43923 2.59078 7.13903 7.84313 8.49703 10.66173v7.4447c0-.1585-.0609.0206-.1922.4064-.7087 2.0887-3.4772 10.2408-9.80764 3.7237-3.33329-3.4312-1.79016-6.8625 4.27734-7.8984-3.47109.5925-7.37344-.3867-8.44406-4.2258-.30844-1.1044-.83344-7.90686-.83344-8.82561 0-4.60219 4.02141-3.15563 6.50297-1.28672zm16.99403 0c-3.4392 2.59078-7.139 7.84313-8.497 10.66173v7.4447c0-.1585.0609.0206.1922.4064.7087 2.0887 3.4772 10.2408 9.8076 3.7237 3.3333-3.4312 1.7902-6.8625-4.2773-7.8984 3.4711.5925 7.3734-.3867 8.4441-4.2258.3084-1.1044.8334-7.90686.8334-8.82561 0-4.60219-4.0209-3.15563-6.503-1.28672z" /></svg>