<svg fill="#000" height="32" viewBox="0 0 32 32" width="32" xmlns="http://www.w3.org/2000/svg"><path clip-rule="evenodd" d="m31 20.825v-1.5675c0-.145-.14-.25-.2775-.21l-7.4025 2.14c-.04.01-.075.0325-.1025.0625-.7921.875-1.4655 1.4625-1.6447 1.6188l-.0128.0112c-.46.39-1.03.6025-1.63.6025h-2.68v-2.7325h2.13c.055 0 .1075-.02.1475-.055l.275-.2525c.1175-.1075.2575-.2375.425-.405.0138-.0138.0278-.0278.0419-.0419.0884-.088.1829-.1822.2756-.2856.11-.1075.2175-.2275.3175-.345.1675-.18.3275-.3675.495-.565.12-.13.23-.2775.3375-.425.12-.14.2375-.2975.3475-.4475.0409-.06.0843-.1207.1287-.1827.0426-.0594.086-.1199.1288-.1823.08-.12.16-.2475.2275-.3675.21-.325.3875-.6725.5375-1.02.0688-.1489.1239-.3056.1774-.458.0068-.0191.0134-.0381.0201-.057.06-.1775.11-.345.1475-.5225.09-.4175.11-.8325.07-1.2475-.01-.13-.02-.2575-.05-.3775v-.02c-.01-.085-.03-.18-.0575-.2675-.09-.405-.23-.81-.4075-1.2075-.06-.1475-.13-.2975-.1975-.435-.16-.2975-.3275-.595-.5175-.8825-.0381-.0607-.0802-.1222-.1223-.1836-.0324-.0473-.0647-.0946-.0952-.1414-.1201-.1853-.2551-.3639-.3862-.53718-.0299-.03954-.0595-.07879-.0888-.11779-.0777-.10199-.1627-.20397-.2483-.30663-.0466-.0559-.0934-.112-.1392-.16841-.13-.15752-.2575-.30752-.3875-.45498-.465-.525-.9525-1.00003-1.3875-1.40499-.08-.08003-.1675-.16-.2575-.23754-.3375-.30747-.645-.57497-.9025-.7825-.0778-.05984-.1476-.11878-.2125-.17363-.0435-.03679-.0849-.07174-.125-.10388-.0786-.05856-.1468-.1105-.2039-.15402-.0355-.02705-.0668-.05085-.0936-.07098-.02-.01498-.0425-.02498-.065-.0325l-.285-.07997v-2.35999c0-.385-.155-.72999-.4025-.98251-.2475-.25253-.5925-.4075-.9725-.4075-.76 0-1.375.62249-1.375 1.39001v1.58998l-.1425-.04001-.3875-.10999-.3525-.09749c-.001 0-.0021-.00043-.0033-.00094-.0017-.0007-.0038-.00155-.0067-.00155h-.0075l-2.675-.72502c-.1175-.0325-.2175.09501-.1575.20251l.4275.79001c.0242.06062.0549.12124.0865.18353.0205.04045.0413.08161.061.12393.07.14006.14.28751.2075.43503.06.12999.12.25749.19.39749.0292.06534.059.13146.0892.19852.1119.24856.2296.50994.3458.79151l.001.00226c.0996.23674.1993.47351.2865.72022.24.62249.4675 1.28749.665 1.97001.0491.15261.0884.30029.1282.44999.0169.0636.0339.1276.0518.1925l.0275.12c.08.3175.15.6325.2.95.04.2175.0775.425.0975.635.03.2375.06.475.07.7125.02.2175.03.445.03.6625 0 .555-.05 1.09-.1675 1.595-.0073.0269-.0146.0541-.0219.0816-.033.1231-.0672.2508-.1081.3734-.0369.1312-.0848.2623-.1345.3985-.0176.0481-.0354.0969-.053.1465-.0032.0086-.0064.0172-.0096.0259-.0369.0993-.0744.2002-.1204.2991-.2475.595-.555 1.1875-.8725 1.7425-.465.8225-.9325 1.545-1.26 2.01-.0201.0302-.0397.0588-.0586.0865-.0234.0341-.0457.0667-.0664.0985-.1025.145.0025.35.18.35h3.46v2.7325h-3.5c-.94 0-1.81002-.5325-2.23001-1.385-.21748-.4275-.30249-.8975-.25247-1.3575.01249-.1375-.09003-.2675-.23003-.2675h-7.07001c-.11999 0-.21748.0975-.21748.2175v.145c0 4.51 3.6425 8.165 8.13747 8.165h12.68253c2.3773 0 3.7272-2.1664 5.0541-4.2957.3698-.5936.7379-1.1842 1.1259-1.7243.6975-.97 2.375-1.74 2.865-1.95.08-.035.135-.115.135-.205zm-28.11004-3.5725-.10496.1649c-.09252.1426.00995.3326.18499.3326h6.50997c.07251 0 .14005-.035.18001-.095.085-.13.16503-.265.23749-.4025.56254-.945 1.06254-1.9676 1.24504-2.7225.4275-1.835-.485-4.78251-1.5425-7.15255-.07002-.15746-.28751-.1725-.38003-.02747z" fill-rule="evenodd"/></svg>