<svg fill="#000" height="32" viewBox="0 0 32 32" width="32" xmlns="http://www.w3.org/2000/svg"><path d="m31.3277 24.1366-5.4836-7.45c-.5956-.8096-1.4777-1.2946-2.417-1.4015-.2139-.0247-.4048-.1488-.5118-.3359-.1088-.1872-.1203-.4144-.0343-.613.3761-.8667.399-1.873-.0058-2.7932l-3.7096-8.47335c-.5499-1.25821-1.7928-2.06965-3.1656-2.06965-1.3727 0-2.6157.81335-3.1656 2.06965l-3.70967 8.47335c-.40287.9202-.38187 1.9265-.00573 2.7932.08591.1986.07254.4258-.03437.613-.10883.1871-.29785.3112-.51169.3359-.93937.1069-1.82143.5919-2.41713 1.4015l-5.483423 7.45c-.813354 1.1054-.895447 2.587-.210025 3.7765.687348 1.1875 2.012378 1.8577 3.375598 1.7069l9.19314-1.0234c.9985-.1107 1.8597-.632 2.4209-1.3918.1279-.1738.3322-.2769.548-.2769s.4182.1031.548.2769c.5613.7598 1.4224 1.2811 2.4209 1.3918l9.1932 1.0234c1.3632.1527 2.6882-.5175 3.3756-1.7069.6853-1.1895.6032-2.6711-.21-3.7765zm-19.8049-11.5302 3.7154-8.48284c.1336-.30357.4334-.50023.7637-.50023.3304 0 .63.19666.7637.50023l3.7155 8.48284c.1164.2673.0916.5767-.0688.8211s-.4315.3913-.7256.3913h-7.3716c-.292 0-.5651-.1469-.7255-.3913s-.1852-.5538-.0687-.8211zm1.9074 12.9144c-.1318.2616-.3876.4371-.6779.4696l-9.20264 1.0234c-.3284.0363-.64916-.1241-.81527-.4105-.1661-.2864-.1451-.6435.05156-.9107l5.48914-7.4576c.17375-.2348.45251-.3685.74463-.3513.29212.0153.55559.1776.70259.4314l.00573.0096 3.67536 6.3655.0058.0095c.147.254.1546.5633.0229.823zm3.3258-2.8792c-.1564.2691-.4428.4372-.756.4372-.3112 0-.5995-.1662-.7561-.4353l-2.8238-4.8896c-.1566-.2693-.1566-.6034 0-.8727.1566-.2691.443-.4371.7561-.4371h5.6457c.3112 0 .5996.1642.7561.4352.1565.2712.1565.6034 0 .8726zm12.5115 3.9617c-.1661.2864-.485.4487-.8152.4124l-9.2027-1.0234c-.2902-.0325-.5461-.208-.6778-.4696-.1318-.2616-.1242-.5709.0229-.823l.0057-.0095 3.6754-6.3655.0057-.0096c.1471-.2538.4104-.4161.7026-.4314.2921-.0153.5709.1165.7447.3513l5.4891 7.4576c.1966.2672.2157.6243.0515.9107z" /></svg>