<svg fill="none" height="32" viewBox="0 0 32 32" width="32" xmlns="http://www.w3.org/2000/svg"><g fill="currentColor"><path d="m17.795 20.6c0-1.1046.8716-2 1.9467-2h.7787c1.0751 0 1.9467.8954 1.9467 2v.8c0 1.1045-.8716 2-1.9467 2h-.7787c-1.0751 0-1.9467-.8955-1.9467-2z"/><path d="m19.7417 11.4c-1.0751 0-1.9467.8954-1.9467 2v.8c0 1.1046.8716 2 1.9467 2h.7787c1.0751 0 1.9467-.8954 1.9467-2v-.8c0-1.1046-.8716-2-1.9467-2z"/><path clip-rule="evenodd" d="m10.7868 3c-4.30052 0-7.7868 3.58172-7.7868 8v10c0 4.4183 3.48628 8 7.7868 8h9.7336c4.3005 0 7.7868-3.5817 7.7868-8v-10c0-4.41828-3.4863-8-7.7868-8zm9.7336 3.2h-9.7336c-2.58028 0-4.67206 2.14903-4.67206 4.8v10c0 2.651 2.09178 4.8 4.67206 4.8h9.7336c2.5803 0 4.6721-2.149 4.6721-4.8v-10c0-2.65097-2.0918-4.8-4.6721-4.8z" fill-rule="evenodd"/></g></svg>