<svg fill="none" height="32" viewBox="0 0 32 32" width="32" xmlns="http://www.w3.org/2000/svg"><path d="m0 25.5767.00174544-.0018.0043636-.0026-.00610904.0044.0113454-.0088 6.0348546-4.5399-.04625-.9687v-8.0246l5.99995-3.31026v7.82396l7.0001-5.266v-6.41974l7.0001-3.86266v5.01552l5.9999-4.51371v1.00276l-5.9999 4.3252v.81512l5.9999-4.13757v1.00276l-5.9999 3.94905v.81512l5.9999-3.76142v1.00276l-5.9999 3.57291v.8151l5.9999-3.38526v1.00276l-5.9999 3.1976v.8143l5.9999-3.00915v1.00275l-5.9999 2.8206v.8152l5.9999-2.633v1.0027l-5.9999 2.4445v5.0792c0 5.5401-4.4771 10.0311-9.9997 10.0311-4.518 0-8.33618-3.0057-9.57544-7.1319l-6.4205964 2.6199zm6.32372-2.9743-6.31586553 2.9699-.00261815.0017 6.36648368-2.7935zm-.21381-1.0481-6.0985646 4.0136-.00523636.0044 6.13173096-3.8435zm.12916.6982-6.2233611 3.3163 6.2643811-3.1418zm-.17542-1.0473-6.0444502 4.3584 6.0671402-4.1839-.02181-.1754zm12.93545-3.3704-6.9477 2.8319c.2862 1.6503 1.721 2.9053 3.4481 2.9053 1.9331 0 3.4996-1.5718 3.4996-3.5109v-2.2255zm0-1.1922-7.0001 3.2919v.1257c0 .0829.0026.1649.0087.2461l6.9914-3.0685zm0-1.1904-7.0001 3.73v.3753l7.0001-3.5109zm0-1.1921-7.0001 4.169v.377l7.0001-3.9499zm0-1.1913-7.0001 4.6089v.3761l7.0001-4.3889zm0-1.1904-6.9992 5.0461v.3753l7.0001-4.8279v-.5952zm-18.99386368 13.6956-.00087272.0009.00349087-.0026 6.19456553-3.4953-.03404-.1745-6.16227096 3.6698-.00174544.0026h-.00261816z" fill="#fff"/></svg>