<svg fill="none" height="32" viewBox="0 0 32 32" width="32" xmlns="http://www.w3.org/2000/svg"><path d="m25.533 11.1117c.0152.2132.0152.4264.0152.6396 0 6.5025-4.9492 13.9949-13.9949 13.9949-2.78682 0-5.37563-.8071-7.5533-2.2081.39595.0457.77662.0609 1.18781.0609 2.29946 0 4.41624-.7766 6.10659-2.1015-2.16243-.0457-3.97462-1.4619-4.59899-3.4112.30459.0457.60914.0761.92896.0761.44161 0 .88327-.0609 1.29441-.1674-2.2538-.4569-3.9442-2.4366-3.9442-4.8275v-.0609c.65479.3655 1.41628.5939 2.22333.6244-1.32488-.8833-2.19286-2.3909-2.19286-4.09648 0-.91369.24361-1.75125.67003-2.48222 2.42133 2.9848 6.06092 4.934 10.14212 5.1472-.0761-.3655-.1218-.7462-.1218-1.1269 0-2.71066 2.1929-4.91875 4.9187-4.91875 1.4163 0 2.6954.5939 3.5939 1.55329 1.1117-.21319 2.1777-.62437 3.1219-1.18781-.3656 1.14216-1.1422 2.10155-2.1625 2.71064.9899-.10655 1.9493-.38072 2.8325-.76139-.6699.97458-1.5075 1.84252-2.4669 2.54312z" fill="#fff"/></svg>