<svg fill="#fff" height="32" viewBox="0 0 32 32" width="32" xmlns="http://www.w3.org/2000/svg"><path clip-rule="evenodd" d="m16.165.293547-.5036-.293547-.5036.293553-12.6614 7.380507-.4964.28936v.57458 14.7602.5746l.4964.2894 12.6471 7.3721c.0101.0061.0202.012.0305.0177l.4874.2841.4805-.28c.0151-.0084.0301-.0171.0447-.0261l12.6401-7.3678.4964-.2894v-.5746-14.7602-.57459l-.4964-.28935zm.4966 28.644653 10.3008-6.0043-4.3201-2.5427-5.9807 3.4173zm-2-12.4326v6.1418l-5.34994-3.0704-.0069-6.1988zm2 6.1512v-6.1513l5.3601-3.1192v6.2078zm-2 1.1436v5.138l-10.15184-5.9176 4.34123-2.5552zm.5017-21.19507-10.17989 5.934 4.33439 2.53057 5.8514-3.38167zm-11.1633 19.55517v-11.8794l4.30411 2.5129.00759 6.8287zm19.0217-2.7064v-6.6497l4.3014-2.5032v11.6847zm-6.8584-16.84657 10.1937 5.94191-4.3533 2.53336-5.8345-3.3901zm-.4979 5.94895 5.3438 3.10502-5.3477 3.112-5.3495-3.1232z" fill-rule="evenodd"/></svg>