<svg viewBox="0 0 24 24" fill="none" width="24" height="24" xlmns="http://www.w3.org/2000/svg" class="sc-bdvvtL sc-iCfMLu iWfNDX"><path d="M18.6693 5.33057C16.8144 3.47558 13.8068 3.47558 11.9518 5.33057L10.8912 6.39123C10.5983 6.68413 10.5983 7.159 10.8912 7.45189C11.1841 7.74479 11.6589 7.74479 11.9518 7.45189L13.0125 6.39123C14.2817 5.12203 16.3395 5.12203 17.6087 6.39123C18.8779 7.66044 18.8779 9.71822 17.6087 10.9874L15.4874 13.1087C14.2182 14.378 12.1604 14.378 10.8912 13.1087C10.5983 12.8159 10.1234 12.8159 9.83051 13.1087C9.53762 13.4016 9.53762 13.8765 9.83051 14.1694C11.6855 16.0244 14.693 16.0244 16.548 14.1694L18.6693 12.0481C20.5243 10.1931 20.5243 7.18556 18.6693 5.33057Z" fill="currentColor"></path><path d="M14.1695 9.83057C12.3145 7.97558 9.30701 7.97558 7.45202 9.83057L5.3307 11.9519C3.47571 13.8069 3.47571 16.8144 5.3307 18.6694C7.18569 20.5244 10.1932 20.5244 12.0482 18.6694C12.3411 18.3765 12.3411 17.9016 12.0482 17.6087C11.7553 17.3159 11.2804 17.3159 10.9875 17.6087C9.71835 18.878 7.66056 18.878 6.39136 17.6087C5.12215 16.3395 5.12215 14.2818 6.39136 13.0126L8.51268 10.8912C9.78188 9.62203 11.8397 9.62203 13.1089 10.8912C13.4018 11.1841 13.8766 11.1841 14.1695 10.8912C14.4624 10.5983 14.4624 10.1235 14.1695 9.83057Z" fill="currentColor"></path></svg>