<svg fill="#000" height="32" viewBox="0 0 32 32" width="32" xmlns="http://www.w3.org/2000/svg"><path clip-rule="evenodd" d="m1 16.049c0-8.3067 6.7142-15.049002 15-15.049002 6.8369 0 12.5976 4.587162 14.4081 10.853102.0017.0059.0034.0118.0051.0178l-1.2287.4425c.5792-.1666.5836-.1515 0 0-.6784-2.34495-2.8611-4.78813-5.1845-6.21541-2.3264-1.42909-5.3101-2-8-2-6.42313 0-12 5.49751-12 11.95101 0 3.817 1.87113 7.4383 4.6926 9.57 1.7419 1.1997 3.6843.7304 4.7099 0 1.0558-.7525 1.5536-2.047 1.0295-3.3938l-.0009-.0023c-.1468-.3801-.4755-.7787-1.046-1.1791-.565-.3967-1.2721-.7225-2.0116-.982-.7387-.2554-1.4445-.4289-1.96813-.5332l-.00207-.0004c-.38001-.0767-.9815-.1602-1.5111-.2265-.25989-.0325-.49439-.0599-.66391-.0791-.08469-.0096-.15298-.0172-.19991-.0223l-.05369-.0058-.01694-.0018-2.12474-.2257 1.6003-1.4145.00096-.0008.66744-.5893c.32624-.2877.69686-.6142.75571-.6626l.00501-.0041c.10627-.0861.25785-.2061.443-.3484l.00872-.0067c.37927-.2845.92555-.6745 1.58511-1.0626.73904-.4345 1.67834-.9085 2.72574-1.2317-.1191-.0966-.2521-.1923-.3992-.2866l-.0057-.0036c-.3687-.2402-.7497-.4177-1.055-.543l-.007-.0029c-.1397-.0587-.2498-.0983-.3164-.1198-.0514-.016-.0895-.0286-.1134-.0366-.3023-.0948-.76595-.2281-1.16415-.3404-.19886-.0561-.37819-.106-.50781-.1419l-.15309-.0423-.0546-.015-2.44381-.6695 2.28776-1.0873c.17688-.0841.36033-.1734.54833-.2648.46849-.22795.96527-.46965 1.45937-.67932l.0084-.00358.0085-.00341c.0167-.0067.0359-.01447.0572-.02315.1071-.0435.2699-.10965.4604-.17705.4421-.16143 1.0658-.35884 1.7896-.50751 1.4102-.29341 3.4558-.45469 5.3589.44197 1.7941.84427 2.8397 1.85125 3.6973 2.67725l.017.0163.0504.0467.0074.0072c.8349.8076 1.4697 1.3937 2.6077 1.8504l.0014.0006c.679.2738 1.7625.4462 2.8055.5372l.0017.0002c.4951.0441 1.2556.0773 1.2556.0773l.0106.0004.3466.0106h1.8155v1.6843c0 8.3067-6.7142 15.049-15 15.049s-15-6.7423-15-15.049zm11 1.049c.7667.3006 2.5809.6745 3.3171 1.1902l.0017.0012c.8975.6318 1.7771 1.5087 2.2488 2.7155l.0005.0014c.9972 2.5631.1031 5.4597-1.5681 7.0917 5.3296-.0505 10.2488-3.9601 11.5717-8.9053-.6759.1911-1.7821.2083-2.6852.2083-1.82 0-3.3667-.7291-4.6459-1.332-.0188-.0089-.0376-.0178-.0563-.0266-.0824-.0369-.182-.0837-.2684-.1242-.0525-.0247-.1001-.047-.1359-.0634l-.0031-.0014c-1.4467-.6695-2.8359-1.2357-4.6977-1.2357-.6651 0-2.3829.1999-3.0792.4803zm3.0792-5.6533c.3572.4193.8252 1.3383 1.0404 1.9114 1.1992.1387 4.4623 1.3901 5.3804 1.7419-.7679-.7359-2.3125-2.4076-3.7812-2.9265l-.7188-.2835c-.4168-.1979-1.4349-.4067-1.9208-.4433z" fill-rule="evenodd"/></svg>