<svg fill="#fff" height="32" viewBox="0 0 32 32" width="32" xmlns="http://www.w3.org/2000/svg"><path clip-rule="evenodd" d="m3.13484 14.9535h6.28231c.28071-4.2083 1.74365-8.24198 4.20525-11.64194-5.65835 1.05366-10.01872 5.79883-10.48756 11.64194zm12.86516-11.30412c-2.6141 3.22018-4.18 7.16582-4.4847 11.30412h8.9694c-.3047-4.1383-1.8706-8.08394-4.4847-11.30412zm4.4847 13.39712c-.3047 4.1383-1.8706 8.0839-4.4847 11.3041-2.6141-3.2202-4.18-7.1658-4.4847-11.3041zm-11.06755 0h-6.28231c.46884 5.8431 4.82921 10.5883 10.48756 11.6419-2.4616-3.3999-3.92454-7.4336-4.20525-11.6419zm8.96045 11.6419c2.4616-3.3999 3.9245-7.4336 4.2053-11.6419h6.2823c-.4689 5.8431-4.8292 10.5883-10.4876 11.6419zm10.4876-13.7349h-6.2823c-.2808-4.2083-1.7437-8.24198-4.2053-11.64194 5.6583 1.05366 10.0187 5.79883 10.4876 11.64194zm-27.8652 1.0465c0-8.28427 6.71573-15 15-15 8.2843 0 15 6.71573 15 15 0 8.2843-6.7157 15-15 15-8.28427 0-15-6.7157-15-15z" fill-rule="evenodd"/></svg>