<svg viewBox="0 0 50 64" width="50" height="64" fill="none" xmlns="http://www.w3.org/2000/svg" preserveAspectRatio="xMidYMin slice"><path d="M34.2683 15.8121C34.9276 16.1413 35.5873 16.4709 36.2901 16.8217C36.1833 16.879 36.1179 16.9169 36.0508 16.9507C34.7938 17.5788 33.5352 18.2039 32.2812 18.8375C32.1343 18.9117 32.0212 18.91 31.8752 18.8367C29.4702 17.6298 27.0618 16.4296 24.6564 15.2236C24.5302 15.1599 24.4336 15.1603 24.3078 15.2236C21.3368 16.7121 18.3641 18.1976 15.3885 19.6772C15.2382 19.7518 15.1939 19.8353 15.1939 19.9976C15.1994 22.3579 15.1952 24.7181 15.2028 27.0783C15.2036 27.2879 15.1475 27.3962 14.9525 27.4932C10.0336 29.9411 5.11936 32.3979 0.202174 34.8483C0.0574023 34.9204 0 34.9959 0 35.1641C0.00506491 43.1722 0.00464284 51.1808 0.000844152 59.1881C0.000422076 59.3424 0.0455842 59.422 0.186558 59.492C3.1681 60.9754 6.14754 62.4639 9.12486 63.9554C9.24515 64.0156 9.33463 64.0144 9.45408 63.9545C12.4318 62.4631 15.4108 60.975 18.3924 59.4916C18.5346 59.4212 18.5773 59.3403 18.5773 59.1868C18.5726 56.8266 18.5768 54.4663 18.5688 52.1061C18.5684 51.8885 18.63 51.7768 18.8297 51.6774C28.8016 46.7044 38.7698 41.725 48.7413 36.7516C48.9123 36.6665 48.9655 36.5724 48.9655 36.3849C48.96 30.9267 48.96 25.4685 48.9642 20.0103C48.9642 19.8437 48.9228 19.7514 48.7633 19.6726C46.9306 18.7663 45.103 17.8502 43.2738 16.9367C43.202 16.9013 43.1307 16.8655 43.0475 16.8238C44.9714 15.8643 46.8741 14.9133 48.7802 13.9695C48.9228 13.8987 48.9638 13.8169 48.9638 13.6638C48.9591 10.7134 48.9591 7.76302 48.9638 4.8126C48.9642 4.65874 48.9207 4.57822 48.7789 4.50782C45.7974 3.02482 42.8183 1.53633 39.8406 0.0448954C39.7212 -0.0145428 39.6317 -0.0153859 39.5114 0.0448954C36.5336 1.53633 33.5546 3.0244 30.5731 4.50782C30.4317 4.57822 30.3874 4.6579 30.3874 4.81218C30.392 7.7626 30.3928 10.713 30.3865 13.6634C30.3865 13.8325 30.4456 13.9075 30.59 13.9787C31.8186 14.5849 33.0426 15.2 34.2683 15.8121Z" fill="black"></path><path d="M33.6761 35.9022V42.6368C33.7601 42.5985 33.8234 42.5715 33.885 42.5407C35.7079 41.631 37.5292 40.7184 39.3555 39.8154C39.5252 39.7315 39.5822 39.6396 39.5817 39.4499C39.5754 35.1232 39.5771 30.7964 39.5771 26.4696V26.2112C37.0337 27.4809 34.5189 28.7363 31.9747 30.0064V22.4287C31.8848 22.4704 31.8156 22.5008 31.7476 22.5345C29.931 23.4408 28.1156 24.3501 26.2961 25.2505C26.1289 25.3331 26.0669 25.4221 26.0669 25.6143C26.0728 32.47 26.0719 39.3252 26.0719 46.1808V46.408C26.164 46.4202 26.2192 46.3692 26.28 46.3389C28.1093 45.4266 29.9373 44.511 31.7691 43.6035C31.9299 43.5238 31.9856 43.4344 31.9852 43.2536C31.9781 41.1534 31.9802 39.0533 31.9818 36.9531C31.9818 36.8684 31.9439 36.7672 32.0561 36.7116C32.5833 36.4498 33.1092 36.1863 33.6761 35.9035V35.9022ZM24.3836 33.8063C24.2967 33.8455 24.2393 33.8691 24.184 33.8969C19.8155 36.0784 15.4479 38.2608 11.0773 40.4372C10.919 40.516 10.8751 40.6067 10.8751 40.774C10.8789 47.644 10.8785 54.5135 10.8797 61.3835C10.8797 61.4501 10.8586 61.5209 10.9055 61.5951C10.9696 61.5656 11.0334 61.5391 11.0946 61.5083C12.9239 60.5952 14.7519 59.6796 16.5837 58.772C16.7377 58.6957 16.7918 58.6106 16.7913 58.4381C16.7854 55.8882 16.7871 53.3383 16.7871 50.7887C16.7871 48.7097 16.7892 46.6302 16.7829 44.5511C16.7825 44.385 16.8327 44.3028 16.9821 44.2332C17.4147 44.0309 17.8381 43.8092 18.2665 43.5976C18.3273 43.5676 18.3826 43.5162 18.4725 43.5288V50.2264C18.5548 50.1897 18.6181 50.1644 18.6793 50.1341C20.5086 49.2214 22.3366 48.3062 24.1684 47.3991C24.3279 47.3202 24.3887 47.2338 24.3883 47.0513C24.3824 42.7174 24.3841 38.383 24.3841 34.0491V33.8058L24.3836 33.8063ZM47.1736 22.424C47.0749 22.4704 47.0057 22.5016 46.9381 22.5353C45.1219 23.4417 43.307 24.3505 41.4878 25.2501C41.3194 25.3336 41.2599 25.4238 41.2603 25.6147C41.2667 29.9402 41.2654 34.2662 41.2654 38.5917V38.8189C41.357 38.832 41.4123 38.7809 41.4726 38.7506C43.3015 37.8388 45.1291 36.9232 46.9601 36.016C47.12 35.9368 47.1783 35.8491 47.1778 35.6674C47.1719 31.3347 47.1732 27.0021 47.1732 22.6694V22.4236L47.1736 22.424ZM47.1736 7.25C47.0993 7.28372 47.0609 7.29932 47.0238 7.31787C45.1578 8.24907 43.2926 9.18153 41.425 10.1085C41.2971 10.1722 41.2616 10.2485 41.262 10.3846C41.2667 12.2238 41.265 14.0635 41.2663 15.9027C41.2663 15.955 41.2464 16.0127 41.295 16.0713C41.3313 16.0557 41.3692 16.0414 41.4055 16.0233C43.2779 15.0891 45.1493 14.1533 47.0238 13.2238C47.1572 13.1576 47.1762 13.0699 47.1757 12.9409C47.1728 11.1156 47.1736 9.29029 47.1736 7.46499V7.25Z" fill="white"></path></svg>