<svg fill="#000" height="32" viewBox="0 0 32 32" width="32" xmlns="http://www.w3.org/2000/svg" xmlns:xlink="http://www.w3.org/1999/xlink"><path d="m16.0378 1.00015c-8.22525.03763-14.86255 6.7831-14.82623 15.06725.03737 8.2842 6.73588 14.969 14.96013 14.9324 8.2253-.0376 14.8626-6.783 14.8262-15.0662-.0373-8.28519-6.7348-14.970037-14.9601-14.93345zm-1.8858 14.26445c-1.4707 0-2.6633-1.2-2.6633-2.6812s1.1926-2.68128 2.6633-2.68128c1.4706 0 2.6622 1.20108 2.6622 2.68128 0 1.4801-1.1926 2.6812-2.6622 2.6812zm2.1235 2.8987.0135-.0167.0145-.0168c.7597.4934 1.6274.668 2.494.6931.8677.023 1.752-.0429 2.6218-.2195.8687-.1819 1.7228-.4506 2.548-.7934.4629-.1924.9237-.4025 1.3627-.6492.0031-.0021.0052-.0031.0083-.0052.273-.1652.5397-.3397.8013-.5195.057-.0408.1121-.0837.166-.1275l.0063.0073.0228.0271c-.6694.6137-1.4665 1.0694-2.2782 1.4718-.8199.3889-1.6751.7077-2.5584.9377-.8801.2289-1.7986.4025-2.7286.3168-.9154-.0816-1.8796-.4046-2.4961-1.105zm6.8334-2.8987c-.001-.3219.2564-.5812.574-.5843.3197-.001.5771.2571.5802.578.001.321-.2564.5833-.574.5844-.3186.001-.5771-.2582-.5802-.5781zm-4.5615 14.3868c-.575-4.059 2.9445-8.0344 4.929-10.0686.4504-.461 1.1468-1.0965 1.7945-1.7718 2.576-2.4262 3.0887-5.3248-2.1838-6.7737-.9994-.2916-2.0352-.7045-3.0846-1.12161-.0332-.09719-.0705-.18919-.1141-.27594-.1204-.20906-.3311-.4495-.6498-.72234-.685-.59897-1.973-.58329-3.0846-.31775-1.2288-.29166-2.4411-.39516-3.6066-.11397-5.09917 1.41537-5.91907 3.92001-6.11732 6.93781-.26985 3.2614-.4276 5.6918-1.65335 8.4682-1.52985-2.2224-2.43178-4.9183-2.44423-7.8274-.03425-7.66014 6.1038-13.89757 13.7095-13.93207 7.6056-.03449 13.7987 6.14755 13.8329 13.80767.0312 6.8416-4.8635 12.5501-11.3285 13.7136z"/><path d="m16.0243 12.6075c0 1.0421-.8386 1.8857-1.8723 1.8857-1.0338 0-1.8734-.8436-1.8734-1.8857 0-1.0422.8386-1.8858 1.8734-1.8858 1.0347 0 1.8723.8436 1.8723 1.8858z"/></svg>