<svg fill="#000" height="32" viewBox="0 0 32 32" width="32" xmlns="http://www.w3.org/2000/svg"><g clip-rule="evenodd" fill-rule="evenodd"><path d="m22.826 22 2.3573 6.4229c.3603 1.0308-.7063 1.9132-1.6454 1.507l-.0095-.0041-2.5786-1.2012-1.21 2.5712c-.4755.9893-1.8492.8767-2.2266-.083l-.0032-.008-2.51-6.8391 1.0933.0182c.3749.0062.7513-.0869 1.0898-.2802l.7694-.4398c.0003-.0001-.0002.0001 0 0 .5424-.3112 1.1639-.4748 1.8001-.4748h.8855c.5186 0 .9981-.1816 1.3689-.4955zm-.7231 2.3835c-.453.1989-.9502.3056-1.4648.3056h-.8855c-.3803 0-.7431.0976-1.0532.2757l-.772.4412c-.2621.1497-.5383.2644-.8216.3438l1.5713 4.2814 1.0324-2.1937c.2622-.5872.9823-.9003 1.6127-.5943l2.2077 1.0285z"/><path d="m9.42289 22 .81901.6933c.3769.319.8637.5018 1.3728.5018h.8855c.6362 0 1.2571.1632 1.7994.4744.0002.0001-.0002-.0001 0 0l.77.44c.3375.1928.7127.286 1.0866.2804l1.0907-.0165-2.5041 6.8371-.0032.0083c-.3776.9597-1.751 1.0722-2.2266.0831l-.0027-.0057-1.2074-2.5657-2.57857 1.2012-.00954.0041c-.96969.4194-1.98676-.504-1.64841-1.5139l.00339-.0102zm.72271 2.3845-1.43004 3.8965 2.21494-1.0318c.6305-.3061 1.3506.0071 1.6127.5942l1.0321 2.1932 1.5682-4.2818c-.2821-.0794-.5569-.1937-.8179-.3427l-.7721-.4413c-.3103-.1781-.6731-.2757-1.0533-.2757h-.8855c-.513 0-1.0128-.1088-1.4691-.3106z"/><path d="m17.3228 2.0639c-.7156-.41739-1.6263-.42061-2.3648.00278l-.7695.43987c-.5126.29693-1.0854.44261-1.6696.44261h-.8855c-.8516 0-1.63513.44821-2.05653 1.17546l-.44496.77063c-.29579.50451-.71338.91628-1.20206 1.22015l-.01181.00735-.7819.4469c-.73279.42027-1.18087 1.19914-1.18087 2.04134v.881c0 .58341-.14698 1.15491-.44601 1.66591l-.44491.7706c-.41793.7093-.42124 1.6111.00281 2.3432l.0005.0009.4416.7648c.29903.511.44601 1.0825.44601 1.6659v.881c0 .8422.44779 1.6209 1.18049 2.0411l.77448.4427c.5052.2932.92648.7122 1.22166 1.2157l.00252.0043.44222.7659c.42136.7275 1.20506 1.1758 2.05676 1.1758h.8855c.5842 0 1.157.1457 1.6696.4427l.0023.0013.7721.4413c.3495.2039.7578.3057 1.18.3057.4215 0 .8222-.1014 1.1637-.3123l.0108-.0067.7775-.4443.0021-.0012c.5127-.2971 1.0855-.4428 1.6699-.4428h.8854c.8515 0 1.6351-.4482 2.0566-1.1755l.4424-.7662.0025-.0043c.2952-.5035.7165-.9225 1.2216-1.2156l.0042-.0025.77-.4401c.7329-.4202 1.1808-1.199 1.1808-2.0413v-.881c0-.5835.147-1.155.4461-1.666l.0013-.0022.4435-.7682c.418-.7094.4213-1.6112-.0028-2.3433l-.4407-.7634-.0013-.0022c-.2991-.511-.4461-1.0825-.4461-1.66603v-.88099c0-.8423-.4479-1.6211-1.1808-2.04133l-.7743-.44251c-.505-.29316-.9263-.71212-1.2215-1.21561l-.0025-.0043-.4423-.76592c-.4214-.72711-1.2053-1.17585-2.0567-1.17585h-.8854c-.5844 0-1.1571-.14567-1.6697-.44259zm.7527-1.297477c-1.1859-.6902054-2.6677-.6864975-3.8631-.001273l-.7703.44025-.0043.00247c-.2739.159-.5858.24129-.9189.24129h-.8855c-1.3786 0-2.66103.72633-3.35475 1.92403l-.44191.76536c-.16131.27436-.3954.51199-.688.69618l-.7587.43363c-1.20204.6892-1.93477 1.96605-1.93477 3.34263v.881c0 .32942-.08216.63811-.24136.90961l-.44372.7684c-.69525 1.1825-.69148 2.661-.00133 3.853l.44254.7664.00251.0044c.1592.2715.24136.5801.24136.9095v.881c0 1.3765.73272 2.6535 1.93479 3.3426l.76732.4386.00188.0011c.28042.1632.51395.3957.6775.6739l.00114.0019.44076.7634c.69371 1.1977 1.97614 1.924 3.35474 1.924h.8855c.3331 0 .645.0823.9189.2413l.0043.0025.765.4372.0031.0018c.6007.3496 1.2735.5082 1.9327.5082.6565 0 1.3337-.1576 1.9404-.529l.7602-.4345.0044-.0025c.2739-.159.5858-.2413.919-.2413h.8854c1.3786 0 2.661-.7263 3.3547-1.924l.4408-.7634.0011-.0019c.1635-.2781.3971-.5107.6775-.6739l.0019-.0011.7665-.4381c1.2021-.6892 1.9356-1.9666 1.9356-3.3431v-.881c0-.3294.0822-.638.2414-.9096l.0025-.0043.4394-.7611.0018-.003c.6953-1.1826.6915-2.6612.0012-3.8532l-.4424-.7662-.0025-.0043c-.1592-.2716-.2414-.58023-.2414-.90963v-.88099c0-1.37657-.7327-2.65344-1.9348-3.34263l-.7672-.43851-.002-.00111c-.2804-.16321-.5139-.39572-.6774-.67382l-.0012-.00202-.4403-.76251-.0005-.0009c-.6937-1.19769-1.9762-1.92402-3.3547-1.92402h-.8854c-.3332 0-.6451-.0823-.9191-.24129z"/></g></svg>