<svg fill="none" height="32" viewBox="0 0 32 32" width="32" xmlns="http://www.w3.org/2000/svg"><g stroke="currentColor" stroke-linecap="round" stroke-width="2"><path d="m5 24v-1c0-3.866 3.13401-7 7-7 3.866 0 7 3.134 7 7v1"/><path d="m17 18c0-2.7614 2.2386-5 5-5s5 2.2386 5 5v.5"/><g stroke-linejoin="round"><path d="m12 16c2.2091 0 4-1.7909 4-4 0-2.20914-1.7909-4-4-4-2.20914 0-4 1.79086-4 4 0 2.2091 1.79086 4 4 4z"/><path d="m22 13c1.6569 0 3-1.3432 3-3 0-1.65685-1.3431-3-3-3s-3 1.34315-3 3c0 1.6568 1.3431 3 3 3z"/></g></g></svg>