<svg fill="#000" height="32" viewBox="0 0 32 32" width="32" xmlns="http://www.w3.org/2000/svg" xmlns:xlink="http://www.w3.org/1999/xlink"><path clip-rule="evenodd" d="m0 32c0-1.8117 0-1.8117 1.06-2.8104.583-.5492 1.7701-1.6546 2.63801-2.4563.8679-.8017 2.39002-2.2114 3.38249-3.1328.99247-.9213 2.27174-2.108 2.84282-2.6369.57108-.529 1.40258-1.2993 1.84778-1.7118.7349-.681.8242-.7954.9709-1.2425.0888-.2709.1426-.5114.1195-.5344-.023-.0231-1.0633-.188-2.3117-.3666-1.24839-.1785-2.3598-.3662-2.4698-.417-.1399-.0646-.20731-.1674-.22432-.3418-.01409-.1445.02632-.3001.09607-.3698.06622-.0662.23917-.1405.38432-.165.14516-.0245 1.03793-.1572 1.98393-.2948.946-.1377 1.801-.2666 1.9001-.2866.1665-.0337.128-.1069-.5124-.9748-.3809-.5162-1.1071-1.4965-1.6139-2.1785-.50668-.682-1.29818-1.7416-1.75885-2.35461-.46066-.61304-.85268-1.17239-.87115-1.243-.01846-.07062.04577-.22926.14274-.35254.12556-.15962.22884-.21409.35881-.18925.10038.01919.93224.59351 1.84858 1.27627.91637.68276 2.38257 1.77003 3.25827 2.41613.8757.646 1.6167 1.1459 1.6468 1.1108s.1173-.4958.1938-1.0238.1874-1.266.2463-1.64.1322-.87292.1627-1.1087c.034-.26205.1173-.4904.2143-.5874.1022-.10224.2201-.14282.3313-.11408.0949.02453.2292.11398.2984.19876.0692.08479.1715.47304.2273.86279.0559.38974.1661 1.12263.2451 1.62863.0789.506.1685 1.1297.1992 1.3861.0412.3453.0838.4552.1644.4243.0598-.023.7498-.5181 1.5334-1.1003.7837-.5822 2.0103-1.4932 2.7259-2.02435.7156-.53116 1.548-1.14093 1.8497-1.35505.5254-.37283.5584-.38462.7789-.27892.1834.08791.2303.16297.2303.36885 0 .2081-.2339.57289-1.2 1.87187-.66.8874-1.7474 2.3546-2.4165 3.2605-1.0014 1.3559-1.1923 1.6566-1.08 1.7013.0751.0298.5415.1109 1.0365.1801s1.3945.1999 1.9989.2904c.6984.1046 1.1503.2111 1.24.2923.0776.0702.1411.2052.1411.3s-.0467.2362-.1037.3142c-.0832.1138-.5291.2042-2.2556.4575-1.1835.1736-2.1638.3277-2.1786.3424-.0147.0147.3124.4846.7269 1.0443.4145.5596 1.5045 2.0272 2.4223 3.2614s1.6804 2.3325 1.6947 2.4406c.0143.1082-.0363.2655-.1124.3496s-.2138.1522-.306.1514-.6414-.3518-1.2204-.78-1.659-1.2272-2.4-1.7756-1.754-1.2996-2.2512-1.6693c-.4972-.3698-.9164-.6591-.9315-.6429-.0151.0161-.0854.4163-.1563.8893-.0708.4729-.2008 1.3549-.2888 1.96-.088.605-.1812 1.2013-.2072 1.3251-.0281.1341-.1281.262-.2471.3163-.1573.0716-.2444.0662-.4076-.0255-.1877-.1053-.2211-.2014-.3461-.9962-.0761-.4838-.2359-1.5637-.3551-2.3997-.1191-.836-.2299-1.5348-.246-1.5529-.0162-.0181-.2241.0138-.462.0709-.3891.0934-.4927.1691-1.0289.7529-.3278.357-.8618.9371-1.1865 1.2891-.3248.352-.8095.874-1.0773 1.16s-.6746.7258-.9041.9773c-.22943.2516-.64452.7016-.92239 1-.27788.2985-1.20002 1.2987-2.0492 2.2227-.84919.924-1.76522 1.914-2.03563 2.2s-.7323.7817-1.02642 1.1015c-.29413.3198-.81921.8868-1.16685 1.26-.63209.6785-.63209.6785-1.72155.6785z" fill-rule="evenodd"/></svg>