<svg fill="none" height="32" viewBox="0 0 32 32" width="32" xmlns="http://www.w3.org/2000/svg"><g stroke="currentColor" stroke-linecap="round" stroke-linejoin="round" stroke-width="2"><path d="m20 26.0268v-2.87c.0375-.4768-.0269-.9562-.189-1.4062s-.4181-.8604-.751-1.2038c3.14-.35 6.44-1.54 6.44-7-.0003-1.3962-.5373-2.7388-1.5-3.75001.4558-1.22149.4236-2.57165-.09-3.77 0 0-1.18-.35-3.91 1.48-2.292-.62118-4.708-.62118-7 0-2.73-1.83-3.91001-1.48-3.91001-1.48-.51363 1.19835-.54586 2.54851-.09 3.77-.96988 1.01871-1.50748 2.37351-1.5 3.78001 0 5.42 3.30001 6.61 6.44001 7-.329.34-.5828.7454-.7447 1.1899-.162.4445-.2285.9182-.1953 1.3901v2.87"/><path d="m13 24.0267c-3 .9732-5.5 0-7-3"/></g></svg>