<svg fill="none" height="32" viewBox="0 0 32 32" width="32" xmlns="http://www.w3.org/2000/svg"><path d="m28.1218 10.297c.0178.2487.0178.4975.0178.7462 0 7.5862-5.7741 16.3274-16.3274 16.3274-3.2513 0-6.27158-.9417-8.8122-2.5761.46195.0532.90606.071 1.38578.071 2.6827 0 5.15227-.9061 7.12432-2.4517-2.5228-.0534-4.63702-1.7056-5.36546-3.9798.35536.0533.71066.0888 1.0838.0888.51521 0 1.03047-.071 1.51014-.1954-2.62943-.533-4.60157-2.8426-4.60157-5.6319v-.0711c.76393.4264 1.65233.6929 2.59388.7284-1.54569-1.0305-2.55834-2.7893-2.55834-4.7792 0-1.06597.28422-2.04312.78171-2.89592 2.82488 3.48223 7.07114 5.75632 11.83244 6.00512-.0888-.4264-.1421-.8706-.1421-1.3147 0-3.1625 2.5584-5.73861 5.7386-5.73861 1.6522 0 3.1446.69289 4.1929 1.81218 1.2969-.24872 2.5405-.72844 3.6421-1.38579-.4265 1.33252-1.3325 2.45181-2.5229 3.16242 1.1549-.12431 2.2742-.44417 3.3046-.88829-.7816 1.13701-1.7588 2.14966-2.8781 2.96699z" fill="currentColor"/></svg>