<svg fill="#000" height="32" viewBox="0 0 32 32" width="32" xmlns="http://www.w3.org/2000/svg"><path clip-rule="evenodd" d="m30 16c0 7.732-6.268 14-14 14-7.73199 0-14-6.268-14-14 0-4.58 2.19929-8.64638 5.59941-11.20059l-2.79941-2.79941h11.2c7.732 0 14 6.26801 14 14zm-16.975 8.75c-4.34924 0-7.875-3.5258-7.875-7.875 0-.2809.01471-.5583.04339-.8316.27328-.0287.55073-.0434.83161-.0434 4.3492 0 7.875 3.5258 7.875 7.875 0 .2809-.0147.5583-.0434.8316-.2733.0287-.5507.0434-.8316.0434zm5.95 0c4.3492 0 7.875-3.5258 7.875-7.875 0-.2809-.0147-.5583-.0434-.8316-.2733-.0287-.5507-.0434-.8316-.0434-4.3492 0-7.875 3.5258-7.875 7.875 0 .2809.0147.5583.0434.8316.2733.0287.5507.0434.8316.0434z" fill-rule="evenodd"/></svg>