<svg fill="#000" height="32" viewBox="0 0 32 32" width="32" xmlns="http://www.w3.org/2000/svg"><path d="m15.6647 30.8808-12.21993-7.0552c-.2752-.159-.44477-.4525-.44477-.7706v-14.1101c0-.318.16957-.61156.44477-.77056l12.21993-7.05509c.2752-.159001.6143-.159001.8895 0l12.22 7.05509c.2752.159.4448.45256.4448.77056v14.1101c0 .3181-.1696.6116-.4448.7706l-12.22 7.0552c-.2752.1589-.6143.1589-.8895 0zm-9.99611-8.3389 9.99611 5.7715c.2752.1588.6143.1588.8895 0l9.9962-5.7715c.2751-.159.4448-.4525.4448-.7705v-11.5422c0-.31805-.1697-.61158-.4448-.77058l-9.9962-5.7714c-.2752-.159-.6143-.159-.8895 0l-9.99611 5.7714c-.2752.159-.44477.45253-.44477.77058v11.5422c0 .318.16957.6115.44477.7705z"/><path d="m15.6648 5.72868-8.2282 4.75062c-.27521.159-.44478.4526-.44478.7706v8.9876c0 .6355.33913 1.2231.88953 1.5406l1.00072.5775c.14845.0856.33359-.021.33359-.1924v-9.6291c0-.318.16955-.6115.44476-.7705l6.00438-3.4664c.2752-.159.6143-.159.8895 0l6.0043 3.4664c.2752.159.4448.4525.4448.7705v6.9334c0 .318-.1696.6115-.4448.7705l-6.0043 3.4663c-.2752.1591-.6143.1591-.8895 0l-2.0015-1.1551c-.2752-.159-.4448-.4527-.4448-.7706v-6.9333c0-.318.1696-.6116.4448-.7706l2.0015-1.1553c.2752-.159.6143-.159.8895 0l2.0014 1.1553c.2752.159.4448.4526.4448.7706v2.3111c0 .318-.1696.6115-.4448.7705l-1.0007.5777c-.1484.0856-.3336-.0212-.3336-.1924v-1.4216-1.0024c0-.318-.1695-.6115-.4447-.7705l-.4448-.2569c-.1379-.0795-.3069-.0795-.4448 0l-.5559.3208c-.2063.119-.3336.3397-.3336.5777v.2407 4.7607c0 .3191.1712.6137.4481.7722l.2146.1223c.2746.1568.6121.1562.8862-.0022l4.233-2.444c.2753-.159.4448-.4526.4448-.7706v-4.8791c0-.318-.1695-.6115-.4448-.7705l-4.2252-2.4396c-.2752-.159-.6143-.159-.8895 0l-4.2253 2.4396c-.2752.159-.4448.4525-.4448.7705v9.5008c0 .318.1696.6115.4448.7705l4.2253 2.4395c.2752.159.6143.159.8895 0l8.2282-4.7506c.275-.159.4448-.4525.4448-.7705v-9.5008c0-.318-.1698-.6115-.4448-.7705l-8.2282-4.75068c-.2752-.15902-.6143-.15902-.8895 0z"/></svg>