<svg fill="#000" height="32" viewBox="0 0 32 32" width="32" xmlns="http://www.w3.org/2000/svg"><path d="m26.0986 13.2567c.4408-2.9419-1.8007-4.52371-4.8634-5.5792l.9937-3.9862-2.4254-.60351-.9683 3.88089c-.6374-.16001-1.2913-.30879-1.9441-.45757l.9755-3.90615-2.4253-.60496-.9938 3.98476c-.5277-.12071-1.0471-.23859-1.5495-.36491l.0028-.01264-3.34617-.83515-.64564 2.59104s1.80081.41265 1.76291.43792c.9825.24561 1.1593.89546 1.1299 1.41198l-2.72158 10.9184c-.1207.2975-.42529.7453-1.11305.5755.02527.0351-1.76287-.4392-1.76287-.4392l-1.2043 2.7761 3.15806.7876c.5867.1473 1.16217.3016 1.72782.4463l-1.00355 4.031 2.42397.6035.9937-3.9862c.6625.1783 1.3054.344 1.9342.5012l-.991 3.9694 2.4254.6034 1.0035-4.0226c4.1378.7831 7.2481.4674 8.5578-3.2745 1.0555-3.0122-.0521-4.7512-2.2289-5.8838 1.586-.3649 2.7791-1.4079 3.0976-3.5624zm-5.5441 7.7732c-.748 3.0133-5.822 1.3838-7.4671.9753l1.3335-5.3406c1.6449.4112 6.9183 1.2239 6.1336 4.3653zm.751-7.8167c-.6836 2.7412-4.9056 1.3475-6.2741 1.0064l1.207-4.84237c1.3686.34106 5.7801.97687 5.0671 3.83597z" /></svg>