<svg fill="#000" height="32" viewBox="0 0 32 32" width="32" xmlns="http://www.w3.org/2000/svg"><path clip-rule="evenodd" d="m3.06916 1.04205c-.1095.1014-.08082 27.11185.02888 27.14625.05261.0165.83771.018 1.74452.0034l1.64889-.0265-.02451-13.568-.02453-13.56807-1.65324-.02449c-.90923-.013465-1.68319.00341-1.72001.03741zm7.68954.90918c-1.1253.01741-1.61756.05707-1.67251.1346-.09196.12975-.08546 9.03967.00659 9.03517.0346-.0018.26552-.3147.5131-.6955.47762-.73426 1.22642-1.63447 1.35962-1.63447.0439 0 .0798 3.04867.0798 6.77477 0 4.093-.0355 6.7749-.0897 6.7749-.1183 0-1.17461-1.3019-1.52463-1.879-.15145-.2496-.29904-.4538-.32801-.4539-.02897-.0002-.05077 2.0491-.04845 4.5538l.00425 4.554 1.70814.0244c1.5685.0225 1.7112.0114 1.7464-.1345.0842-.3497.0146-26.95269-.0707-27.01442-.049-.03554-.8068-.05349-1.6839-.03985zm4.4232.97521c-.0763.07063-.093 3.26234-.017 3.26234.0273 0 .3643-.08076.749-.17946.8409-.21582 1.1389-.22748 1.1401-.04487.0006.07403.0017 4.44515.0023 9.71365.0014 8.1637-.0186 9.5829-.1349 9.606-.075.0148-.4867-.0558-.9148-.1571-.4281-.1012-.8045-.184-.8364-.184s-.0464 1.161-.0323 2.5798l.0257 2.5798h1.6958 1.6957v-13.5946-13.59447l-1.6532-.0245c-.9092-.01346-1.6832.00341-1.72.03741zm5.9623 1.97565.0273 1.04638.7752.24139c.8704.27108 1.6415.61413 2.253 1.0024l.4118.2614v8.11044 8.1104l-.2665.175c-.4519.2965-1.6651.8389-2.4377 1.0898l-.7358.2389v2.9108 2.911h1.6958 1.6957l.0254-3.647.0253-3.6471.653-.5132c.8-.6289 1.6835-1.5347 2.1366-2.1906.52-.7527 1.1448-2.0371 1.3788-2.834.2699-.9191.378-3.4114.1903-4.3886-.4036-2.102-1.7923-4.36985-3.4707-5.6672-.3563-.27557-.7018-.58883-.7676-.69623-.0831-.1356-.1202-.70998-.1211-1.87785l-.0015-1.68249h-1.7473-1.7472z" fill-rule="evenodd"/></svg>