<svg fill="#000" height="32" viewBox="0 0 32 32" width="32" xmlns="http://www.w3.org/2000/svg"><path d="m25.2458 7.9882c-.189-.09767-.373-.20475-.5513-.32082-.5184-.34271-.9937-.74654-1.4156-1.20277-1.0558-1.20802-1.4501-2.43354-1.5954-3.29159h.0058c-.1213-.71221-.0711-1.17302-.0635-1.17302h-4.8088v18.5946c0 .2496 0 .4964-.0105.7402 0 .0303-.0029.0583-.0047.091 0 .0134 0 .0274-.0029.0414v.0105c-.0507.6672-.2645 1.3117-.6228 1.8768-.3582.5651-.8498 1.0335-1.4316 1.364-.6063.345-1.2921.5259-1.9896.525-2.2405 0-4.05632-1.8269-4.05632-4.0831s1.81582-4.0832 4.05632-4.0832c.4241-.0003.8456.0664 1.2488.1978l.0059-4.8963c-1.2242-.1581-2.4678-.0608-3.6525.2858-1.18463.3465-2.28461.9348-3.23052 1.7278-.82884.7201-1.52565 1.5794-2.05907 2.5391-.20299.35-.96887 1.7563-1.06161 4.0388-.05833 1.2955.33073 2.6377.51622 3.1924v.0117c.11666.3267.56872 1.4414 1.30544 2.3811.59406.7537 1.29592 1.4159 2.08298 1.9651v-.0117l.01166.0117c2.328 1.5819 4.9091 1.4781 4.9091 1.4781.4468-.0181 1.9436 0 3.6433-.8055 1.8852-.8931 2.9585-2.2236 2.9585-2.2236.6857-.795 1.2309-1.701 1.6123-2.6791.4351-1.1439.5804-2.5158.5804-3.0641v-9.8649c.0583.035.8353.5489.8353.5489s1.1193.7175 2.8657 1.1847c1.253.3325 2.9411.4025 2.9411.4025v-4.77375c-.5915.06416-1.7925-.1225-3.0221-.73555z" /></svg>