<svg width="32" height="32" viewBox="0 0 32 32" fill="#000" xmlns="http://www.w3.org/2000/svg">
<path fill-rule="evenodd" clip-rule="evenodd" d="M15.8232 15.8232C19.2403 19.2403 24.7805 19.2403 28.1975 15.8232C31.6146 12.4061 31.6146 6.86594 28.1975 3.44885C24.7805 0.0317632 19.2403 0.0317605 15.8232 3.44884C15.8232 3.44884 15.8232 3.44885 15.8232 3.44885C19.2403 6.86594 19.2403 12.4061 15.8232 15.8232C15.8232 15.8232 15.8232 15.8232 15.8232 15.8232Z" fill-opacity="0.85"/>
<rect x="-3.09192" y="22.364" width="17.5" height="17.5" rx="8.75" transform="rotate(-45 -3.09192 22.364)" fill-opacity="0.45"/>
<path fill-rule="evenodd" clip-rule="evenodd" d="M3.09527 3.44885C-0.321822 6.86594 -0.321822 12.4061 3.09527 15.8232C6.51235 12.4061 12.0525 12.4061 15.4696 15.8232C18.8867 12.4061 18.8867 6.86594 15.4696 3.44885C12.0525 0.0317605 6.51235 0.0317602 3.09527 3.44885Z" fill-opacity="0.65"/>
<path fill-rule="evenodd" clip-rule="evenodd" d="M15.8233 28.5511C19.2404 31.9682 24.7805 31.9682 28.1976 28.5511C31.6147 25.1341 31.6147 19.5939 28.1976 16.1768C24.7826 19.5918 19.2471 19.5939 15.8296 16.1831C19.2404 19.6006 19.2383 25.1361 15.8233 28.5511Z" fill-opacity="1"/>
</svg>