<svg width="32" height="32" viewBox="0 0 32 32" fill="none" xmlns="http://www.w3.org/2000/svg">
<path d="M16.0292 19.3279C15.7716 19.3279 9.65908 19.2744 4.98333 14.5969C4.88433 14.4988 4.78796 14.3989 4.69334 14.2991C3.71386 13.267 3.24952 12.0387 3.34765 10.7482C3.43526 9.6093 3.96092 8.50627 4.82388 7.64071C5.68684 6.7751 6.79335 6.2512 7.93138 6.16449C9.12377 6.07686 10.2636 6.46411 11.2457 7.2964C11.3517 6.01379 11.8809 4.93093 12.7885 4.15295C13.6549 3.40913 14.8035 3 16.0301 3C17.2566 3 18.4052 3.40913 19.2716 4.15295C20.1784 4.9318 20.7085 6.01379 20.8144 7.2964C21.7966 6.46411 22.9364 6.06983 24.1287 6.16449C25.2677 6.25207 26.3707 6.77775 27.2354 7.64071C28.1001 8.50367 28.6257 9.61016 28.7116 10.7482C28.8106 12.0387 28.3454 13.267 27.3668 14.3008C27.2722 14.4007 27.1758 14.5006 27.0768 14.5987C22.4002 19.2744 16.2876 19.3279 16.0292 19.3279ZM8.26957 7.12206C7.2095 7.12206 6.21425 7.61529 5.50636 8.3223C4.23426 9.59529 3.65604 11.8013 5.39421 13.6385C5.483 13.7325 5.57352 13.8257 5.66581 13.9179C10.0621 18.3133 15.9713 18.3642 16.0301 18.3642C16.0888 18.3642 22.0103 18.3028 26.3952 13.9179C26.4881 13.8251 26.5786 13.7319 26.6668 13.6385C28.405 11.7987 27.8267 9.59529 26.5546 8.3223C25.2826 7.04931 23.0757 6.4711 21.2359 8.21016C21.1418 8.29837 21.0487 8.38889 20.9564 8.48176C20.8854 8.55273 20.8162 8.62544 20.7478 8.69814L19.8341 9.66712L19.87 8.33717C19.87 8.23558 19.8762 8.13481 19.8762 8.0323C19.8762 7.9009 19.8762 7.76951 19.8709 7.64244C19.8008 5.11491 17.8322 3.96283 16.0318 3.96283C14.2314 3.96283 12.2646 5.11404 12.1936 7.64244C12.1936 7.77124 12.1883 7.90529 12.1883 8.0323C12.1883 8.13221 12.1883 8.23033 12.1936 8.32933L12.2296 9.66712L11.3149 8.70339C11.2457 8.62982 11.1756 8.5562 11.1038 8.4835C11.0109 8.39062 10.9177 8.3001 10.8243 8.21189C10.0051 7.43483 9.11587 7.12206 8.26957 7.12206Z" fill="#204F24"/>
<path d="M15.4116 14.2237H14.7107C14.7107 13.1802 13.6944 12.3304 12.4468 12.3304C11.1993 12.3304 10.183 13.1802 10.183 14.2237H9.48212C9.48212 12.793 10.812 11.6295 12.4468 11.6295C14.0816 11.6295 15.4116 12.793 15.4116 14.2237Z" fill="#204F24"/>
<path d="M22.5379 14.1948H21.837C21.837 13.1514 20.8216 12.3024 19.5732 12.3024C18.3247 12.3024 17.3094 13.1514 17.3094 14.1948H16.6085C16.6085 12.765 17.9384 11.6015 19.5732 11.6015C21.208 11.6015 22.5379 12.765 22.5379 14.1948Z" fill="#204F24"/>
<path d="M13.2539 14.2385C13.8108 14.2385 14.2623 13.7871 14.2623 13.2301C14.2623 12.6732 13.8108 12.2217 13.2539 12.2217C12.697 12.2217 12.2455 12.6732 12.2455 13.2301C12.2455 13.7871 12.697 14.2385 13.2539 14.2385Z" fill="#204F24"/>
<path d="M20.3327 14.2385C20.8896 14.2385 21.3411 13.7871 21.3411 13.2301C21.3411 12.6732 20.8896 12.2217 20.3327 12.2217C19.7758 12.2217 19.3243 12.6732 19.3243 13.2301C19.3243 13.7871 19.7758 14.2385 20.3327 14.2385Z" fill="#204F24"/>
<path d="M16.0267 16.8002C15.2006 16.8002 14.4348 16.3753 14.0774 15.7182L14.6907 15.3836C14.9281 15.8216 15.4511 16.0993 16.025 16.0993C16.5988 16.0993 17.1227 15.8181 17.3592 15.3836L17.9725 15.7182C17.6186 16.3753 16.8555 16.8002 16.0267 16.8002Z" fill="#204F24"/>
<path d="M28.5874 26.5155C26.8311 27.3378 24.8515 27.5535 22.9593 27.1287C21.3931 26.7815 19.9553 26.0031 18.8083 24.8816C19.5345 25.1825 20.3134 25.3355 21.0993 25.3319C22.4584 25.3322 23.7838 24.9096 24.892 24.1228L24.3295 23.3396C22.813 24.4312 20.727 24.6941 19.0808 23.9503C17.4565 23.2187 16.5401 21.6531 16.4814 19.5303V18.8461H15.5177V18.967V19.5251C15.4617 21.6505 14.5435 23.2178 12.9175 23.9503C11.2713 24.6923 9.18174 24.433 7.66874 23.337L7.10716 24.1202C8.21459 24.9073 9.53938 25.3304 10.898 25.331C11.684 25.3348 12.4629 25.1818 13.189 24.8807C12.0424 26.0022 10.6049 26.7806 9.03893 27.1279C7.1468 27.5527 5.16713 27.337 3.41089 26.5146L3 27.3863C4.28977 27.9917 5.69727 28.3049 7.12205 28.3036C7.83792 28.3038 8.55162 28.2248 9.25011 28.0679C11.3934 27.5921 13.308 26.3942 14.6731 24.6748L14.6793 24.6669C14.9996 24.2467 15.2809 23.798 15.5195 23.3265V28.2861H16.4832V23.3335C16.7214 23.8026 17.0018 24.2493 17.3207 24.6678L17.3269 24.6757C18.6919 26.3948 20.6061 27.5927 22.749 28.0688C23.4475 28.2257 24.1612 28.3047 24.8771 28.3045C26.3022 28.3058 27.7099 27.9926 29 27.3872L28.5874 26.5155Z" fill="#204F24"/>
</svg>
