<svg fill="#000" height="32" viewBox="0 0 32 32" width="32" xmlns="http://www.w3.org/2000/svg"><path d="m12.4753 11.3751-.0684 6.8518-2.194-.0686.0683-8.83877c5.7693-.06577 11.2275-.47741 13.0272 3.42577.5245 1.2797.6673 2.6837.4114 4.0428-1.0468 5.1634-5.0954 5.265-11.2445 5.2073.0227 2.1008.0455 4.202.0686 6.3038h11.9302c.855 0 3.5218.3291 3.9081-.2057.0227-6.3716.0456-12.7438.0687-19.11666.608-.02221 1.7596-.13645 2.1253.13702-.0455 7.10254-.0912 14.20554-.137 21.30924h-20.0893l-.137-.0687v-8.359l-8.43348-.0687v-15.27947c0-1.01163-.21924-4.71924.27432-5.0703l20.98036.06865c.0687.04558.1372.09126.2057.13703v1.78125l-.0684.13701h-14.2615c-.89222 0-4.59808-.21547-5.0051.13703-.0227 4.065-.04557 8.1305-.06865 12.1964 0 .8911-.34271 3.2885.13729 3.8366l4.45674.0686c4.26922 0 10.62862.8573 12.40992-1.6442.5365-.7535.7007-1.7086.6857-3.0147-.0491-4.2502-4.6443-3.9672-9.0505-3.9055zm12.8221-9.72952 5.2108.06837-.0684 5.20731-2.057-.06837v-3.15202l-3.1541-.06837c.0227-.6623.0456-1.32461.0687-1.98692z" /></svg>