<svg fill="none" height="32" viewBox="0 0 32 32" width="32" xmlns="http://www.w3.org/2000/svg"><g stroke="currentColor" stroke-width="2"><path d="m6 5.66667c0-.36819.29848-.66667.66667-.66667h18.66663c.3683 0 .6667.29848.6667.66667v15.33333c0 .3682-.2984.6667-.6667.6667h-4.6009c-.1837 0-.3594.0759-.4854.2097l-3.7616 3.9967c-.2632.2797-.7076.2797-.9708 0l-3.7616-3.9967c-.126-.1338-.3017-.2097-.4855-.2097h-4.60083c-.36819 0-.66667-.2985-.66667-.6667z"/><path d="m16 9.44444 1.5838 2.86066 2.8606 1.5838-2.8606 1.5838-1.5838 2.8606-1.5838-2.8606-2.8607-1.5838 2.8607-1.5838z" stroke-linecap="round" stroke-linejoin="round"/></g></svg>