<svg width="32" height="32" viewBox="0 0 32 32" fill="none" stroke="currentColor" stroke-width="2" stroke-linecap="round" stroke-linejoin="round" xmlns="http://www.w3.org/2000/svg">
<path d="M24.5556 26.0401H7.44444C6.79614 26.0401 6.17438 25.7826 5.71596 25.3241C5.25754 24.8657 5 24.244 5 23.5957V12.5957C5 11.9473 5.25754 11.3256 5.71596 10.8672C6.17438 10.4087 6.79614 10.1512 7.44444 10.1512H24.5556C25.2039 10.1512 25.8256 10.4087 26.284 10.8672C26.7425 11.3256 27 11.9473 27 12.5957V23.5957C27 24.244 26.7425 24.8657 26.284 25.3241C25.8256 25.7826 25.2039 26.0401 24.5556 26.0401Z" />
<path d="M21.5 18.7068C21.338 18.7068 21.1825 18.6424 21.0679 18.5278C20.9533 18.4132 20.8889 18.2577 20.8889 18.0957C20.8889 17.9336 20.9533 17.7781 21.0679 17.6635C21.1825 17.5489 21.338 17.4846 21.5 17.4846C21.6621 17.4846 21.8175 17.5489 21.9321 17.6635C22.0468 17.7781 22.1111 17.9336 22.1111 18.0957C22.1111 18.2577 22.0468 18.4132 21.9321 18.5278C21.8175 18.6424 21.6621 18.7068 21.5 18.7068Z" />
<path d="M23.3333 10.1512V8.44376C23.3332 8.06916 23.247 7.69958 23.0814 7.36359C22.9157 7.02759 22.6751 6.73415 22.378 6.50595C22.081 6.27774 21.7354 6.12086 21.3681 6.04743C21.0007 5.97399 20.6214 5.98597 20.2594 6.08243L6.815 9.66721C6.2944 9.80594 5.83421 10.1128 5.50599 10.54C5.17776 10.9673 4.99988 11.491 5 12.0298V12.5957" />
</svg>
