<svg fill="#000" height="32" viewBox="0 0 32 32" width="32" xmlns="http://www.w3.org/2000/svg"><path clip-rule="evenodd" d="m19.2666 28.8825c-6.5499.0038-11.40346-.0086-11.47412-.0292-.06736-.0197-.16249-.0783-.21141-.1304s-.10378-.1472-.1219-.2113c-.01812-.0642-.026-.167-.0175-.2285.00849-.0615.17525-.3952.37057-.7416s.4807-.846.63419-1.1103c.24243-.4174.30878-.5008.50534-.635.12444-.085.32089-.1798.43654-.2106.1772-.0471 1.73439-.056 9.89929-.0564 6.8231-.0004 9.749.0124 9.892.043.1117.024.2882.1007.3924.1704.1041.0698.2501.2091.3244.3097s.3529.6057.6192 1.1224c.4186.8123.4842.9654.4844 1.1302.0002.1284-.0259.2256-.0801.2981-.0442.0592-.1302.1448-.191.1903-.1107.0826-.1107.0826-11.4623.0892zm-15.99527-.0927c-.15787.0066-.34116.0066-.4073-.0001s-.34575-.023-.62134-.0362c-.2756-.0133-.56897-.0415-.65194-.0627-.08297-.0213-.21481-.0949-.29299-.1635-.07817-.0687-.17715-.1934-.21995-.2773-.04279-.0839-.07781-.231-.07781-.3268 0-.1427.05175-.2645.28601-.6731.1573-.2743.44835-.7784.64678-1.1201s.39182-.6755.42974-.7416c.03793-.0661.23353-.4046.43467-.7521.20114-.3476.57575-.997.83246-1.4432.25671-.4461.55194-.9555.65606-1.1319s.24382-.4199.31046-.5412c.06663-.1212.54916-.96 1.07229-1.864.52313-.9039 1.0017-1.7337 1.06349-1.844.06179-.1102.19237-.3357.29016-.5011.0978-.1653.22362-.3818.2796-.481s.36739-.6404.69202-1.2026c.32464-.5622.6201-1.0763.65659-1.1425.03649-.0661.07537-.1293.08639-.1403.01103-.011.0641-.1012.11794-.2004s.19701-.3518.31815-.5612c.12114-.2095.32216-.5522.44671-.7617.12455-.2094.33315-.5687.46358-.7983.1304-.2296.3002-.5275.3773-.662.0772-.1345.2177-.3748.3122-.5341.0945-.1592.2298-.3943.3007-.5223.0708-.128.2984-.5277.5058-.88816s.4301-.71571.4948-.78943c.0647-.07373.187-.15479.2716-.18015s.2362-.03683.3368-.02549c.1089.01227.237.06194.3168.12281.0786.0599.272.33155.4673.65636.1833.30479.4017.68043.4852.83476.0954.1764.1696.3839.1998.5587.0274.1591.0381.4181.0249.6054-.0146.2057-.0575.4096-.1157.5487-.0509.1217-.2459.4884-.4333.8149-.1874.3264-.3679.6399-.4012.6965-.0332.0567-.1095.1889-.1696.2938-.06.105-.1527.2674-.206.3608-.0533.0935-.1891.3277-.3018.5205s-.3221.5536-.4652.8017c-.1432.2482-.373.6465-.5107.8852-.1378.2387-.3517.6085-.4754.8218s-1.41877 2.4573-2.87789 4.9868c-1.45911 2.5294-2.80763 4.8655-2.9967 5.1912s-.37901.656-.42208.7339c-.04308.0779-.1447.214-.22582.3023-.08113.0883-.22246.2186-.31409.2896-.09162.071-.28715.1744-.43451.2299-.17129.0645-.37147.1052-.55498.1129zm12.64087-5.4424c-2.2819.0019-4.2268-.0109-4.3219-.0284-.0952-.0175-.2308-.0676-.3014-.1112s-.1675-.121-.2153-.172c-.0479-.051-.1238-.1739-.1688-.2731-.0468-.1031-.0821-.2662-.0826-.3808-.0005-.1481.0337-.2685.1311-.461.0724-.1433.2325-.4319.3557-.6414.1232-.2094.3542-.6063.5133-.8819.1592-.2756.349-.6003.4218-.7216.0728-.1212.1838-.3114.2467-.4225.0628-.1112.2691-.4719.4582-.8017.1892-.3299.4881-.8432.6642-1.1409.1761-.2976.3845-.6584.4631-.8017s.2102-.3778.2925-.5211c.0824-.1433.1914-.3259.2424-.4058.051-.0798.1256-.2061.1658-.2806s.1165-.2076.1696-.2957c.0531-.0882.1432-.2117.2003-.2743.0572-.0627.1708-.1483.2526-.1904.102-.0525.2317-.0765.4125-.0765.1809 0 .3105.024.4125.0765.0818.0421.1967.1277.2552.1904.0586.0626.1649.2131.2362.3344.0713.1212.1747.3007.2299.3987.0551.0981.1544.2695.2205.3809s.1609.2747.2106.3629c.0497.0881.1848.3226.3002.5211.1153.1984.2437.4192.2853.4907.0415.0715.1407.2429.2202.3808.0796.138.1902.3311.2457.4292.0555.098.1551.2694.2212.3808s.1612.2747.2114.3629c.0501.0882.1853.3227.3005.5211.1151.1985.2432.4193.2845.4908.0414.0714.1404.2428.2199.3808.0796.138.1885.3281.242.4225.0535.0945.2162.3741.3614.6214s.3169.55.3816.6726c.0646.1226.1273.2959.1393.3851.0128.0955-.005.2541-.0433.3857-.0357.123-.1122.2798-.17.3484-.0578.0687-.1975.1737-.3104.2332-.2052.1083-.2052.1083-4.3542.1117zm10.1219-.0528c-.8541.0128-1.2059.0043-1.3262-.0323-.09-.0273-.2253-.0815-.3007-.1205-.0753-.0389-.2047-.1252-.2875-.1918-.0828-.0665-.2087-.2116-.2799-.3224-.0711-.1108-.1656-.2661-.2101-.345s-.1581-.2783-.2523-.443c-.0943-.1647-.2135-.3717-.2651-.4599-.0515-.0882-.1477-.2515-.2137-.3629-.0661-.1113-.1702-.2917-.2314-.4008-.0613-.1091-.1744-.3156-.2515-.4589-.077-.1433-.1874-.3327-.2451-.4209-.0578-.0882-.158-.2596-.2227-.3808-.0647-.1213-.2879-.5091-.4959-.8619s-.4134-.7045-.4564-.7817-.1308-.2305-.1952-.3407c-.0644-.1103-.1985-.3448-.2981-.5212-.0996-.1763-.2235-.3928-.2754-.481-.052-.0882-.1536-.2596-.2259-.3808-.0723-.1213-.1722-.2927-.2219-.3808-.0497-.0882-.1704-.2957-.2682-.461-.0978-.1654-.2239-.3819-.2802-.4811s-.2059-.3608-.3325-.5812c-.1265-.2205-.2614-.455-.2996-.5212-.0382-.0661-.1244-.2127-.1914-.3257-.0671-.113-.1759-.3024-.242-.4209-.066-.1185-.2001-.3507-.2979-.5161s-.2331-.3999-.3006-.5211c-.0676-.1213-.2028-.3558-.3006-.5211-.0978-.1654-.2235-.3819-.2793-.4811s-.2228-.3878-.3711-.6414c-.1483-.25352-.3147-.54215-.3697-.64136-.055-.09922-.137-.24353-.1823-.32069-.0452-.07717-.1176-.20345-.1609-.28061-.0432-.07717-.1174-.20344-.1648-.28061-.0474-.07716-.1197-.20344-.1607-.2806-.0409-.07717-.1131-.20345-.1603-.28061-.0472-.07717-.119-.20167-.1595-.27668-.0404-.07501-.1128-.20128-.1609-.28061-.048-.07932-.1311-.2254-.1846-.32462-.0536-.09921-.1469-.26156-.2075-.36078-.0606-.09921-.1586-.27876-.2179-.399-.0593-.12025-.1267-.34122-.1499-.49107-.0298-.19284-.0295-.35456.0013-.55351.026-.16778.0984-.38996.1797-.5512.0749-.14856.3462-.58652.603-.97325.3727-.56145.4957-.71694.6105-.77167.079-.03769.1978-.06853.2639-.06853s.1782.02473.2491.05496c.071.03023.1653.09788.2097.15033s.1158.1585.1587.23566c.0428.07717.1238.21868.1798.31447.0561.0958.1496.25472.2078.35316.0583.09845.1803.3087.2712.46722.0909.15853.2122.36941.2694.46862.0573.09921.1677.28862.2455.42091.0777.13228.186.3217.2406.42091.0547.09921.1487.26157.209.36078.0602.09921.1614.27058.2248.38082s.1518.26483.1965.34352c.0446.0787.1581.27713.2521.44095.094.16383.2244.38807.2898.49831.0654.11023.2005.34474.3003.52112s.2267.39721.282.49072c.0554.09352.1657.28293.2453.42091.0795.13799.186.32304.2365.41123s.1861.3227.3013.5211c.1151.1985.2501.433.2999.5212.0497.0881.1849.3227.3002.5211.1154.1984.2507.4329.3007.5211s.1853.3227.3006.5211c.1153.1985.2437.4193.2853.4908s.1406.2428.22.3808c.0795.138.1943.3411.2551.4513s.1965.3447.3016.5211.2561.4393.3357.5842c.0795.1449.316.5565.5254.9147.2095.3582.4198.7177.4673.7989.0475.0811.1126.1926.1445.2477s.1261.2175.2094.3608c.0832.1433.2052.3598.2711.481.0659.1213.1602.2837.2095.3608.0493.0772.1415.2305.2047.3408.0633.1102.145.2545.1816.3207.0366.0661.1611.2826.2767.481.1157.1984.2556.441.311.5391.0554.098.1549.2694.221.3808s.1612.2747.2113.3629c.0502.0882.1855.3227.3006.5211.1152.1984.2505.4329.3008.5211s.2203.3859.3778.6614c.2599.4546.2847.5174.2682.6761-.01.0962-.0529.2225-.0953.2806s-.1391.1357-.2149.1724c-.1158.0562-.3219.0696-1.3002.0843z" fill-rule="evenodd"/></svg>