<svg fill="#000" height="32" viewBox="0 0 32 32" width="32" xmlns="http://www.w3.org/2000/svg"><path d="m11.8865 17.7324c-.7413.6949-.7413 1.8485 0 2.5573l5.4557 5.1148c.7561.7088 1.9718.7088 2.7279 0 .7413-.6949.7413-1.8485 0-2.5574l-5.4557-5.1147c-.7412-.6949-1.9718-.6949-2.7279 0z"/><path d="m30.433 15.6896c.7561-.7089.7561-1.8485 0-2.5574-.7413-.6949-1.9717-.6949-2.7278 0l-7.6351 7.1579c-.7561.7089-.6226.5838-1.3639 1.2787-1.6901 1.5844-4.0028 1.3342-4.7589.6393l3.3949 3.1829c.7413.6949 1.9718.6949 2.7279 0z"/><path d="m20.1138 15.2037c.7412-.6949.7412-1.8485 0-2.5573l-5.4558-5.11477c-.7561-.70884-1.9717-.70884-2.7278 0-.7412.69494-.7412 1.84853 0 2.55737l5.4557 5.1147c.7561.6949 1.9718.6949 2.7279 0z"/><path d="m1.56707 17.2607c-.756095.7088-.756095 1.8485 0 2.5573.74127.6949 1.97181.6949 2.72791 0l7.63502-7.1718c.756-.7088.6227-.5837 1.3639-1.2786 1.6901-1.5845 4.0029-1.3343 4.759-.6394l-3.3951-3.1828c-.7412-.69493-1.9718-.69493-2.7278 0z"/></svg>