<svg fill="none" height="32" viewBox="0 0 32 32" width="32" xmlns="http://www.w3.org/2000/svg"><path d="m27 7.01006s-2.0179 1.19211-3.14 1.53c-.6023-.69249-1.4027-1.18331-2.293-1.40608-.8903-.22276-1.8275-.16673-2.6849.16053s-1.5937.90995-2.1091 1.66926c-.5155.75932-.7853 1.65863-.773 2.57633v1c-1.7574.0455-3.4987-.3442-5.069-1.1346-1.57026-.7904-2.92068-1.95681-3.931-3.39544 0 0-4 9.00004 5 13.00004-2.05947 1.3979-4.51284 2.0989-7 2 9 5 20 0 20-11.5-.0009-.2786-.0277-.5565-.08-.83 1.0206-1.00655 2.08-3.67004 2.08-3.67004z" stroke="currentColor" stroke-linecap="round" stroke-linejoin="round" stroke-width="2"/></svg>