<svg fill="#000" height="32" viewBox="0 0 32 32" width="32" xmlns="http://www.w3.org/2000/svg"><path d="m10.304 4.102c-.37598-.058-.39198-.064-.214-.09.34-.052 1.14.018 1.692.148 1.288.304 2.46 1.084 3.712 2.47l.332.368.476-.076c2.004-.32 4.04-.066 5.746.716.47.216 1.21.644 1.3.754.032.036.086.26.12.502.128.836.066 1.474-.192 1.952-.14.26-.148.342-.054.566.045.0923.1149.17.2019.2245.087.0544.1875.0834.2901.0835.424 0 .88-.68 1.09-1.628l.084-.378.166.188c.914 1.028 1.63 2.428 1.752 3.424l.032.26-.152-.236c-.2209-.3615-.5178-.6706-.87-.906-.612-.402-1.26-.54-2.972-.63-1.548-.08-2.424-.212-3.292-.494-1.478-.48-2.222-1.116-3.978-3.404-.78-1.018-1.26-1.58-1.74-2.032-1.09-1.03-2.16-1.57-3.53-1.78z"/><path d="m23.7 6.372c.038-.68.13-1.13.318-1.54.0412-.10362.0928-.20279.154-.296.01 0-.022.12-.072.266-.136.4-.16.944-.064 1.578.12.804.186.92 1.04 1.788.402.408.868.92 1.038 1.142l.308.4-.308-.286c-.376-.35-1.24-1.034-1.432-1.132-.128-.064-.148-.064-.226.014-.074.072-.088.18-.1.692-.014.798-.124 1.31-.388 1.82-.142.28-.164.22-.036-.094.096-.232.106-.336.106-1.108 0-1.55-.188-1.924-1.274-2.56-.3276-.1892-.6639-.36273-1.008-.52-.1695-.06814-.3339-.14835-.492-.24.03-.03 1.09.278 1.516.44.636.244.74.274.818.246.05-.02.076-.17.1-.61zm-12.666 2.654c-.762-1.044-1.23598-2.646-1.13198-3.844l.03-.37.17398.03c.328.06.89.268 1.154.428.722.436 1.036 1.01 1.354 2.486.094.432.216.92.272 1.088.09.266.434.888.712 1.292.2.292.068.43-.376.39-.678-.06-1.596-.69-2.188-1.5zm11.738 7.774c-3.568-1.426-4.824-2.666-4.824-4.756 0-.308.01-.56.024-.56.012 0 .15.1.306.226.724.576 1.534.822 3.778 1.148 1.32.192 2.06.346 2.746.572 2.18.718 3.526 2.174 3.848 4.16.092.576.04 1.656-.114 2.226-.12.45-.484 1.26-.58 1.292-.028.01-.054-.092-.06-.232-.036-.744-.416-1.47-1.052-2.014-.724-.618-1.696-1.112-4.072-2.062zm-2.504.594c-.0419-.2533-.0993-.5038-.172-.75l-.092-.27.17.19c.234.26.42.594.576 1.04.12.34.132.44.132.992 0 .542-.016.656-.128.96-.1537.4508-.4113.8592-.752 1.192-.652.66-1.49 1.024-2.7 1.176-.21.026-.822.07-1.36.098-1.358.07-2.252.216-3.054.496-.0727.0319-.1507.0502-.23.054-.032-.032.516-.356.966-.572.636-.306 1.27-.472 2.69-.706.7-.116 1.426-.258 1.61-.314 1.736-.528 2.63-1.894 2.344-3.586z"/><path d="m21.904 20.282c-.474-1.012-.584-1.99-.324-2.902.028-.1.072-.178.1-.178.026 0 .14.06.248.134.22.146.656.392 1.824 1.024 1.456.79 2.288 1.4 2.852 2.1.494.61.8 1.308.948 2.156.084.48.034 1.64-.09 2.124-.392 1.528-1.3 2.728-2.6 3.428-.19.102-.36.186-.38.186-.018 0 .052-.174.154-.388.438-.908.488-1.79.158-2.772-.204-.602-.616-1.336-1.448-2.578-.968-1.44-1.204-1.826-1.442-2.334zm-13.40398 5.466c1.326-1.112 2.97198-1.9 4.47398-2.144.7736-.0992 1.5584-.0688 2.322.09.96.244 1.82.792 2.266 1.442.436.638.624 1.192.82 2.428.076.486.16.976.184 1.086.146.64.432 1.152.784 1.408.56.408 1.528.434 2.478.066.0987-.0455.2029-.0778.31-.096.034.034-.444.352-.78.52-.3986.212-.8445.3193-1.296.312-.87 0-1.592-.44-2.196-1.336-.2215-.3794-.4192-.7721-.592-1.176-.636-1.442-.95-1.88-1.688-2.362-.644-.42-1.474-.494-2.098-.19-.82.4-1.048 1.44-.46 2.1.2747.2836.6341.4703 1.024.532.1549.0212.3125.0089.4622-.0362.1497-.045.288-.1218.4054-.225.1174-.1031.2113-.2304.2752-.3731.0639-.1426.0964-.2974.0952-.4537 0-.434-.168-.68-.59-.872-.578-.258-1.196.044-1.194.582 0 .23.102.374.334.48.148.066.152.07.03.046-.528-.11-.652-.744-.228-1.164.512-.504 1.568-.282 1.93.408.152.29.17.866.038 1.214-.3.78-1.164 1.19-2.044.966-.6-.152-.842-.316-1.564-1.054-1.254-1.284-1.74-1.534-3.54798-1.814l-.348-.054z"/><path clip-rule="evenodd" d="m2.61602 2.768c4.188 5.052 7.074 7.136 7.39398 7.576.264.364.164.692-.28798.948-.32143.1615-.67132.2586-1.03.286-.294 0-.396-.112-.396-.112-.17-.16-.266-.132-1.14-1.674-.74307-1.15648-1.49509-2.30718-2.256-3.452-.064-.06-.062-.06 2.134 3.846.354.814.07 1.112.07 1.228 0 .236-.066.36-.358.686-.488.54-.706 1.148-.864 2.406-.176 1.41-.672 2.406-2.048 4.112-.804.998-.936 1.18-1.14 1.584-.256.506-.326.79-.354 1.428-.03.678.028 1.114.236 1.76.18.568.372.94.858 1.688.42.646.66 1.126.66 1.314 0 .148.028.148.68.002 1.552-.348 2.814-.96 3.524-1.714.44-.466.542-.722.546-1.36.002-.416-.012-.504-.126-.744-.184-.39-.52-.716-1.26-1.22-.972-.66-1.388-1.19-1.5-1.92-.096-.6.014-1.022.55-2.14.556-1.16.694-1.654.788-2.82.06-.754.142-1.052.36-1.292.228-.248.432-.332.996-.408.918-.126 1.49998-.36 1.97998-.8.1924-.1588.3477-.3579.4548-.5832s.1635-.4713.1652-.7208l.02-.42-.234-.268c-.842-.976-8.98598-7.984-9.03798-7.984-.01 0 .266.346.616.768zm1.952 19.63c.09175-.162.11904-.3527.0764-.534-.04263-.1813-.15204-.3398-.3064-.444-.3-.2-.77-.104-.77.154 0 .08.044.138.144.188.168.086.18.182.048.38-.134.198-.122.372.03.492.246.19.594.086.778-.236zm7.28198-9.4c-.43.13-.848.584-.98 1.06-.078.29-.032.8.086.956.192.254.376.32.878.318.98-.006 1.832-.424 1.932-.948.08-.428-.294-1.02-.81-1.282-.3505-.1423-.7351-.1785-1.106-.104zm1.148.89c.15-.214.084-.444-.174-.6-.488-.298-1.23-.052-1.23.408 0 .23.386.48.74.48.236 0 .56-.14.664-.288z" fill-rule="evenodd"/></svg>