<svg fill="none" height="32" viewBox="0 0 32 32" width="32" xmlns="http://www.w3.org/2000/svg"><path d="m16.1428 24.9261c.9238 0 1.6727-.745 1.6727-1.6641s-.7489-1.6642-1.6727-1.6642c-.9237 0-1.6726.7451-1.6726 1.6642s.7489 1.6641 1.6726 1.6641z" fill="#f59db6" opacity=".25"/><path clip-rule="evenodd" d="m23.85 29.005-2.8368-1.3216c-.2297-.1142-.5084 0-.6068.2284l-1.3282 2.8225c-.1804.3753-.7052.3427-.8527-.0326l-2.8861-7.8639c-.082-.2447.0328-.5057.2788-.5873l5.395-1.9578c.2459-.0816.5083.0326.5903.2773l2.886 7.8639c.1312.3752-.2623.7342-.6395.5711z" fill="#eac9f8" fill-rule="evenodd"/><path d="m18.6682 30.3755c-.082 0-.1477-.049-.164-.1142l-2.7714-7.5702.0165-.049c.0164-.0163.0327-.0489.0492-.0489l5.2966-1.9252c.0492-.0163.1147 0 .1312.0652l2.7549 7.5376c.0328.0653 0 .1469-.0492.1958s-.1312.0653-.1968.0326l-2.5582-1.191c-.1311-.0652-.2787-.0815-.4099-.0815-.3279.0163-.6068.2283-.7543.5383l-1.1807 2.4963c-.0328.0816-.0984.1142-.1639.1142zm-2.755-7.6355 2.7385 7.456s0 .0163.0165.0163c.0163 0 .0163 0 .0163-.0163l1.1807-2.4962c.1804-.3753.5248-.62.9019-.6363.1804-.0163.3444.0163.4919.0979l2.5582 1.191h.0164v-.0163l-2.7385-7.4724z" fill="#fff"/><path clip-rule="evenodd" d="m8.43569 29.0049 2.83691-1.3215c.2296-.1142.5083 0 .6067.2284l1.3282 2.8225c.1805.3753.7051.3426.8528-.0326l2.886-7.8802c.082-.2447-.0328-.5058-.2787-.5874l-5.395-1.9578c-.246-.0815-.5084.0326-.5904.2774l-2.88604 7.8639c-.13118.3915.26237.7505.63953.5873z" fill="#eac9f8" fill-rule="evenodd"/><path d="m13.6175 30.3754c-.0656 0-.1312-.0326-.164-.0979l-1.1806-2.4962c-.1476-.31-.4428-.5221-.7544-.5384-.1475 0-.2787.0163-.4099.0816l-2.55814 1.191c-.06559.0326-.14758.0163-.19678-.0327-.04919-.0489-.06559-.1305-.04919-.1957l2.77131-7.5703.0328-.0163c.0164-.0163.0492-.0163.0819 0l5.3295 1.9415.0164.0327c.0164.0163.0164.0489 0 .0816l-2.7549 7.5375c-.0164.0327-.082.0816-.164.0816zm-1.1806-2.6757 1.1806 2.4963s0 .0163.0164.0163.0164-.0163.0164-.0163l2.7385-7.4724-5.1818-1.8762-2.73853 7.4723v.0163h.0164l2.55813-1.191c.1475-.0652.3279-.0979.4919-.0979.3772.049.7216.2774.902.6526z" fill="#fff"/><path d="m16.1428 23.4742c.4619 0 .8363-.3726.8363-.8322 0-.4595-.3744-.832-.8363-.832-.4618 0-.8363.3725-.8363.832 0 .4596.3745.8322.8363.8322z" fill="#f59db6" opacity=".25"/><path clip-rule="evenodd" d="m17.5695 1.62817.7707.4405c.4428.26105.9347.39157 1.4267.39157h.8855c1.0166 0 1.9677.5384 2.4761 1.41941l.4427.76682c.246.42419.6068.78312 1.0495 1.04416l.7707.44051c.8855.50577 1.4266 1.43573 1.4266 2.4636v.881c0 .50575.1312.99526.3772 1.41946l.4428.7668c.5083.881.5083 1.9578 0 2.8388l-.4428.7668c-.246.4242-.3772.9136-.3772 1.4194v.881c0 1.0116-.5411 1.9579-1.4266 2.4636l-.7707.4405c-.4263.2448-.7871.6037-1.0495 1.0442l-.4427.7668c-.5084.881-1.4431 1.4194-2.4761 1.4194h-.8855c-.5084 0-1.0003.1305-1.4267.3753l-.7707.4405c-.8855.5057-1.9678.5057-2.8533 0l-.7707-.4405c-.4264-.2448-.9183-.3753-1.4266-.3753h-.8855c-1.0167 0-1.96782-.5384-2.47616-1.4194l-.44276-.7668c-.24597-.4242-.60673-.7831-1.04948-1.0442l-.77071-.4405c-.88551-.5057-1.42664-1.4357-1.42664-2.4636v-.881c0-.5058-.13119-.9952-.37716-1.4194l-.44275-.7668c-.50835-.881-.50835-1.9578 0-2.8388l.44275-.7668c.24597-.4242.37716-.91371.37716-1.41946v-.881c0-1.01156.54113-1.95783 1.42664-2.4636l.77071-.44051c.42635-.24473.78711-.60366 1.04948-1.04416l.44276-.76682c.50834-.88101 1.44296-1.41941 2.47616-1.41941h.8855c.5083 0 1.0002-.13052 1.4266-.37525l.7707-.44051c.8855-.52208 1.9678-.52208 2.8533-.01631z" fill="#fff" fill-rule="evenodd"/><g fill="#5e58a5"><path d="m16.1429 25.1708c-.5412 0-1.0823-.1305-1.5579-.4078l-.7707-.4405c-.3936-.2285-.8363-.3427-1.2954-.3427h-.8855c-1.1152 0-2.14821-.5873-2.70575-1.5499l-.44275-.7668c-.22957-.3916-.55754-.7179-.95109-.9462l-.77072-.4406c-.96749-.5547-1.55782-1.5826-1.55782-2.692v-.881c0-.4568-.11479-.8973-.34436-1.2889l-.44276-.7668c-.55753-.9626-.55753-2.1536 0-3.0999l.44276-.7668c.22957-.3915.34436-.83204.34436-1.28891v-.881c0-1.10943.59033-2.13727 1.55782-2.69198l.77072-.44051c.39355-.24472.72152-.57103.95109-.96259l.44275-.76681c.55754-.9626 1.59055-1.54994 2.70575-1.54994h.8855c.4591 0 .9018-.1142 1.2954-.34262l.7707-.4405c.9675-.554719 2.1645-.554719 3.1157 0l.7707.4405c.3935.22842.8363.34262 1.2955.34262h.8855c1.115 0 2.1481.58734 2.7056 1.54994l.4428.76681c.2296.39156.5576.71787.9511.94628l.7707.4405c.9675.55472 1.5578 1.58255 1.5578 2.69199v.881c0 .45687.1148.89742.3444 1.28892l.4427.7668c.5576.9626.5576 2.1536 0 3.0999l-.4427.7668c-.2296.3916-.3444.8321-.3444 1.2889v.881c0 1.1094-.5903 2.1373-1.5578 2.692l-.7707.4405c-.3935.2284-.7215.5547-.9511.9463l-.4428.7668c-.5575.9626-1.5906 1.5499-2.7056 1.5499h-.8855c-.4592 0-.902.1142-1.2955.3427l-.7707.4405c-.4756.2936-1.0167.4241-1.5578.4241zm-4.5095-22.44955c-.9183 0-1.77106.48945-2.2466 1.28889l-.44275.76681c-.27877.47314-.67233.8647-1.14787 1.14206l-.77071.44051c-.80352.45682-1.29547 1.30522-1.29547 2.23516v.881c0 .53842-.14758 1.07682-.40995 1.54992l-.44275.7668c-.45915.7995-.45915 1.7784 0 2.5778l.44275.7668c.27877.4732.40995 1.0116.40995 1.55v.881c0 .9137.49195 1.762 1.29547 2.2352l.77071.4405c.47554.2773.8691.6689 1.14787 1.142l.44275.7668c.45915.7995 1.3119 1.289 2.2466 1.289h.8855c.5411 0 1.0822.1468 1.5578.4078l.7707.4405c.8035.4569 1.7874.4569 2.5909 0l.7707-.4405c.4755-.2773 1.0167-.4078 1.5579-.4078h.8855c.9183 0 1.771-.4895 2.2465-1.289l.4428-.7668c.2787-.4731.6723-.8647 1.1478-1.142l.7707-.4405c.8035-.4568 1.2955-1.3052 1.2955-2.2352v-.881c0-.5384.1476-1.0768.41-1.55l.4427-.7668c.4591-.7994.4591-1.7783 0-2.5778l-.4427-.7668c-.2788-.4731-.41-1.0115-.41-1.54992v-.881c0-.91363-.492-1.76202-1.2955-2.23516l-.7707-.44051c-.4755-.27736-.8691-.66892-1.1478-1.14206l-.4428-.76681c-.4592-.79944-1.3119-1.28889-2.2465-1.28889h-.8855c-.5412 0-1.0824-.14684-1.5579-.40788l-.7707-.44051c-.8035-.45682-1.7874-.45682-2.5909 0l-.7707.44051c-.4756.27735-1.0167.40788-1.5578.40788z"/><path d="m11.3546 11.613c-.1148-.212-.2624-.3915-.4756-.4894-.1967-.1142-.4427-.1631-.7215-.1631h-1.08224c-.24598 0-.44275.1957-.44275.4405v.2447 3.9972c0 .0489.0164.0816.03279.1142.0164.0326.04919.0489.09839.0489h.29517c.0328 0 .06559-.0163.09839-.0489.01639-.0326.03279-.0653.03279-.1142v-1.5989c0-.0816.0656-.1305.13119-.1305h.85267c.2788 0 .5084-.049.7216-.1631.2132-.1142.3607-.2774.4755-.4895s.164-.4895.164-.8157c-.0164-.3263-.082-.6037-.1804-.8322zm-.6068 1.4847c-.1311.1469-.3443.2285-.6231.2285h-.81987c-.08199 0-.14758-.0653-.14758-.1469v-1.5173c0-.0816.06559-.1468.14758-.1468h.81987c.2788 0 .492.0815.6231.2284.1312.1631.1969.3753.1969.6689.0163.3263-.0492.5384-.1969.6852z"/><path d="m9.04244 15.8061h-.29516c-.0492 0-.08199-.0164-.09839-.049s-.0328-.0652-.0328-.1142v-4.2419c0-.2448.19678-.4569.45915-.4569h1.09866c.2788 0 .5247.049.7215.1632s.3608.2774.4756.5058c.1148.2121.1639.4894.1639.8157s-.0491.6037-.1639.8158-.2788.3915-.4756.4895c-.1968.1141-.4427.1631-.7215.1631h-.85269c-.06559 0-.13118.0489-.13118.1305v1.5989c0 .049-.0164.0816-.0328.1142-.0328.0489-.06559.0653-.11479.0653zm.0328-4.8293c-.24597 0-.44275.1958-.44275.4405v4.2419c0 .049.0164.0816.0328.1142.01639.0327.04919.049.08199.049h.29516c.0328 0 .0656-.0163.09839-.049.0164-.0326.0328-.0652.0328-.1142v-1.6152c0-.0816.06559-.1468.14758-.1468h.85269c.2788 0 .5084-.049.7052-.1631.1967-.1143.3607-.2774.4591-.4895.1148-.2121.164-.4895.164-.8158s-.0492-.6036-.164-.8157-.2624-.3753-.4591-.4895c-.1968-.1142-.4428-.1632-.7052-.1632h-1.09866zm1.06586 2.3657h-.81989c-.08199 0-.14758-.0653-.14758-.1469v-1.5173c0-.0816.06559-.1468.14758-.1468h.81989c.2788 0 .492.0816.6232.2447.1311.1632.1967.3753.1967.6689 0 .2937-.0656.5221-.2131.669-.1312.1468-.3444.2284-.6068.2284zm-.81989-1.7947c-.06559 0-.13118.0653-.13118.1305v1.5173c0 .0653.06559.1306.13118.1306h.81989c.2624 0 .4756-.0816.6068-.2285.1312-.1468.1967-.3752.1967-.6526 0-.2773-.0655-.5057-.1967-.6525-.1312-.1469-.3444-.2285-.6232-.2285h-.80349z"/><path d="m16.6512 15.8061c-.0328 0-.0492-.0164-.082-.049-.0164-.0326-.0328-.0652-.0328-.0979 0-.0163 0-.0489 0-.0816l1.3774-4.4703c.0164-.0489.0328-.0816.0656-.1142.0328-.0327.0656-.049.1148-.049h.3772c.0492 0 .0983.0163.1148.049.0327.0326.0492.0653.0655.1142l1.3775 4.4703c0 .0327.0164.049.0164.0816 0 .0327-.0164.0653-.0328.0979s-.0492.049-.082.049h-.2787c-.0492 0-.082-.0164-.0984-.049-.0165-.0326-.0328-.0489-.0493-.0815l-.2623-.8648c-.0328-.0652-.082-.1142-.164-.1142h-1.5906c-.0656 0-.1312.049-.1476.1142l-.2788.8811c0 .0163-.0163.0489-.0328.0815-.0164.0327-.0492.049-.0984.049h-.2787zm.9675-1.6968h1.3282c.0492 0 .0656-.0489.0656-.0816l-.6723-2.1699c-.0164-.0652-.0984-.0652-.1148 0l-.6723 2.1699c0 .0327.0328.0816.0656.0816z"/><path d="m19.9308 15.8061h-.2788c-.0492 0-.082-.0164-.0984-.049s-.0328-.0489-.0492-.0815l-.2788-.8811c-.0163-.0653-.082-.0979-.1475-.0979h-1.5906c-.0657 0-.1149.049-.1477.0979l-.2787.8811c0 .0163-.0164.0489-.0328.0815s-.0656.049-.1148.049h-.2788c-.0327 0-.0656-.0164-.082-.049s-.0327-.0652-.0327-.0979c0-.0163 0-.0489 0-.0816l1.3938-4.4703c.0164-.0489.0328-.0816.0656-.1142.0328-.0327.0656-.049.1312-.049h.3771c.0492 0 .0984.0163.1312.049.0328.0326.0492.0653.0656.1142l1.3775 4.4703c0 .0327.0163.049.0163.0816 0 .0327-.0163.0816-.0327.0979-.0493.0326-.082.049-.1148.049zm-2.4433-1.1095h1.5906c.0655 0 .1312.049.1639.1142l.2788.8811c0 .0163.0164.0489.0328.0652.0164.0326.0492.0326.082.0326h.2788c.0327 0 .0492-.0163.0656-.0326.0163-.0326.0328-.0489.0328-.0979 0-.0163 0-.0489-.0165-.0816l-1.3446-4.4703c-.0164-.0489-.0328-.0816-.0656-.1142-.0164-.0327-.0656-.0327-.1148-.0327h-.3772c-.0491 0-.0819.0164-.1147.0327-.0328.0326-.0492.0653-.0656.1142l-1.3775 4.4703v.0653c0 .0327.0164.0653.0328.0979s.0492.0326.0656.0326h.2788c.0492 0 .0656-.0163.0984-.0326.0164-.0326.0328-.0489.0328-.0652l.2788-.8811c.0328-.0489.0983-.0979.164-.0979zm1.4594-.5873h-1.3283c-.0164 0-.0492-.0163-.0656-.0326s-.0164-.049-.0164-.0653l.6724-2.1699c.0163-.0326.0328-.0489.0655-.0489.0328 0 .0656.0163.0656.0489l.6724 2.1699c0 .0163 0 .049-.0164.0653-.0165.0163-.0165.0326-.0492.0326zm-.6559-2.3004c-.0165 0-.0492.0163-.0492.0326l-.6724 2.1699c0 .0163 0 .0326.0164.049.0164.0163.0328.0163.0492.0163h1.3283c.0163 0 .0328 0 .0492-.0163.0163-.0164.0163-.0327.0163-.049l-.6723-2.1699c-.0327-.0163-.0492-.0326-.0655-.0326z"/><path d="m13.8144 15.6429-1.2135-2.0557c-.1148-.1958-.1148-.4405 0-.62l1.197-1.9252c.1149-.1958.41-.1958.5248 0l1.1971 1.9415c.1148.1958.1148.4242.0164.62l-1.1807 2.0557c-.1148.1795-.4099.1795-.5411-.0163z"/><path d="m14.0931 15.806c-.1148 0-.2132-.0653-.2788-.1631l-1.2134-2.0557c-.1148-.1958-.1148-.4406 0-.6363l1.197-1.9252c.0657-.0979.164-.1468.2788-.1468s.2132.0489.2788.1468l1.1971 1.9415c.1147.1957.1147.4242.0163.62l-1.1806 2.0557c-.082.0978-.1804.1631-.2952.1631zm-.2623-.1794c.0491.0978.1475.1468.2623.1468s.2132-.0653.2624-.1468l1.1806-2.0557c.1148-.1958.0985-.4243-.0163-.6037l-1.1971-1.9415c-.0492-.0979-.1476-.1468-.2624-.1468s-.1967.0489-.2624.1468l-1.197 1.9252c-.1148.1957-.1148.4242 0 .62z"/></g><path d="m13.9946 14.827-.8691-1.4847c-.0164-.0326-.0164-.0652 0-.0978l.8691-1.4031c.0328-.0653.1312-.0653.164 0l.8691 1.4031c.0164.0326.0164.0652 0 .0978l-.8527 1.4847c-.0492.0653-.1312.0653-.1804 0z" fill="#fff"/><path d="m23.9156 11.613c-.1148-.212-.2624-.3915-.4756-.4894-.1968-.1142-.4428-.1631-.7215-.1631h-1.0987c-.2459 0-.4427.1957-.4427.4405v.2447 3.9972c0 .0489.0164.0816.0328.1142s.0492.0489.0984.0489h.2951c.0329 0 .0656-.0163.0984-.0489.0165-.0326.0328-.0653.0328-.1142v-1.5989c0-.0816.0656-.1305.1312-.1305h.8527c.2787 0 .5084-.049.7215-.1631.1968-.1142.3608-.2774.4756-.4895s.164-.4895.164-.8157c0-.3263-.0492-.6037-.164-.8322zm-.5904 1.4847c-.1311.1469-.3443.2285-.6231.2285h-.8199c-.082 0-.1476-.0653-.1476-.1469v-1.5173c0-.0816.0656-.1468.1476-.1468h.8199c.2788 0 .492.0815.6231.2284.1312.1631.1968.3753.1968.6689 0 .3263-.0656.5384-.1968.6852z" fill="#5e58a5"/><path d="m21.6199 15.8061h-.2952c-.0492 0-.082-.0164-.0984-.049s-.0328-.0652-.0328-.1142v-4.2419c0-.2448.1968-.4569.4592-.4569h1.0987c.2787 0 .5246.049.7215.1632.1967.1142.3607.2774.4755.5058.1148.2121.164.4894.164.8157s-.0492.6037-.164.8158-.2788.3915-.4755.4895c-.1969.1141-.4428.1631-.7215.1631h-.8528c-.0656 0-.1312.0489-.1312.1305v1.5989c0 .049-.0164.0816-.0327.1142-.0493.0489-.082.0653-.1148.0653zm.0163-4.8293c-.2459 0-.4427.1958-.4427.4405v4.2419c0 .049.0164.0816.0328.1142.0164.0327.0492.049.082.049h.2952c.0327 0 .0655-.0163.0984-.049.0163-.0326.0328-.0652.0328-.1142v-1.6152c0-.0816.0655-.1468.1475-.1468h.8527c.2788 0 .5084-.049.7051-.1631.1969-.1143.3608-.2774.4592-.4895.1148-.2121.164-.4895.164-.8158s-.0492-.6036-.164-.8157-.2623-.3753-.4592-.4895c-.1967-.1142-.4427-.1632-.7051-.1632h-1.0987zm1.0659 2.3657h-.8199c-.082 0-.1475-.0653-.1475-.1469v-1.5173c0-.0816.0655-.1468.1475-.1468h.8199c.2788 0 .492.0816.6232.2447.1312.1632.1967.3753.1967.6689 0 .2937-.0655.5221-.2131.669-.1148.1468-.328.2284-.6068.2284zm-.8199-1.7947c-.0656 0-.1312.0653-.1312.1305v1.5173c0 .0653.0656.1306.1312.1306h.8199c.2624 0 .4756-.0816.6068-.2285.1311-.1468.1968-.3752.1968-.6526 0-.2773-.0657-.5057-.1968-.6525-.1312-.1469-.3444-.2285-.6232-.2285h-.8035z" fill="#5e58a5"/></svg>