<svg fill="#000" height="32" viewBox="0 0 32 32" width="32" xmlns="http://www.w3.org/2000/svg"><path clip-rule="evenodd" d="m19.6565 9.82679-9.69054 9.67751c-.125-.2421-.23773-.4944-.33884-.756-.33841-.8794-.50762-1.8123-.50762-2.7975 0-.9862.16921-1.9188.50762-2.798.33884-.8797.80808-1.6429 1.40818-2.2907.6-.6473 1.3212-1.15931 2.1629-1.53638.8422-.37668 1.7662-.56522 2.7724-.56522 1.0067 0 1.9358.19323 2.787.58009.3164.14355.616.30549.8989.4862zm-.8551 12.80641c-.8421.3771-1.7662.5652-2.7724.5652-1.0067 0-1.9357-.1932-2.7873-.5797-.3161-.1439-.6158-.3058-.8981-.487l9.6901-9.6767c.1249.2417.2378.4936.3388.7556.3384.8794.5077 1.8123.5077 2.798s-.1693 1.9183-.5077 2.798c-.3388.8792-.8081 1.6424-1.4082 2.2898-.6.6474-1.3208 1.1597-2.1629 1.5368zm1.4662 3.0006c1.2968-.5606 2.4194-1.319 3.3677-2.2762.9483-.9564 1.6835-2.0727 2.2061-3.3482.5228-1.2756.7841-2.6286.7841-4.0586 0-1.4305-.2613-2.7836-.7841-4.0595-.3099-.7564-.6914-1.4551-1.1442-2.09618l6.3028-6.29407-2.5045-2.50105-6.322 6.31324c-.5676-.38646-1.1837-.7205-1.848-1.00253-1.2969-.55074-2.7289-.8265-4.2965-.8265-1.568 0-3 .28045-4.2969.84098-1.2969.56052-2.41951 1.31897-3.36781 2.27573-.9483.95677-1.68391 2.07318-2.20642 3.34868-.5225 1.2756-.7838 2.6285-.7838 4.059 0 1.43.2613 2.7827.7838 4.0587.31024.7569.69172 1.4554 1.14455 2.0969l-6.30242 6.2933 2.5045 2.5011 6.32159-6.3129c.56751.3865 1.18371.7205 1.84801 1.0025 1.297.5508 2.729.8262 4.2965.8262 1.5679 0 3-.2805 4.297-.8406z" fill-rule="evenodd"/></svg>