<svg fill="none" height="32" viewBox="0 0 32 32" width="32" xmlns="http://www.w3.org/2000/svg"><g fill="currentColor"><path d="m16.0337 19.8398c-.2972 0-7.35014-.0616-12.74524-5.4587-.11423-.1133-.22542-.2285-.3346-.3437-1.13017-1.1908-1.66594-2.6081-1.55272-4.09712.10109-1.31417.70762-2.58689 1.70334-3.58561.99572-.99878 2.27247-1.60328 3.58558-1.70334 1.37583-.10111 2.691.34573 3.82424 1.30606.1223-1.47995.7329-2.72939 1.7801-3.62707.9998-.85824 2.3251-1.33032 3.7403-1.33032 1.4153 0 2.7405.47208 3.7403 1.33032 1.0462.89868 1.6578 2.14712 1.7801 3.62707 1.1332-.96033 2.4484-1.41528 3.8242-1.30606 1.3142.10106 2.5869.70762 3.5846 1.70334.9978.99572 1.6043 2.27244 1.7033 3.58561.1143 1.48902-.4225 2.90632-1.5516 4.09912-.1093.1152-.2204.2305-.3346.3437-5.3962 5.3951-12.4491 5.4567-12.7473 5.4567zm-8.95342-14.08358c-1.22316 0-2.37153.56911-3.18832 1.38489-1.46781 1.46884-2.13498 4.01419-.1294 6.13409.10244.1085.2069.216.31338.3224 5.07262 5.0716 11.89106 5.1303 11.95876 5.1303.0678 0 6.9003-.0708 11.9598-5.1303.1071-.1071.2116-.2146.3133-.3224 2.0057-2.1229 1.3384-4.66525-.1293-6.13409-1.4678-1.46883-4.0143-2.136-6.1371-.12939-.1085.10178-.216.20623-.3225.31339-.0819.08189-.1617.16578-.2406.24967l-1.0543 1.11805.0414-1.53455c0-.11722.0071-.2335.0071-.35178 0-.15161 0-.30322-.0061-.44983-.0808-2.91639-2.3523-4.24571-4.4297-4.24571s-4.3468 1.32832-4.4286 4.24571c0 .14861-.0062.30328-.0062.44983 0 .11528 0 .2285.0062.34272l.0414 1.54361-1.0554-1.112c-.0798-.08488-.1607-.16983-.2436-.25372-.1072-.10716-.2147-.21161-.3225-.31339-.94516-.89661-1.97122-1.2575-2.94772-1.2575z"/><path d="m15.321 13.9504h-.8087c0-1.204-1.1726-2.1846-2.6121-2.1846s-2.61211.9806-2.61211 2.1846h-.80872c0-1.6508 1.53453-2.9932 3.42083-2.9932s3.4208 1.3424 3.4208 2.9932z"/><path d="m23.5437 13.9171h-.8087c0-1.204-1.1716-2.1835-2.6121-2.1835s-2.6121.9795-2.6121 2.1835h-.8087c0-1.6498 1.5345-2.9923 3.4208-2.9923s3.4208 1.3425 3.4208 2.9923z"/><path d="m12.8314 13.9675c.6426 0 1.1636-.5209 1.1636-1.1635s-.521-1.1635-1.1636-1.1635-1.1635.5209-1.1635 1.1635.5209 1.1635 1.1635 1.1635z"/><path d="m20.9993 13.9675c.6425 0 1.1635-.5209 1.1635-1.1635s-.521-1.1635-1.1635-1.1635c-.6427 0-1.1636.5209-1.1636 1.1635s.5209 1.1635 1.1636 1.1635z"/><path d="m16.0308 16.9233c-.9532 0-1.8368-.4902-2.2492-1.2484l.7076-.3862c.274.5055.8775.8259 1.5396.8259s1.2666-.3245 1.5395-.8259l.7076.3862c-.4083.7582-1.2888 1.2484-2.2451 1.2484z"/><path d="m30.5239 28.1332c-2.0265.9489-4.3107 1.1978-6.494.7076-1.8071-.4006-3.4661-1.2987-4.7895-2.5928.8378.3472 1.7365.5238 2.6434.5196 1.5681.0003 3.0975-.4873 4.3761-1.3951l-.6489-.9037c-1.7498 1.2595-4.1568 1.5628-6.0562.7046-1.8742-.8441-2.9316-2.6506-2.9993-5.0999v-.7895h-1.112v.1395.6439c-.0647 2.4524-1.1241 4.2609-3.0003 5.106-1.8994.8562-4.31042.557-6.0562-.7076l-.64797.9037c1.2778.9082 2.80641 1.3964 4.37407 1.397.907.0045 1.8057-.1722 2.6435-.5195-1.3231 1.294-2.98177 2.1922-4.7886 2.5928-2.18323.4903-4.46747.2414-6.4939-.7076l-.4741 1.0059c1.48819.6985 3.11224 1.0599 4.75621 1.0584.82601.0002 1.64951-.0909 2.45545-.272 2.47304-.549 4.68214-1.9312 6.25734-3.9151l.0071-.0091c.3696-.4849.6941-1.0026.9695-1.5467v5.7226h1.1119v-5.7145c.2749.5414.5984 1.0567.9664 1.5396l.0071.0091c1.575 1.9836 3.7838 3.3658 6.2563 3.9152.806.181 1.6295.2722 2.4555.2719 1.6443.0015 3.2686-.3599 4.7572-1.0584z"/></g></svg>