<svg fill="#000" height="32" viewBox="0 0 32 32" width="32" xmlns="http://www.w3.org/2000/svg"><path clip-rule="evenodd" d="m13.7946 4.21359c-5.25902 1.00202-9.30782 5.41728-9.75376 10.85311h5.84264c.26512-3.9211 1.62512-7.67976 3.91112-10.85311zm2.2721-2.21359c-7.76884 0-14.0667 6.29786-14.0667 14.0667 0 7.7677 6.29608 14.0648 14.0634 14.0666h.0033c7.7688 0 14.0666-6.2978 14.0666-14.0666 0-7.76884-6.2978-14.0667-14.0666-14.0667zm2.272 2.21359c2.286 3.17335 3.6461 6.93201 3.9111 10.85311h5.8427c-.4459-5.43584-4.4948-9.85109-9.7538-10.85311zm1.9061 10.85311c-.2882-3.8552-1.7466-7.53069-4.1781-10.53394-2.4316 3.00325-3.89 6.67874-4.1782 10.53394zm-8.3563 2h8.3563c-.2882 3.8551-1.7466 7.5306-4.1781 10.5339-2.4316-3.0033-3.89-6.6788-4.1782-10.5339zm-2.00502 0h-5.84263c.44593 5.4358 4.49473 9.851 9.75375 10.853-2.286-3.1733-3.646-6.932-3.91112-10.853zm8.45522 10.853c2.286-3.1733 3.6461-6.932 3.9111-10.853h5.8427c-.4459 5.4358-4.4948 9.851-9.7538 10.853z" fill-rule="evenodd"/></svg>