<svg fill="#000" height="32" viewBox="0 0 32 32" width="32" xmlns="http://www.w3.org/2000/svg"><path d="m27.0173 2c-1.0371 0-1.9999.53768-2.5431 1.42157l-5.8529 8.68953c-.1906.2864-.1133.6725.1731.8632.2322.1547.5393.1356.7507-.0463l5.7611-4.99695c.0957-.08614.2433-.07736.3295.01836.039.04389.0598.10053.0598.15873v15.64496c0 .1292-.1045.2329-.2337.2329-.0695 0-.1349-.0303-.1787-.0838l-17.41506-20.84599c-.56718-.66932-1.4-1.05541-2.27671-1.05621h-.60862c-1.64732 0-2.98271 1.33539-2.98271 2.98271v22.03459c0 1.6473 1.33539 2.9827 2.98271 2.9827 1.03699 0 1.99984-.5377 2.54309-1.4216l5.8529-8.6895c.1906-.2864.1133-.6725-.1731-.8631-.2322-.1548-.5393-.1357-.7507.0462l-5.76111 4.997c-.09572.0861-.24331.0773-.32945-.0184-.03908-.0439-.05984-.1005-.05904-.1587v-15.64892c0-.12923.1045-.23297.23373-.23297.06862 0 .13484.03035.17869.08378l17.41268 20.85001c.5671.6693 1.4 1.0554 2.2767 1.0562h.6086c1.6473.0008 2.9835-1.3338 2.9851-2.9811v-22.03619c0-1.64732-1.3354-2.98271-2.9827-2.98271z" /></svg>