<svg fill="#000" height="32" viewBox="0 0 32 32" width="32" xmlns="http://www.w3.org/2000/svg"><path d="m28.1091 29.0636h-24.1091v-1.8352c.76953-.0231 1.39945-.0924 1.88977-.21 1.01414-.2603 1.67976-.8472 1.86562-1.7836.09453-.5145.17734-1.178.17734-1.9948v-15.60953c-.12101-1.65344-.14765-3.36656-1.86765-3.74492-.41992-.11547-1.24617-.19735-1.94649-.24453v-1.64102h13.33021v1.64094c-.7937.02312-1.8362.09344-2.3265.21-1.831.48281-1.6504 2.56789-1.641 4.02414v14.32232c-.0683 2.6487.6845 4.0438 3.2158 4.5008 1.8215-.0158 3.4436.0315 5.074-.2635 1.6872-.3465 3.095-1.4762 3.7795-2.8609.3738-.7696.8242-2.5796.8242-3.5171h1.7375z" /></svg>