<svg height="32" viewBox="0 0 32 32" fill="none" >
<g clip-path="url(#clip0_0_1417)">
<rect width="32" height="32" fill="black"/>
<path d="M63.3462 27.6923H74.7693V39.1154H63.3462V27.6923Z" fill="#D543ED"/>
<path d="M86.1924 50.5384H74.7693V61.9615L63.3462 61.9615V107.654H51.9231V164.769H63.3462V187.615H74.7693V199.038H86.1924V210.462H154.731V199.038H166.154L166.154 187.615H177.577V176.192H189V119.077H177.577V96.2308H166.154L166.154 73.3846H154.731V61.9615L166.154 61.9615V50.5384H154.731V61.9615H143.308V50.5384H131.885V39.1154H109.038V27.6923H97.6154V50.5384H109.038V61.9615H97.6154V84.8077L86.1924 84.8077V73.3846H74.7693V61.9615H86.1924V50.5384Z" fill="#D543ED"/>
<path d="M120.462 61.9615H131.885V73.3846H143.308V84.8077H154.731V107.654L166.154 107.654V130.5H177.577V176.192H166.154L166.154 187.615H154.731V199.038H97.6154V187.615H74.7693V164.769H63.3462V119.077H74.7693V96.2307H109.038V84.8077L120.462 84.8077V61.9615Z" fill="#9250FF"/>
<path d="M86.1924 73.3846H74.7693V84.8077H86.1924V73.3846Z" fill="#9250FF"/>
<path d="M120.462 84.8077H131.885V96.2308H120.462V84.8077Z" fill="#9787FC"/>
<path d="M154.731 141.923V119.077H143.308V96.2308L131.885 96.2308V107.654L109.038 107.654V119.077H97.6154L97.6155 107.654H86.1924V130.5H74.7693V187.615H97.6154V199.038H154.731V176.192H166.154V141.923H154.731Z" fill="#9787FC"/>
<path d="M131.885 107.654H120.462V119.077H131.885V107.654Z" fill="white"/>
<path fill-rule="evenodd" clip-rule="evenodd" d="M97.6154 130.5V141.923H86.1924V187.615H97.6154V199.038H143.308V187.615H154.731V141.923H143.308V130.5H97.6154ZM97.6154 153.346H109.038V176.192H97.6154V153.346ZM143.308 176.192V153.346L131.885 153.346V176.192H143.308Z" fill="white"/>
</g>
<defs>
<clipPath id="clip0_0_1417">
<rect width="32" height="32" fill="white"/>
</clipPath>
</defs>
</svg>
