<svg fill="#000" height="32" viewBox="0 0 32 32" width="32" xmlns="http://www.w3.org/2000/svg"><path d="m20.66 24.5067c.0095-.0039.018-.0099.0249-.0175.007-.0076.0121-.0167.0151-.0265l.924-2.956 4.256-6.3867c.0014-.0017.0027-.0035.004-.0053.0005-.0009.0009-.0018.0013-.0027.0005-.0009.0009-.0018.0014-.0027.001-.0021.0018-.0044.0026-.0066.0001-.0014.0001-.0027 0-.004.001-.0013.0018-.0027.0027-.004.0001-.0018.0001-.0036 0-.0054.0001-.0022.0001-.0044 0-.0066 0-.0014 0-.0027 0-.004 0-.0014 0-.0027 0-.004l-.5547-9.26136c-.0003-.00224-.0008-.0058-.0013-.008 0-.00089 0-.00178 0-.00266-.001-.00366-.0024-.00723-.004-.01067-.0008-.00227-.0017-.00449-.0027-.00667-.0008-.00181-.0017-.00359-.0026-.00533-.0012-.0023-.0026-.00452-.004-.00667-.0013-.00139-.0027-.00272-.004-.004l-5.5614-5.7453309-.0013-.0026666c-.0017-.0014181-.0035-.002753-.0053-.004-.0013-.0009349-.0027-.0018243-.004-.0026667-.0013-.0009348-.0027-.0018243-.004-.0026667-.0009-.0004635-.0018-.000908-.0027-.0013333-.0009-.0004635-.0018-.00090804-.0027-.00133332-.0009-.00046351-.0017-.00090805-.0026-.00133333.0004-.00000428-.0005-.00000428 0 0 0-.00044444-.0014-.0008889-.0014-.00133334-.0009-.00001709-.0018-.00001709-.0026 0-.0009-.0004635-.0018-.00090805-.0027-.00133333.0004-.00000427-.0005-.00000427 0 0-.0022-.00100344-.0057-.00189352-.008-.00266667-.0018-.0000684-.0036-.0000684-.0053 0-.0009-.00001709-.0018-.00001709-.0027 0-.0005-.00000427-.0009-.00000427-.0013 0-.0005-.00000427-.0009-.00000427-.0014 0-.0013-.00003847-.0026-.00003847-.004 0-.0004-.00000427-.0009-.00000427-.0013 0 .0004-.00000427-.0005-.00000427 0 0h-7.4107c-.0013-.00003847-.0026-.00003847-.004 0-.0018-.0000684-.0035-.0000684-.0053 0-.0018-.0000684-.0036-.0000684-.0053 0-.0014.00040379-.0027.00084844-.004.00133334-.0014.00040379-.0027.00084844-.004.00133333-.0023.00077315-.0045.00166323-.0067.00266667-.0019.00124704-.0036.00258195-.0053.00399995-.0019.000812-.0036.0017018-.0054.0026667.0005-.0000043-.0004-.0000043 0 0-.0014.0017126-.0041.0034925-.0053.0053333.0004-.0000042-.0005-.0000042 0 0-.0014.0012784-.0041.0026129-.0053.004l-5.56004 5.7466709c-.00142.00171-.00276.00349-.004.00533-.00308.00371-.00576.00773-.008.012-.00101.00217-.0019.0044-.00267.00667-.00117.00347-.00206.00704-.00267.01066-.00001.00089-.00001.00178 0 .00267-.00048.00132-.00093.00265-.00133.004-.00004.00133-.00004.00267 0 .004l-.556 9.26669c0-.0005 0 .0004 0 0v.0026c-.00007.0018-.00007.0036 0 .0054-.00007.0018-.00007.0035 0 .0053-.00002.0009-.00002.0018 0 .0027-.00011.0022-.00011.0044 0 .0066-.00044 0 .00044 0 0 0-.00004.0014.0013.0027.00133.004.00043.0009.00087.0018.00134.0027.00042.0009.00087.0018.00133.0027.00043.0009.00087.0018.00133.0026.00044.0005.00089.0009.00134.0014.00084.0013.00173.0027.00266.004.00041.0013.00085.0027.00134.004l4.25864 6.3866.9227 2.952v.0027c0-.0004 0 .0005 0 0 .0004.0009.0009.0031.0013.004.0009.0014.0018.0027.0027.004 0-.0004 0 .0005 0 0 .0004.0009.0009.0031.0013.004 0-.0004 0 .0005 0 0 .0009.0005.0018.0022.0027.0027.0004.0013.0008.0027.0013.004.0005.0004.0009.0009.0014.0013.0004.0005.0008.0009.0013.0013.0009.001.0017.0018.0027.0027.0012.0018.0025.0036.004.0053.0008.0005.0017.001.0026.0014.0009.0009.0018.0018.0027.0026h.0013c.0013.0014.0026.0028.004.004h.0014c.0008.0005.0017.0009.0026.0014.0009.0009.0018.0018.0027.0026h.0013c-.0004 0 .0005 0 0 0 .0005.0005.0022.0009.0027.0014h.0027c.0004.0004.0008.0009.0013.0013-.0005 0 .0004 0 0 0 .0013.0005.004.0009.0053.0013.0009.0001.0018.0001.0027 0 0-.0004 0 .0005 0 0 .0013.0001.0027.0014.004.0014h.0027c.0013.0005.0026.0009.004.0013-.0005 0 .0004 0 0 0h.004 9.2693c.0091 0 .0182-.0018.0267-.0053zm-.0773-.1334h-8.7294l9.6014-2.7933zm.824-2.924-9.9134 2.8827 3.604-7.5693zm.0906-.1066-6.3106-4.688 6.852-5.4987zm.1467-.116.5333-10.0534 3.5574 3.9147zm-10.2653 3.0266-.8614-2.7586 4.308-4.48zm-.9294-2.888-4.12531-6.1866 8.60801 1.524zm15.2934-6.476-3.54-3.8933 3.008-4.95599zm-10.632 1.648-2.7107-9.49196 9.5827 3.97736zm-.136.032-8.67604-1.536 5.96534-7.95329zm7.0453-5.68-9.6-3.98662 7.244-6.700004zm.1267-.0693-2.32-10.527991 5.3533 5.532001zm-15.88804 4.0333.53733-8.95729 5.37331 1.07467zm5.96404-8.01329-5.35204-1.07067 5.35204-5.529331zm.1386-.07467v-6.627998h7.168zm-.996 17.80936v5.524l2.228-1.8707zm.076 5.6426 2.04.816 2.4107.964-2.2267-3.6493zm4.6667 1.78 4.4507-1.78-2.2267-1.8693zm4.5253-1.8986v-5.524l-2.2266 3.6533zm-9.144-5.588 4.5107 7.396 4.5093-7.396z" /></svg>