<svg fill="none" height="32" viewBox="0 0 32 32" width="32" xmlns="http://www.w3.org/2000/svg"><path d="m26.2266 6.49181c-.0082-.01584-.0218-.02825-.0382-.035-1.9062-.87457-3.9178-1.49821-5.9843-1.8553-.0188-.0035-.0382-.00098-.0555.00719-.0172.00817-.0315.02157-.0407.03831-.2739.49714-.5226 1.00779-.745 1.53-2.2277-.33816-4.4936-.33816-6.7213 0-.2239-.52354-.4765-1.03431-.7567-1.53-.0097-.01637-.024-.02947-.0411-.03758-.0172-.00812-.0364-.01088-.0551-.00792-2.06686.35634-4.07853.98002-5.98445 1.85535-.01631.00691-.03008.01872-.0394.0338-3.81145 5.69194-4.855546 11.24384-4.34335 16.72704.00144.0134.00557.0265.01214.0383.00658.0118.01545.0221.02611.0305 2.21938 1.6432 4.70177 2.8976 7.34125 3.7094.01859.0056.03844.0053.05688-.0007.01844-.0061.03459-.0176.04627-.0331.56691-.7714 1.06923-1.5882 1.50185-2.4421.0059-.0117.0093-.0246.01-.0377.0006-.0131-.0016-.0262-.0064-.0384-.0048-.0123-.0122-.0233-.0216-.0325s-.0206-.0163-.0329-.0208c-.79217-.3031-1.55903-.6684-2.29345-1.0926-.01334-.0079-.02454-.0189-.03262-.0321s-.01278-.0282-.0137-.0436c-.00091-.0155.00199-.0309.00846-.045.00646-.014.01629-.0263.02861-.0356.1541-.1155.3083-.2356.45545-.3569.01308-.0108.0289-.0177.04568-.0199.01679-.0023.03387.0002.04932.0071 4.81145 2.1959 10.02055 2.1959 14.77505 0 .0154-.0074.0327-.0102.0497-.0081.0171.002.0332.0089.0465.0198.1472.1213.3013.2425.4566.358.0123.0092.0223.0214.0288.0354.0066.014.0096.0294.0088.0449-.0008.0154-.0054.0304-.0134.0437-.0079.0132-.0191.0243-.0323.0323-.7328.4277-1.5004.7929-2.2945 1.0915-.0124.0046-.0236.0119-.0329.0212-.0094.0093-.0166.0205-.0214.0328-.0047.0124-.0067.0255-.006.0387s.0042.0261.0103.0378c.4398.8492.9414 1.665 1.5007 2.4408.0113.0159.0274.0278.0459.0341s.0385.0066.0572.0009c2.6442-.8091 5.131-2.0636 7.3531-3.7093.0108-.0079.0198-.0181.0264-.0297.0066-.0117.0107-.0246.0119-.0379.6132-6.3392-1.0266-11.8456-4.3467-16.72709zm-15.102 13.38719c-1.44865 0-2.64225-1.3293-2.64225-2.9619s1.17045-2.9621 2.64225-2.9621c1.4832 0 2.6653 1.341 2.6421 2.962 0 1.6327-1.1705 2.962-2.6421 2.962zm9.769 0c-1.4486 0-2.6422-1.3293-2.6422-2.9619s1.1705-2.9621 2.6422-2.9621c1.4833 0 2.6653 1.341 2.6422 2.962 0 1.6327-1.1589 2.962-2.6422 2.962z" fill="#fff"/></svg>