<svg width="32" height="32" viewBox="0 0 32 32" fill="#fff" xmlns="http://www.w3.org/2000/svg"><path fill-rule="evenodd" clip-rule="evenodd" d="M15.6129 1C9.19928 1 4 6.19928 4 12.6129V29.2353C4 30.2099 4.79009 31 5.76471 31H25.461C26.4358 31 27.2258 30.2099 27.2258 29.2353V12.6129C27.2258 6.19928 22.0266 1 15.6129 1ZM15.615 3C10.3048 3 6 7.49564 6 13.0413V27.4142C6 28.2569 6.65416 28.94 7.46111 28.94H23.7688C24.5759 28.94 25.23 28.2569 25.23 27.4142V13.0413C25.23 7.49564 20.9252 3 15.615 3Z"/></svg>