<svg fill="#fff" height="32" viewBox="0 0 32 32" width="32" xmlns="http://www.w3.org/2000/svg"><path clip-rule="evenodd" d="m16 2c-7.73382 0-14 6.27073-14 13.9975 0 7.3448 5.66646 13.3735 12.8644 13.952v.0505h1.1356c7.7338 0 14-6.2707 14-13.9975 0-7.72613-6.2656-14.0025-14-14.0025zm3.0936 25.3169c-.8783.2396-1.7978.3796-2.7454.4072h-.3482c-1.5802 0-3.0877-.313-4.464-.8803 1.3325-4.8011 4.9447-8.2401 9.0793-9.7768.7135 3.458.1955 7.1635-1.5217 10.2499zm.8921-12.4369c-4.7188 1.6997-8.84 5.5281-10.49597 10.8713-3.14578-2.104-5.21852-5.6885-5.21852-9.7538 0-1.4417.26039-2.8228.73676-4.0989 1.4199.7075 2.9382 1.2079 4.49957 1.4862 1.98896.3647 4.02676.3526 6.00996-.005 1.1289-.2038 2.2309-.5284 3.2876-.961.4703.7819.8659 1.6059 1.1806 2.4612zm2.8187 1.562c.6819 3.1475.4751 6.483-.6132 9.5218 3.2288-2.0107 5.4086-5.5467 5.5321-9.5976-1.6051-.291-3.2781-.2554-4.9189.0758zm4.761-2.4006c-1.7774-.2497-3.6053-.1685-5.3908.2129-.3517-.9866-.7956-1.937-1.3244-2.8394 1.467-.8473 2.8066-1.91361 3.9582-3.15702 1.4085 1.60142 2.3875 3.58952 2.757 5.78352zm-17.65659-2.8917c-1.35639-.2414-2.67386-.6768-3.90333-1.29123 1.0574-1.717 2.54503-3.14117 4.31282-4.12196l.0136.0043.0005.00015v.00001c.1927.06062.3766.11849.5536.18205.0653.02494.1293.04919.1918.07289l.001.00038v.00001c.2872.10886.5435.20606.7577.30536l.0611.03055.0146.00677c.1352.06289.3301.15578.5057.23951.0933.04454.1812.08645.2519.11988l.0026.00144c.0591.03172.1087.05836.1549.08593.0377.02441.0713.04418.0893.05473.0329.01929.0668.03837.0947.0539l.0648.03579.0088.00485.0187.01033.0024.00135.0936.0536c.0772.04405.1748.09975.282.16249.0756.04427.1463.08649.2039.12223.043.02666.0663.04212.0751.04798l.0005.00032c.0036.00243.0045.00299.003.00186l.0498.03774.0553.03285c.0844.05007.1675.10759.2712.17937l.0005.00031c.0473.03277.099.06852.157.10789l.0394.02673.0335.0189.0049.00338.0001.00004c.009.0061.0309.02084.0689.04808.0587.042.1295.09471.2075.15334l.0923.06956c.0475.03583.0956.07215.1366.10277.054.04047.1202.0896.1799.13099.8715.6665 1.6681 1.42754 2.3772 2.26638-.7545.2761-1.5322.4886-2.324.6316-1.7261.3112-3.4892.3196-5.19944.0057l-.00297-.0005zm6.09119-6.8789c2.6921 0 5.1722.90797 7.1515 2.43387-1.0377 1.12277-2.253 2.07897-3.5837 2.82728-.9148-1.16279-1.9732-2.20969-3.1533-3.10859l-.0285-.0217-.0296-.01973-.008-.00561-.0255-.01827c-.0218-.01583-.0488-.03581-.0811-.06006-.0367-.02742-.0735-.05517-.1129-.08496l-.0084-.00635-.1033-.07778c-.0804-.06047-.1686-.12624-.2496-.1843-.0566-.04057-.138-.09797-.2211-.14858l-.0527-.03647-.0003-.00019c-.1081-.07488-.2703-.18723-.4179-.27785-.1378-.09663-.3241-.20672-.4462-.2782-.118-.06911-.2451-.14164-.3241-.18674l-.0002-.00009-.0001-.00007-.0007-.00037-.0598-.03422c-.0145-.00849-.0272-.01553-.0324-.01845l-.0003-.00018-.0007-.00039-.0307-.01696-.0104-.00572-.0536-.02962c-.021-.01168-.0379-.02131-.0503-.02852l-.0085-.00597-.0302-.01842c-.1091-.06664-.2227-.12751-.2844-.16055l-.0013-.00071-.0215-.01151-.0264-.0142-.0271-.01279c-.0542-.02559-.1343-.06376-.2253-.10712.8236-.18326 1.6798-.27991 2.5586-.27991z" fill-rule="evenodd"/></svg>