<svg fill="none" height="32" viewBox="0 0 32 32" width="32" xmlns="http://www.w3.org/2000/svg"><g stroke="currentColor" stroke-linecap="round" stroke-linejoin="round" stroke-width="1.5"><path d="m9.5 20c5 2.5 8 2.5 13 0"/><path d="m19.5 21.5 1 2s4.1713-1.3283 5.5-3.5c0-1 .5301-8.1466-3-10.5-1.5-1-4-1.5-4-1.5l-1 2h-2"/><path d="m12.5283 21.5-1 2s-4.17131-1.3283-5.49998-3.5c0-1-.53009-8.1466 3-10.5 1.49998-1 3.99998-1.5 3.99998-1.5l1 2h2"/><path d="m12.5 18c-.8284 0-1.5-.8954-1.5-2s.6716-2 1.5-2 1.5.8954 1.5 2-.6716 2-1.5 2z"/><path d="m19.5 18c-.8284 0-1.5-.8954-1.5-2s.6716-2 1.5-2 1.5.8954 1.5 2-.6716 2-1.5 2z"/></g></svg>