<svg fill="#000" height="32" viewBox="0 0 32 32" width="32" xmlns="http://www.w3.org/2000/svg"><path clip-rule="evenodd" d="m7.80614 6.62658c-.62258-.6006-.62258-1.59788 0-2.19846.59172-.57083 1.52911-.57083 2.12083 0l3.29983 3.18327c.0937.09045.1734.18989.2389.29562h4.9904c.0656-.10573.1453-.20517.2389-.29562l3.2998-3.18327c.5917-.57083 1.5291-.57083 2.1208 0 .6227.60058.6227 1.59786 0 2.19846l-1.3272 1.28043h.9894c3.4364 0 6.2222 2.78579 6.2222 6.22219v8.5642c0 3.4364-2.7858 6.2222-6.2222 6.2222h-15.55558c-3.43644 0-6.22222-2.7858-6.22222-6.2222v-8.5642c0-3.4364 2.78578-6.22219 6.22222-6.22219h.91123zm.41608 4.28162c-1.71822 0-3.11111 1.3929-3.11111 3.1111v8.7839c0 1.7183 1.39289 3.1111 3.11111 3.1111h15.55558c1.7182 0 3.1111-1.3928 3.1111-3.1111v-8.7839c0-1.7182-1.3929-3.1111-3.1111-3.1111zm1.55556 6.0574c0-.8591.69642-1.5555 1.55552-1.5555s1.5556.6964 1.5556 1.5555v1.3907c0 .8592-.6965 1.5556-1.5556 1.5556s-1.55552-.6964-1.55552-1.5556zm10.88892-1.5555c-.8592 0-1.5556.6964-1.5556 1.5555v1.3907c0 .8592.6964 1.5556 1.5556 1.5556.8591 0 1.5555-.6964 1.5555-1.5556v-1.3907c0-.8591-.6964-1.5555-1.5555-1.5555z" fill-rule="evenodd"/></svg>