<svg fill="#000" height="32" viewBox="0 0 32 32" width="32" xmlns="http://www.w3.org/2000/svg"><path clip-rule="evenodd" d="m5.68868 8.64918c-2.90611 3.75442-5.7357408 8.96342-4.30603 13.81382 1.47787 5.0091 4.72746 7.8229 10.23135 8.2122 1.4047.0993 2.9135.0578 4.308-.1347 1.2937-.1788 2.3383-.5757 3.4397-.9943.4799-.1824.9707-.3689 1.4975-.5432 1.5167-.5023 3.1-.964 4.6312-1.2988.9363-.2046 2.1558-.7323 1.7813-1.9107-.108-.3398-.3524-.6457-.5949-.9491-.2006-.2511-.3999-.5006-.5194-.7661-.2597-.5774-.3474-.9599-.0774-1.5482.2269-.4951.7419-.8183 1.2061-1.061.7541-.3934 1.6015-.6626 2.4355-.8285.5617-.1344 1.1802-.4648 1.268-1.0942.1181-.8503-.7904-1.197-1.5566-1.4893-.2618-.0999-.507-.1935-.6889-.2987-.8534-.4932-1.7346-1.1081-1.6886-2.1285.0648-1.4289 2.5493-2.6968 2.5493-2.6968.088-.0632.1892-.1279.296-.1962.4871-.3115 1.0892-.6966 1.0772-1.337-.0133-.7208-.8382-1.0997-1.4368-1.2624-.3988-.109-.8079-.19376-1.2177-.2488-.0358-.0064-.0734-.01298-.1125-.01984-.7273-.1274-1.9927-.34906-1.9083-1.21968.0455-.47045.3999-.82103.6923-1.1103.0649-.06423.1268-.12543.1816-.18425.0443-.04776.09-.09608.1363-.14505.5157-.54553 1.1064-1.17051.7982-1.97686-.2524-.66094-1.1058-.65125-1.6874-.59981-1.1373.09926-2.2496.49266-3.31.89631-.0774.0295-.1562.06148-.2362.09391-.5432.22039-1.137.46125-1.6715.08401-.8007-.56523-.3583-1.50636-.0278-2.1824.144-.29475.2493-.6476.1101-.94476-.9992-2.12738-5.7521 2.21877-6.6217 3.07579-.3632.35767-1.0665.65428-1.5064.3861-.4444-.27013-.3429-.74536-.2453-1.20224.0286-.13367.0568-.26577.0709-.3907.0575-.51385-.0502-1.12512-.5647-1.40716-.7116-.39041-1.6689.41926-2.2359.89876-.0483.04084-.0937.07928-.136.11439-.53093.44149-1.01893.93019-1.50658 1.41854-.0993.09944-.19858.19886-.29821.29787-.96467.95875-1.72407 1.80301-2.55573 2.87785zm-.65285 8.44422c-1.24976.1399-1.94842 1.4944-2.10396 2.8002-.28289 2.3831.26453 4.6081 1.75003 6.2378 1.0875 1.1935 2.56199 2.1867 4.03712 2.578 3.33478.8859 6.35468.4053 8.31288-1.5905 1.6845-1.7174 2.1236-3.7022 1.8242-6.0518-.3791-2.9735-3.171-2.4117-5.2961-1.9841-.3227.065-.6299.1268-.9111.1727-1.3061.2138-2.0158.1567-3.24655-.3621-.39856-.1679-.79088-.4292-1.20037-.7019-.89284-.5945-1.86732-1.2434-3.16615-1.0983z" fill-rule="evenodd"/><path d="m7.17237 21.7989c0 .312-.09419.5923-.24396.7935-.14978.2011-.35243.3202-.57146.3202s-.42168-.1191-.57143-.3202c-.14976-.2012-.24402-.4815-.24402-.7935 0-.3121.09426-.5924.24402-.7935.14975-.2011.3524-.3202.57143-.3202s.42168.1191.57146.3202c.14977.2011.24396.4814.24396.7935z"/><path d="m13.47 22.6877c0 .3753-.1132.7128-.2939.9554-.1806.2424-.4259.3872-.6921.3872-.2661 0-.5114-.1448-.692-.3872-.1807-.2426-.294-.5801-.294-.9554 0-.3751.1133-.7127.294-.9552.1806-.2425.4259-.3872.692-.3872.2662 0 .5115.1447.6921.3872.1807.2425.2939.5801.2939.9552z"/><path d="m8.28383 23.7202c0 .3112-.24597.5612-.54663.5612-.30055 0-.54653-.25-.54653-.5612 0-.3113.24598-.5613.54653-.5613.30066 0 .54663.25.54663.5613z"/><path d="m8.09935 25.1103c-.08494-.0345-.12605-.1314-.09147-.2166.03438-.0851.13138-.1259.21591-.0915.02725.011.32458.1251.69219.0959.37111-.0295.8119-.2054 1.11552-.7702.0434-.0807.1442-.111.2251-.0675.0807.0433.1111.144.0677.2249-.3984.7407-1.0167.952-1.53769.952-.27131 0-.51567-.0573-.68726-.127z"/></svg>