<svg fill="#000" height="32" viewBox="0 0 32 32" width="32" xmlns="http://www.w3.org/2000/svg"><path d="m30.2951 22.5241c.4699-1.1013.7049-2.2686.7049-3.5021v-15.022h-5.9912v15.022c0 .4111-.0808.8003-.2424 1.1673-.1615.3526-.3817.6682-.6607.9473-.2644.2642-.58.4772-.9472.6387-.3671.1468-.7561.2202-1.1673.2202s-.8003-.0734-1.1675-.2202c-.3524-.1615-.6682-.3745-.9471-.6387-.2643-.2791-.4772-.5947-.6388-.9473-.1615-.367-.2422-.7562-.2422-1.1673v-15.022h-5.9912v15.022c0 .4111-.0808.8003-.2423 1.1673-.1469.3526-.3598.6682-.6388.9473-.279.2642-.602.4772-.9691.6387-.3671.1468-.7563.2202-1.16743.2202-.41116 0-.80029-.0734-1.1674-.2202-.35242-.1615-.66815-.3745-.94714-.6387-.26432-.2791-.47723-.5947-.63877-.9473-.14684-.367-.22025-.7562-.22025-1.1673v-15.022h-6.01321v15.022c0 1.2335.23495 2.4008.70484 3.5021.4699 1.0867 1.10867 2.0339 1.91629 2.8414.82233.8077 1.7768 1.4465 2.86345 1.9164 1.08663.4699 2.25402.7048 3.50219.7048 1.13063 0 2.20263-.1908 3.21583-.5727 1.0279-.3963 1.953-.9691 2.7753-1.7179.8371.7488 1.7695 1.3216 2.7974 1.7179 1.0279.3819 2.0998.5727 3.2159.5727 1.2481 0 2.4154-.2349 3.5021-.7048 1.1013-.4699 2.0558-1.1087 2.8635-1.9164.8223-.8075 1.4684-1.7547 1.9383-2.8414z" /></svg>