<svg width="32" height="32" viewBox="0 0 32 32" fill="none" xmlns="http://www.w3.org/2000/svg">
<path d="M15.9056 21.8976C21.1024 21.8976 25.3544 17.6457 25.3544 12.4488C25.3544 10.2756 24.693 8.38583 23.4646 6.77953C24.5985 5.92913 25.3544 4.51181 25.3544 3H15.9056C10.7087 3 6.45676 7.25197 6.45676 12.4488C6.45676 17.6457 10.7087 21.8976 15.9056 21.8976ZM15.9056 7.34646C18.7402 7.34646 21.0079 9.61417 21.0079 12.4488C21.0079 15.2835 18.7402 17.5512 15.9056 17.5512C13.0709 17.5512 10.8032 15.2835 10.8032 12.4488C10.8032 9.61417 13.0709 7.34646 15.9056 7.34646Z" fill="currentColor"/>
<path d="M28 24.4489C27.4331 23.0316 26.2992 21.9922 24.7874 21.5197C22.3307 23.8819 19.1181 25.1103 16 25.1103C12.7874 25.1103 9.66929 23.8819 7.2126 21.5197C5.70079 21.9922 4.56693 23.0316 4 24.4489C7.2126 27.756 11.5591 29.4568 15.9055 29.4568C20.252 29.4568 24.5984 27.756 28 24.4489Z" fill="currentColor"/>
</svg>
