<svg fill="#000" height="32" viewBox="0 0 32 32" width="32" xmlns="http://www.w3.org/2000/svg"><path d="m30.2065 18.1668v4.0653c-.2005.1792-.4494.1679-.6913.168-6.2349.0032-12.47.0046-18.705-.001-.83667-.0008-.99167-.1621-.99307-1.0231-.00629-3.5256-.00601-7.0511-.00014-10.5768.0014-.88065.15486-1.03383 1.03541-1.03481 4.7415-.00531 9.4827-.00182 14.224-.00252.9977-.00014.9987-.00083.9985-1.00465-.0002-.65998-.0054-1.32011.001-1.97981.0035-.37192-.1491-.54691-.5259-.53084-.1904.00797-.382-.00112-.5731-.00112-7.2943-.00014-14.5888.00028-21.88302-.00042-1.08213-.00014-1.09444-.00195-1.07859-1.06685.01572-1.05594-.06909-2.1137.04701-3.16813 9.2424 0 18.4848.0027 27.7271-.01005.357-.00043.4288.06975.4274.42699-.0166 3.85676-.0103 7.71361-.0103 11.57041-.2685.2235-.5926.1658-.8994.166-4.6686.0037-9.3369.0023-14.0053.0027-1.0832.0001-1.0838.0008-1.0835 1.0831.0001.7115-.0094 1.4231.0038 2.1345.0097.5276.0774.5891.611.6102.3296.013.6594.0044.9893.0044 4.4948.0002 8.9897-.0013 13.4847.0026.3068.0002.6309-.0577.8994.1659z"/><path d="m30.2167 29.991c-9.2124 0-18.4245-.0028-27.63675.009-.42727.0005-.5815-.0568-.57994-.542.02087-6.3079.01803-12.6158.00412-18.9235-.00085-.4041.09935-.5153.50803-.5023.99152.0313 1.98541.0292 2.9772.0017.45299-.0125.59192.1248.59052.5846-.01622 5.0325-.00699 10.065-.01747 15.0975-.0007.3355.04416.4687.43621.4682 7.85398-.013 15.70798-.0099 23.56198-.0104.052 0 .1041-.0057.1562-.0088-.0001 1.2751-.0001 2.5507-.0001 3.826z"/></svg>