<svg fill="none" height="32" viewBox="0 0 32 32" width="32" xmlns="http://www.w3.org/2000/svg"><path clip-rule="evenodd" d="m6.06637 2.03495c-.05553.03528-.07757.53028-.08933 2.00886l-.01578 1.96212-2.45636.01548c-1.60036.01012-2.45637.03647-2.45637.07563 0 .10569.41699 1.89795.474 2.03744.03022.07384.14024.50214.24445.95188.22107.95444.19978.92824.77294.95114.31009.0124.44214.0402.43797.0921-.00327.041-.00997 3.6256-.01488 7.966l-.00894 7.8913-.16375.0657c-.65459.2626-.75061.4168-.78902 1.2669l-.02977.6598-.1919.062c-.58342.1885-.801964.5735-.77785 1.3701l.01697.5651 4.74898-.0006c2.61194-.0004 4.84277-.0009 4.95737-.0012l.2084-.0006v-.6282c0-.8468-.1585-1.1276-.7223-1.2794-.1267-.0341-.23147-.0945-.23251-.1341-.03216-1.0759-.0463-1.2208-.13577-1.3924-.11538-.2211-.39495-.4365-.56675-.4365-.30399 0-.29447.1627-.26946-4.6253.02471-4.7461.03275-4.887.33139-5.7659.8481-2.4957 2.9396-4.2564 5.6185-4.7299.9242-.1633 2.5768-.0075 3.1964.3016.0569.0283.1455.0515.197.0515.1521 0 1.0337.4432 1.518.763 1.2456.8228 2.4159 2.3737 2.7945 3.7031.042.1474.1116.3886.1548.536.1739.5926.2043 1.402.2044 5.4601l.0002 4.1204-.1324.0926c-.0728.0511-.1707.0928-.2176.0928-.395 0-.6624.5024-.6624 1.2447v.5958l-.2821.1247c-.591.2614-.7302.5165-.7302 1.3378 0 .5006.0124.5678.1042.5684 2.4049.0166 9.8038-.0079 9.8438-.0326.0308-.0191.0555-.2677.0548-.5524-.002-.79-.229-1.1748-.7805-1.3234l-.2305-.0621-.001-.608c-.0014-.8572-.2201-1.1939-.8891-1.3688l-.1222-.0321v-7.9851-7.985l.4317-.0009c.6122-.0013.5566.0959 1.0024-1.75574.0946-.39302.2279-.91555.2961-1.16119.2054-.73914.2414-.90945.2097-.99192-.0241-.06298-.5121-.08173-2.4589-.09424l-2.4287-.01548-.0297-1.99487-.0298-1.99487-9.9148-.01414c-5.4531-.00774-9.94784.00714-9.98833.0329z" fill="#000" fill-rule="evenodd"/></svg>