<svg fill="none" height="256" viewBox="0 0 256 256" width="256" xmlns="http://www.w3.org/2000/svg"><path d="m0 0h256v256h-256z" fill="#fff"/><path d="m237.023 72.7012c-2.617-9.8542-10.328-17.615-20.119-20.2487-17.745-4.7859-88.904-4.7859-88.904-4.7859s-71.1585 0-88.9047 4.7859c-9.7905 2.6341-17.5013 10.3945-20.1184 20.2487-4.755 17.8613-4.755 55.1268-4.755 55.1268s0 37.266 4.755 55.127c2.6171 9.855 10.3279 17.292 20.1184 19.926 17.7462 4.786 88.9047 4.786 88.9047 4.786s71.158 0 88.904-4.786c9.791-2.634 17.502-10.071 20.119-19.926 4.755-17.861 4.755-55.127 4.755-55.127s0-37.2655-4.755-55.1268zm-132.296 88.9618v-67.6693l59.475 33.8353z" fill="currentColor"/></svg>