<svg fill="none" height="256" viewBox="0 0 256 256" width="256" xmlns="http://www.w3.org/2000/svg"><path d="m0 0h256v256h-256z" fill="#fff"/><path d="m223.331 83.5302c.152 1.9543.152 3.9089.152 5.8631 0 59.6067-49.492 128.2867-139.9497 128.2867-27.8683 0-53.7565-7.399-75.5333-20.241 3.9595.419 7.7663.558 11.8782.558 22.9946 0 44.1625-7.119 61.0661-19.263-21.6244-.419-39.7464-13.402-45.9901-31.27 3.0459.419 6.0914.698 9.2897.698 4.4161 0 8.8327-.558 12.9441-1.535-22.5381-4.188-39.4422-22.335-39.4422-44.252v-.558c6.548 3.351 14.1629 5.444 22.2334 5.723-13.2488-8.0963-21.9287-21.9159-21.9287-37.5505 0-8.3755 2.4361-16.0531 6.7003-22.7537 24.2134 27.3604 60.6097 45.2281 101.4212 47.1827-.761-3.3503-1.218-6.8397-1.218-10.3297 0-24.8479 21.929-45.0888 49.188-45.0888 14.162 0 26.954 5.4441 35.939 14.2386 11.117-1.9543 21.777-5.7235 31.219-10.8883-3.656 10.4697-11.422 19.2642-21.625 24.8475 9.899-.9767 19.493-3.4899 28.325-6.9794-6.699 8.9336-15.076 16.8902-24.669 23.3118z" fill="currentColor"/></svg>