<svg fill="none" height="256" viewBox="0 0 256 256" width="256" xmlns="http://www.w3.org/2000/svg"><path d="m0 0h256v256h-256z" fill="#fff"/><path d="m72.7689 228h-41.4653v-133.5298h41.4653zm-20.755-151.7445c-13.2592 0-24.0139-10.9823-24.0139-24.2416 0-6.3689 2.53-12.4769 7.0335-16.9804s10.6115-7.0335 16.9804-7.0335 12.477 2.53 16.9804 7.0335c4.5035 4.5035 7.0336 10.6115 7.0336 16.9804 0 13.2593-10.7592 24.2416-24.014 24.2416zm175.9461 151.7445h-41.376v-65.001c0-15.492-.313-35.358-21.559-35.358-21.558 0-24.862 16.83-24.862 34.241v66.118h-41.4203v-133.5298h39.7683v18.2148h.581c5.536-10.491 19.058-21.5631 39.233-21.5631 41.965 0 49.679 27.6341 49.679 63.5281v73.35z" fill="currentColor"/></svg>