<svg width="23" height="20" viewBox="0 0 23 20" fill="none" xmlns="http://www.w3.org/2000/svg">
<path d="M1.32215 11.4203L1.39989 11.2981L6.08879 3.96294C6.15732 3.85551 6.31842 3.86665 6.37029 3.98328C7.1536 5.73887 7.82956 7.9222 7.51289 9.28145C7.3777 9.84069 7.00732 10.5981 6.59063 11.2981C6.53696 11.4 6.47768 11.5 6.41471 11.5963C6.38511 11.6407 6.33508 11.6667 6.28137 11.6667H1.45917C1.32952 11.6667 1.25361 11.5259 1.32215 11.4203Z" fill="black"/>
<path d="M22.2222 12.7833V13.9444C22.2222 14.0111 22.1815 14.0704 22.1222 14.0963C21.7593 14.2519 20.5167 14.8222 20 15.5407C18.6815 17.3759 17.6741 20 15.4222 20H6.02776C2.69815 20 0 17.2926 0 13.9519V13.8444C0 13.7555 0.0722185 13.6833 0.161099 13.6833H5.39814C5.50184 13.6833 5.57779 13.7796 5.56853 13.8815C5.53148 14.2222 5.59445 14.5704 5.75555 14.887C6.06665 15.5185 6.71113 15.913 7.40739 15.913H10V13.8889H7.43704C7.30554 13.8889 7.22779 13.737 7.30369 13.6296C7.33149 13.587 7.36297 13.5426 7.3963 13.4926C7.63887 13.1482 7.98518 12.613 8.32961 12.0037C8.56481 11.5926 8.7926 11.1537 8.97593 10.713C9.01298 10.6333 9.04258 10.5519 9.07222 10.4722C9.12221 10.3315 9.17408 10.2 9.21109 10.0685C9.24814 9.95742 9.27778 9.84074 9.30742 9.73147C9.39446 9.35741 9.43147 8.96111 9.43147 8.54999C9.43147 8.38889 9.42406 8.22038 9.40924 8.05924C9.40187 7.88332 9.37964 7.7074 9.35741 7.53148C9.34259 7.37591 9.31483 7.22222 9.28519 7.06112C9.24814 6.82592 9.19631 6.59261 9.13703 6.35741L9.11668 6.26853C9.07222 6.10743 9.03517 5.9537 8.98334 5.7926C8.83702 5.28703 8.66851 4.79444 8.49075 4.33333C8.42594 4.15 8.35184 3.97408 8.27778 3.79817C8.16851 3.53333 8.0574 3.2926 7.95554 3.06481C7.90371 2.96111 7.85925 2.86666 7.81483 2.77037C7.7648 2.6611 7.71297 2.55187 7.6611 2.44813C7.62409 2.3685 7.58147 2.29444 7.55183 2.22038L7.2352 1.63518C7.19074 1.55556 7.2648 1.46111 7.35184 1.48518L9.33333 2.02223H9.3389C9.34259 2.02223 9.34443 2.02407 9.34631 2.02407L9.60739 2.09629L9.89446 2.17776L10 2.2074V1.02964C10 0.461107 10.4555 0 11.0185 0C11.3 0 11.5556 0.114796 11.7389 0.30185C11.9222 0.488905 12.0371 0.744453 12.0371 1.02964V2.77778L12.2481 2.83702C12.2648 2.84259 12.2815 2.85 12.2963 2.86109C12.3482 2.89998 12.4222 2.95742 12.5167 3.02776C12.5907 3.08704 12.6704 3.15926 12.7667 3.23332C12.9574 3.38705 13.1852 3.5852 13.4352 3.81295C13.5018 3.87038 13.5667 3.92962 13.6259 3.9889C13.9481 4.28887 14.3093 4.64075 14.6537 5.02964C14.75 5.13887 14.8444 5.24998 14.9407 5.36666C15.0371 5.48518 15.1389 5.60186 15.2278 5.71854C15.3444 5.87407 15.4704 6.03517 15.5796 6.20372C15.6315 6.28335 15.6907 6.36482 15.7407 6.44444C15.8815 6.65741 16.0056 6.87779 16.1241 7.09813C16.1741 7.19999 16.2259 7.3111 16.2704 7.42037C16.4018 7.71481 16.5056 8.01482 16.5722 8.31483C16.5926 8.37964 16.6074 8.45001 16.6148 8.51298V8.52776C16.637 8.61668 16.6444 8.71113 16.6518 8.80742C16.6815 9.1148 16.6667 9.42221 16.6 9.73147C16.5722 9.86297 16.5352 9.98702 16.4907 10.1185C16.4463 10.2445 16.4018 10.3759 16.3444 10.5C16.2333 10.7574 16.1019 11.0148 15.9463 11.2555C15.8963 11.3444 15.837 11.4389 15.7778 11.5278C15.713 11.6222 15.6463 11.7111 15.587 11.7982C15.5056 11.9093 15.4185 12.0259 15.3296 12.1296C15.25 12.2389 15.1685 12.3482 15.0796 12.4444C14.9555 12.5907 14.837 12.7296 14.713 12.863C14.6389 12.95 14.5592 13.0389 14.4778 13.1185C14.3981 13.2074 14.3167 13.287 14.2426 13.3611C14.1185 13.4852 14.0148 13.5815 13.9278 13.6611L13.7241 13.8482C13.6944 13.8741 13.6555 13.8889 13.6148 13.8889H12.0371V15.913H14.0222C14.4667 15.913 14.8889 15.7555 15.2296 15.4667C15.3463 15.3648 15.8556 14.9241 16.4574 14.2593C16.4778 14.237 16.5037 14.2204 16.5333 14.213L22.0167 12.6278C22.1185 12.5981 22.2222 12.6759 22.2222 12.7833Z" fill="black"/>
</svg>
