<svg fill="none" height="256" viewBox="0 0 256 256" width="256" xmlns="http://www.w3.org/2000/svg"><path d="m0 0h256v256h-256z" fill="#fff"/><g fill="currentColor"><path clip-rule="evenodd" d="m191.57 188-12.684-11.7c9.342-9.173 14.484-21.267 14.484-34.046.012-7.777-1.913-15.434-5.601-22.274-2.598-4.798-5.973-9.131-9.986-12.82l-6.617-6.12 7.096-6.3731 6.046 6.1001 5.78-5.6668c13.5 12.4868 20.942 29.2338 20.942 47.1538 0 17.173-6.91 33.419-19.46 45.746z" fill-rule="evenodd" stroke="#0fce7c" stroke-width=".149573"/><path d="m191.158 228.933h-61.191c-47.5236 0-86.1979-39.3-86.1979-87.6 0-48.3063 38.6677-87.5996 86.2119-87.5996 19.732 0 38.455 6.6933 53.656 19.02l-42.003 39.4396c-3.694-1.535-7.654-2.326-11.653-2.326-17.075 0-30.9609 14.12-30.9609 31.466 0 17.347 13.8859 31.467 30.9609 31.467 2.964-.002 5.911-.438 8.75-1.293l52.434 40.106v17.32zm-61.191-75.2c-6.723 0-12.198-5.566-12.198-12.4 0-6.84 5.475-12.4 12.205-12.4 6.724 0 12.198 5.56 12.198 12.4 0 6.834-5.474 12.4-12.198 12.4zm30.968-12.4c0-6.173-1.767-11.933-4.804-16.8l25.048-23.526.213.226 29.638-28.3796-6.83-6.94c-19.825-20.1533-46.188-31.2467-74.226-31.2467-57.8818 0-104.974 47.8533-104.974 106.6663 0 58.234 46.1753 105.694 103.267 106.62v.047h81.654v-45.9l-55.045-42.1c3.946-5.417 6.069-11.956 6.059-18.667z"/><path clip-rule="evenodd" d="m130.039 153.257c6.825 0 12.358-5.532 12.358-12.357s-5.533-12.358-12.358-12.358-12.357 5.533-12.357 12.358 5.532 12.357 12.357 12.357zm0 18.537c17.063 0 30.895-13.832 30.895-30.894 0-17.063-13.832-30.895-30.895-30.895-17.062 0-30.894 13.832-30.894 30.895 0 17.062 13.832 30.894 30.894 30.894z" fill-rule="evenodd"/><path d="m230.96 27.9997-6.644 6.6666-6.644-6.6666 6.644-6.6667z"/><path d="m177.81 27.9997-6.644 6.6666-6.644-6.6666 6.644-6.6667z"/><path d="m98.0824 101.333c-3.6674 0-6.6439-3.3064-6.6439-7.3864v-78.5599c0-4.08 2.9765-7.3867 6.6439-7.3867 3.6676 0 6.6436 3.3067 6.6436 7.3867v78.5599c0 4.08-2.976 7.3864-6.6436 7.3864z"/><path d="m137.216 84.2059c-3.668 0-6.644-2.6999-6.644-6.0311v-64.1436c0-3.3313 2.976-6.0312 6.644-6.0312 3.667 0 6.644 2.6999 6.644 6.0312v64.1436c0 3.3312-2.977 6.0311-6.644 6.0311z"/></g></svg>