<svg fill="none" height="256" viewBox="0 0 256 256" width="256" xmlns="http://www.w3.org/2000/svg"><path d="m0 0h256v256h-256z" fill="#fff"/><path d="m90.2186 146.703c-1.6406 9-8.1562 50.953-10.0781 62.813-.1406.843-.4687 1.171-1.4062 1.171h-34.9688c-3.5625 0-6.1406-3.093-5.6719-6.515l27.4688-174.3283c.7031-4.5 4.7344-7.9218 9.375-7.9218 71.3906 0 77.3906-1.7344 95.6246 5.3437 28.172 10.9219 30.75 37.2656 20.625 65.7656-10.078 29.3438-33.984 41.9528-65.671 42.3278-20.344.328-32.5786-3.281-35.2974 11.344zm115.1724-67.453c-.844-.6094-1.172-.8438-1.407.6094-.937 5.3437-2.39 10.5468-4.125 15.75-18.703 53.3436-70.547 48.7026-95.859 48.7026-2.859 0-4.7345 1.547-5.1095 4.407-10.5937 65.812-12.7031 79.547-12.7031 79.547-.4688 3.328 1.6406 6.046 4.9687 6.046h29.7659c4.031 0 7.359-2.953 8.156-6.984.328-2.531-.516 2.859 6.75-42.797 2.156-10.312 6.703-9.234 13.734-9.234 33.282 0 59.25-13.5 66.985-52.641 3.047-16.312 2.156-33.4685-11.156-43.406z" fill="currentColor"/></svg>