<svg fill="none" height="256" viewBox="0 0 256 256" width="256" xmlns="http://www.w3.org/2000/svg"><path d="m0 0h256v256h-256z" fill="#fff"/><path d="m88.2742 199.419c0 .968-1.1129 1.742-2.5161 1.742-1.5968.145-2.7097-.629-2.7097-1.742 0-.967 1.1129-1.742 2.5161-1.742 1.4516-.145 2.7097.629 2.7097 1.742zm-15.0484-2.177c-.3387.968.629 2.081 2.0807 2.371 1.258.484 2.7096 0 3-.968.2903-.968-.6291-2.08-2.0807-2.516-1.2581-.339-2.6613.145-3 1.113zm21.3871-.823c-1.4032.339-2.371 1.258-2.2258 2.371.1452.968 1.4032 1.597 2.8548 1.258 1.4033-.338 2.371-1.258 2.2258-2.225-.1451-.92-1.4516-1.549-2.8548-1.404zm31.8391-185.419c-67.1133 0-118.452 50.9516-118.452 118.065 0 53.661 33.7742 99.58 82.0161 115.741 6.1936 1.113 8.371-2.709 8.371-5.854 0-3-.1452-19.549-.1452-29.71 0 0-33.8709 7.258-40.9838-14.419 0 0-5.5162-14.081-13.4516-17.71 0 0-11.0807-7.597.7741-7.452 0 0 12.0484.968 18.6775 12.484 10.5967 18.678 28.3548 13.307 35.2742 10.113 1.1129-7.742 4.2577-13.113 7.7417-16.306-27.0482-3-54.3385-6.92-54.3385-53.468 0-13.307 3.6774-19.984 11.4193-28.5001-1.258-3.1452-5.3709-16.1129 1.2581-32.8549 10.1129-3.1451 33.3871 13.0645 33.3871 13.0645 9.677-2.7096 20.081-4.1129 30.387-4.1129 10.307 0 20.71 1.4033 30.387 4.1129 0 0 23.274-16.258 33.387-13.0645 6.629 16.7904 2.516 29.7097 1.258 32.8549 7.742 8.5641 12.484 15.2421 12.484 28.5001 0 46.693-28.5 50.419-55.548 53.468 4.451 3.822 8.226 11.08 8.226 22.451 0 16.307-.146 36.484-.146 40.452 0 3.145 2.226 6.968 8.371 5.855 48.388-16.065 81.194-61.984 81.194-115.645 0-67.1134-54.435-118.065-121.548-118.065zm-71.4197 166.887c-.6291.484-.4839 1.597.3387 2.516.7742.774 1.8871 1.113 2.5161.484.629-.484.4839-1.597-.3387-2.516-.7742-.774-1.8871-1.113-2.5161-.484zm-5.2258-3.919c-.3388.629.1451 1.403 1.1129 1.887.7741.484 1.7419.339 2.0806-.339.3387-.629-.1452-1.403-1.1129-1.887-.9677-.29-1.7419-.145-2.0806.339zm15.6774 17.226c-.7742.629-.4839 2.08.629 3 1.1129 1.112 2.5161 1.258 3.1452.483.629-.629.3387-2.08-.6291-3-1.0645-1.112-2.5161-1.258-3.1451-.483zm-5.5162-7.113c-.7742.484-.7742 1.742 0 2.854.7742 1.113 2.0807 1.597 2.7097 1.113.7742-.629.7742-1.887 0-3-.6774-1.113-1.9355-1.596-2.7097-.967z" fill="currentColor"/></svg>