<svg fill="none" height="256" viewBox="0 0 256 256" width="256" xmlns="http://www.w3.org/2000/svg"><path d="m0 0h256v256h-256z" fill="#fff"/><path d="m214.391 103.391c-7.032 0-13.219 2.906-17.766 7.453-16.734-11.5784-39.281-19.0315-64.265-19.8284l12.984-58.5 41.344 9.2813c0 10.125 8.25 18.375 18.375 18.375 10.312 0 18.609-8.4844 18.609-18.6094s-8.25-18.6094-18.609-18.6094c-7.219 0-13.453 4.3594-16.547 10.3125l-45.656-10.125c-2.297-.6094-4.547 1.0313-5.157 3.3282l-14.25 64.5c-24.7966 1.0312-47.1091 8.4843-63.8904 20.0622-4.5468-4.734-10.9687-7.64-18-7.64-26.0625 0-34.59371 34.968-10.7343 46.922-.8438 3.703-1.2188 7.64-1.2188 11.578 0 39.281 44.25 71.109 98.5785 71.109 54.562 0 98.812-31.828 98.812-71.109 0-3.938-.422-8.063-1.453-11.766 23.391-12 14.766-46.734-11.156-46.734zm-145.7346 49.406c0-10.313 8.25-18.609 18.6094-18.609 10.125 0 18.3752 8.249 18.3752 18.609 0 10.125-8.2502 18.375-18.3752 18.375-10.3125.047-18.6094-8.25-18.6094-18.375zm100.4536 43.828c-17.063 17.063-65.204 17.063-82.2661 0-1.875-1.641-1.875-4.547 0-6.422 1.6406-1.64 4.5469-1.64 6.1875 0 13.0316 13.36 56.2496 13.594 69.8436 0 1.641-1.64 4.547-1.64 6.188 0 1.922 1.875 1.922 4.781.047 6.422zm-.376-25.406c-10.125 0-18.374-8.25-18.374-18.375 0-10.313 8.249-18.61 18.374-18.61 10.313 0 18.61 8.25 18.61 18.61-.047 10.078-8.297 18.375-18.61 18.375z" fill="currentColor"/></svg>