<svg fill="none" height="256" viewBox="0 0 256 256" width="256" xmlns="http://www.w3.org/2000/svg"><path d="m0 0h256v256h-256z" fill="#fff"/><path d="m44.0616 76.613c.2729-2.6835-.7732-5.367-2.7744-7.1863l-20.5128-24.7426v-3.6841h63.7668l49.3038 108.112 43.345-108.112h60.81v3.6841l-17.556 16.8286c-1.501 1.1371-2.274 3.0474-1.956 4.9121v123.7132c-.318 1.865.455 3.775 1.956 4.912l17.147 16.829v3.684h-86.281v-3.684l17.784-17.238c1.728-1.729 1.728-2.274 1.728-4.912v-99.9715l-49.44 125.4865h-6.686l-57.4899-125.4865v84.0975c-.5003 3.548.6823 7.095 3.1838 9.642l23.1052 28.018v3.684h-65.4951v-3.639l23.1052-28.063c2.4561-2.547 3.5932-6.14 2.9564-9.642z" fill="currentColor"/></svg>