<svg fill="none" height="256" viewBox="0 0 256 256" width="256" xmlns="http://www.w3.org/2000/svg"><path d="m0 0h256v256h-256z" fill="#fff"/><path d="m168.5 90.8334c2.667 0 5.25.125 7.833.4583-6.916-32.6667-41.958-56.9583-81.7915-56.9583-44.6667 0-81.125 30.3333-81.125 68.9166 0 22.25 12.2083 40.625 32.4583 54.833l-8.0416 24.417 28.3333-14.208c10.1667 2 18.25 4.041 28.4167 4.041 2.5833 0 5.0416-.125 7.6248-.333-1.666-5.375-2.5832-11.083-2.5832-17-.0416-35.375 30.3752-64.1666 68.8752-64.1666zm-43.542-22.0417c6.042 0 10.084 4.0417 10.084 10.1667 0 6.0416-4.042 10.0833-10.084 10.0833-6.166 0-12.208-4.0417-12.208-10.0833.042-6.125 6.083-10.1667 12.208-10.1667zm-56.8332 20.25c-6.0416 0-12.2083-4.0417-12.2083-10.0833 0-6.1667 6.1667-10.1667 12.2083-10.1667 6.1667 0 10.1667 4.0417 10.1667 10.1667 0 6.0833-4 10.0833-10.1667 10.0833zm174.4582 65.0413c0-32.458-32.458-58.8746-68.916-58.8746-38.625 0-68.917 26.4166-68.917 58.8746 0 32.459 30.333 58.875 68.917 58.875 8.041 0 16.208-2.125 24.416-4.125l22.25 12.209-6.166-20.25c16.333-12.25 28.416-28.459 28.416-46.709zm-91.291-10.208c-4.042 0-8.042-4.042-8.042-8.167 0-4.041 4.042-8.041 8.042-8.041 6.166 0 10.166 4.041 10.166 8.041 0 4.167-4.041 8.167-10.166 8.167zm44.625 0c-4.042 0-8.042-4.042-8.042-8.167 0-4.041 4.042-8.041 8.042-8.041 6.041 0 10.166 4.041 10.166 8.041.042 4.167-4.125 8.167-10.166 8.167z" fill="currentColor"/></svg>