<svg fill="none" height="200" viewBox="0 0 200 200" width="200" xmlns="http://www.w3.org/2000/svg" xmlns:xlink="http://www.w3.org/1999/xlink"><linearGradient id="a" gradientUnits="userSpaceOnUse" x1="27" x2="177" y1="149" y2="149"><stop offset="0" stop-color="#fbf4ec"/><stop offset=".135417" stop-color="#ecd7c8"/><stop offset=".307292" stop-color="#eea4bc"/><stop offset=".427083" stop-color="#be88c4"/><stop offset=".598958" stop-color="#9186e7"/><stop offset=".802083" stop-color="#92c9f9"/><stop offset=".96875" stop-color="#c7f8ff"/></linearGradient><path d="m0 0h200v200h-200z" fill="#131313"/><g fill="url(#a)"><path d="m38.5767 92-10.7244-36.3636h11.0085l4.9716 22.3721h.2841l5.8949-22.3721h8.6647l5.8949 22.4431h.2841l4.9716-22.4431h11.0085l-10.7244 36.3636h-9.446l-6.179-20.3125h-.2841l-6.179 20.3125z"/><path d="m83.0312 92v-36.3636h26.2078v7.9545h-16.3356v6.25h14.9856v7.9546h-14.9856v6.25h16.2646v7.9545z"/><path d="m113.135 92v-36.3636h15.767c2.77 0 5.096.3728 6.978 1.1186 1.894.7457 3.32 1.7992 4.279 3.1605.971 1.3613 1.456 2.9652 1.456 4.8118 0 1.3376-.296 2.5568-.888 3.6576-.58 1.1009-1.397 2.0242-2.45 2.7699-1.054.7339-2.285 1.2429-3.693 1.527v.3551c1.562.0592 2.983.4558 4.261 1.1897 1.278.722 2.296 1.7223 3.054 3.0007.758 1.2665 1.136 2.758 1.136 4.4744 0 1.9886-.521 3.7583-1.562 5.309-1.03 1.5506-2.498 2.7698-4.404 3.6576-1.905.8878-4.178 1.3317-6.818 1.3317zm9.872-7.8835h4.616c1.658 0 2.9-.3078 3.729-.9233.829-.6274 1.243-1.5507 1.243-2.7699 0-.8523-.195-1.5743-.586-2.1662-.391-.5918-.947-1.0417-1.669-1.3494-.71-.3078-1.568-.4617-2.575-.4617h-4.758zm0-13.7784h4.048c.864 0 1.628-.1362 2.291-.4084.663-.2723 1.177-.6629 1.544-1.1719.379-.5208.569-1.1541.569-1.8998 0-1.1246-.403-1.9828-1.208-2.5746-.805-.6037-1.823-.9056-3.054-.9056h-4.19z"/><path d="m160.164 92.4972c-2.794 0-5.274-.4913-7.44-1.4738-2.154-.9943-3.853-2.3615-5.096-4.1015-1.231-1.7401-1.858-3.7405-1.882-6.0014h9.588c.036 1.2547.521 2.2549 1.456 3.0007.947.7457 2.072 1.1186 3.374 1.1186 1.006 0 1.894-.2131 2.663-.6392.77-.438 1.373-1.0535 1.811-1.8466s.651-1.7164.64-2.7699c.011-1.0653-.202-1.9886-.64-2.7699-.438-.7931-1.041-1.4027-1.811-1.8288-.769-.438-1.657-.657-2.663-.657-1.042 0-2.007.2545-2.894.7635-.876.4972-1.521 1.1896-1.936 2.0774l-8.664-1.7045 1.42-20.0284h24.432v7.8835h-16.335l-.711 8.0256h.213c.569-1.1009 1.551-2.0124 2.948-2.7344 1.397-.7339 3.018-1.1009 4.865-1.1009 2.166 0 4.096.5031 5.788 1.5093 1.705 1.0061 3.048 2.397 4.031 4.1725.994 1.7638 1.485 3.7998 1.474 6.108.011 2.5331-.592 4.7822-1.812 6.7472-1.207 1.9531-2.906 3.486-5.095 4.5987-2.19 1.1008-4.765 1.6513-7.724 1.6513z"/><path d="m29.3437 142v-36.364h15.7671c2.7699 0 5.0959.373 6.978 1.119 1.8939.746 3.3203 1.799 4.2791 3.16.9706 1.362 1.456 2.966 1.456 4.812 0 1.338-.296 2.557-.8878 3.658-.58 1.101-1.3968 2.024-2.4503 2.77-1.0535.734-2.2846 1.243-3.6932 1.527v.355c1.5625.059 2.983.456 4.2614 1.19 1.2784.722 2.2964 1.722 3.0539 3 .7576 1.267 1.1364 2.758 1.1364 4.475 0 1.988-.5208 3.758-1.5625 5.309-1.0298 1.55-2.4976 2.77-4.4034 3.657-1.9058.888-4.1785 1.332-6.8182 1.332zm9.8722-7.884h4.6165c1.6572 0 2.9001-.307 3.7287-.923.8286-.627 1.2429-1.55 1.2429-2.77 0-.852-.1953-1.574-.586-2.166-.3906-.592-.9469-1.042-1.669-1.349-.7102-.308-1.5684-.462-2.5746-.462h-4.7585zm0-13.778h4.0483c.8641 0 1.6276-.136 2.2905-.408.6629-.273 1.1778-.663 1.5447-1.172.3788-.521.5682-1.154.5682-1.9 0-1.125-.4025-1.983-1.2074-2.575-.8049-.603-1.8229-.905-3.054-.905h-4.1903z"/><path d="m71.6143 105.636v36.364h-9.8721v-36.364z"/><path d="m110.52 123.818c0 4.048-.787 7.463-2.361 10.245-1.575 2.77-3.699 4.871-6.375 6.303-2.6748 1.421-5.6577 2.131-8.9484 2.131-3.3144 0-6.3092-.716-8.9844-2.148-2.6634-1.444-4.7822-3.551-6.3565-6.321-1.5625-2.782-2.3438-6.185-2.3438-10.21 0-4.048.7813-7.457 2.3438-10.227 1.5743-2.782 3.6931-4.883 6.3565-6.303 2.6752-1.433 5.67-2.149 8.9844-2.149 3.2907 0 6.2736.716 8.9484 2.149 2.676 1.42 4.8 3.521 6.375 6.303 1.574 2.77 2.361 6.179 2.361 10.227zm-10.156 0c0-2.178-.29-4.013-.87-5.504-.5682-1.503-1.4146-2.64-2.5391-3.409-1.1127-.781-2.4858-1.172-4.1193-1.172-1.6336 0-3.0126.391-4.1371 1.172-1.1127.769-1.959 1.906-2.5391 3.409-.5681 1.491-.8522 3.326-.8522 5.504s.2841 4.019.8522 5.522c.5801 1.492 1.4264 2.628 2.5391 3.409 1.1245.77 2.5035 1.154 4.1371 1.154 1.6335 0 3.0066-.384 4.1193-1.154 1.1245-.781 1.9709-1.917 2.5391-3.409.58-1.503.87-3.344.87-5.522z"/></g></svg>