<svg fill="none" height="32" viewBox="0 0 32 32" width="32" xmlns="http://www.w3.org/2000/svg">
<path d="m16.0314 19.5838c-.2773 0-6.86007-.0575-11.89549-5.0948-.10662-.1057-.2104-.2132-.3123-.3208-1.05482-1.1114-1.55487-2.4342-1.4492-3.8239.09435-1.2266.66044-2.41447 1.58978-3.34661.92934-.93219 2.12097-1.49639 3.34654-1.58978 1.28412-.09437 2.5116.32268 3.56927 1.21899.1141-1.38128.684-2.54743 1.6615-3.38527.9331-.80102 2.17-1.24163 3.4909-1.24163s2.5578.44061 3.4909 1.24163c.9765.83877 1.5474 2.00399 1.6615 3.38527 1.0577-.89631 2.2852-1.32093 3.5692-1.21899 1.2266.09432 2.4144.66044 3.3457 1.58978.9312.92934 1.4973 2.12095 1.5897 3.34661.1066 1.3897-.3944 2.7125-1.4482 3.8258-.1019.1075-.2057.2151-.3123.3208-5.0364 5.0354-11.6191 5.0929-11.8975 5.0929zm-8.35646-13.14466c-1.14162 0-2.21342.53117-2.97577 1.29256-1.36995 1.37092-1.99265 3.7466-.12076 5.7251.0956.1013.1931.2016.29248.301 4.73444 4.7335 11.09831 4.7882 11.16151 4.7882s6.4403-.066 11.1624-4.7882c.1001-.1.1975-.2003.2925-.301 1.8719-1.9813 1.2492-4.35418-.1207-5.7251-1.37-1.37091-3.7466-1.9936-5.728-.12076-.1012.09499-.2016.19248-.301.2925-.0764.07643-.1509.15472-.2245.23302l-.9841 1.04352.0387-1.43225c0-.10941.0067-.21794.0067-.32833 0-.1415 0-.28301-.0058-.41984-.0754-2.72197-2.1955-3.96266-4.1343-3.96266-1.9389 0-4.0571 1.23976-4.1334 3.96266 0 .1387-.0057.28306-.0057.41984 0 .10759 0 .21327.0057.31987l.0386 1.44071-.985-1.03787c-.0745-.07923-.15-.15851-.2274-.23681-.1-.10002-.2003-.1975-.301-.29249-.88211-.83684-1.83976-1.17367-2.75116-1.17367z" fill="#204F24"/>
<path d="m15.3663 14.087h-.7548c0-1.1237-1.0944-2.0389-2.438-2.0389-1.3435 0-2.43795.9152-2.43795 2.0389h-.75481c0-1.5407 1.43216-2.7936 3.19276-2.7936 1.7605 0 3.1928 1.2529 3.1928 2.7936z" fill="#204F24"/>
<path d="m23.0408 14.056h-.7548c0-1.1237-1.0935-2.038-2.438-2.038-1.3444 0-2.4379.9143-2.4379 2.038h-.7548c0-1.5398 1.4322-2.7928 3.1927-2.7928 1.7606 0 3.1928 1.253 3.1928 2.7928z" fill="#204F24"/>
<path d="m13.0426 14.103c.5998 0 1.086-.4862 1.086-1.0859 0-.5998-.4862-1.086-1.086-1.086-.5997 0-1.0859.4862-1.0859 1.086 0 .5997.4862 1.0859 1.0859 1.0859z" fill="#204F24"/>
<path d="m20.666 14.103c.5997 0 1.0859-.4862 1.0859-1.0859 0-.5998-.4862-1.086-1.0859-1.086-.5998 0-1.086.4862-1.086 1.086 0 .5997.4862 1.0859 1.086 1.0859z" fill="#204F24"/>
<path d="m16.0287 16.8618c-.8896 0-1.7143-.4576-2.0992-1.1652l.6604-.3604c.2557.4717.819.7708 1.437.7708.6179 0 1.1821-.3029 1.4369-.7708l.6604.3604c-.3811.7076-1.2029 1.1652-2.0955 1.1652z" fill="#204F24"/>
<path d="m29.5556 27.3244c-1.8913.8856-4.0233 1.1179-6.061.6604-1.6866-.374-3.235-1.2122-4.4702-2.42.7819.324 1.6207.4889 2.4672.4849 1.4635.0003 2.891-.4547 4.0843-1.302l-.6056-.8435c-1.6332 1.1756-3.8797 1.4587-5.6525.6576-1.7492-.7878-2.7361-2.4738-2.7993-4.7599v-.7369h-1.0379v.1302.601c-.0604 2.2889-1.0492 3.9769-2.8003 4.7656-1.7728.7992-4.02304.5199-5.65243-.6604l-.60478.8435c1.19262.8476 2.61932 1.3033 4.08251 1.3039.8464.0041 1.6853-.1607 2.4672-.485-1.2349 1.2078-2.783 2.0461-4.46934 2.4201-2.03767.4575-4.16963.2252-6.06096-.6605l-.4425.9388c1.38898.652 2.90475.9893 4.43913.9878.77094.0003 1.53954-.0848 2.29176-.2538 2.30811-.5124 4.37001-1.8025 5.84021-3.6541l.0066-.0085c.345-.4526.6478-.9358.9048-1.4435v5.3411h1.0378v-5.3336c.2566.5053.5585.9862.902 1.4369l.0066.0085c1.47 1.8514 3.5316 3.1415 5.8393 3.6542.7522.1689 1.5208.2541 2.2917.2538 1.5347.0014 3.0508-.3359 4.4401-.9879z" fill="#204F24"/></svg>