<svg fill="none" height="32" viewBox="0 0 32 32" width="32" xmlns="http://www.w3.org/2000/svg" xmlns:xlink="http://www.w3.org/1999/xlink"><path d="m11.3653 24.8855c0 .1129-.1298.2032-.2935.2032-.1863.017-.3162-.0734-.3162-.2032 0-.1129.1299-.2032.2936-.2032.1693-.017.3161.0734.3161.2032zm-1.75562-.254c-.03952.1129.07338.2427.24274.2766.14677.0564.31608 0 .34998-.1129s-.0734-.2428-.24272-.2936c-.14678-.0395-.31049.017-.35.1299zm2.49512-.096c-.1637.0395-.2766.1468-.2596.2766.0169.1129.1637.1863.333.1468.1637-.0395.2766-.1468.2597-.2597-.0169-.1073-.1694-.1806-.3331-.1637zm3.7146-21.63227c-7.82988 0-13.8194 5.94435-13.8194 13.77417 0 6.2605 3.94032 11.6178 9.5685 13.5033.7226.1298.9767-.3162.9767-.6831 0-.35-.017-2.2807-.017-3.4661 0 0-3.95159.8467-4.78143-1.6823 0 0-.64354-1.6427-1.56935-2.0661 0 0-1.29274-.8863.09032-.8694 0 0 1.40565.1129 2.17903 1.4565 1.23629 2.179 3.30803 1.5524 4.11533 1.1798.1298-.9032.4968-1.5298.9032-1.9024-3.1556-.35-6.33949-.8073-6.33949-6.2379 0-1.5524.42903-2.3315 1.33225-3.325-.14677-.367-.62661-1.8799.14678-3.83308 1.17984-.36694 3.89516 1.52418 3.89516 1.52418 1.129-.31612 2.3427-.47983 3.5452-.47983 1.2024 0 2.4161.16371 3.5451.47983 0 0 2.7153-1.89676 3.8952-1.52418.7734 1.95888.2935 3.46608.1468 3.83308.9032.9992 1.4564 1.7782 1.4564 3.325 0 5.4476-3.325 5.8822-6.4806 6.2379.5193.446.9596 1.2927.9596 2.6193 0 1.9025-.0169 4.2565-.0169 4.7194 0 .3669.2597.8129.9766.6831 5.6452-1.8742 9.4726-7.2315 9.4726-13.492 0-7.82982-6.3508-13.77417-14.1806-13.77417zm-8.3323 19.47017c-.07339.0564-.05645.1863.03951.2935.09033.0904.22016.1299.29355.0565.07339-.0565.05645-.1863-.03951-.2936-.09033-.0903-.22017-.1298-.29355-.0564zm-.60968-.4573c-.03952.0734.01693.1637.12984.2202.09032.0564.20322.0395.24274-.0395.03952-.0734-.01694-.1637-.12984-.2202-.1129-.0339-.20322-.0169-.24274.0395zm1.82903 2.0097c-.09032.0734-.05645.2428.07339.35.12984.1299.29355.1468.36693.0565.07339-.0734.03952-.2428-.07338-.35-.1242-.1299-.29355-.1468-.36694-.0565zm-.64355-.8298c-.09032.0564-.09032.2032 0 .333.09033.1299.24274.1863.31613.1299.09032-.0734.09032-.2202 0-.35-.07903-.1299-.2258-.1863-.31613-.1129z" fill="#fff"/></svg>