<svg fill="none" height="256" viewBox="0 0 256 256" width="256" xmlns="http://www.w3.org/2000/svg" xmlns:xlink="http://www.w3.org/1999/xlink"><clipPath id="a"><path d="m8 8h240v240.027h-240z"/></clipPath><path d="m0 0h256v256h-256z" fill="#fff"/><g clip-path="url(#a)"><path d="m244.409 157.046c-16.029 64.294-81.148 103.422-145.449 87.389-64.2743-16.029-103.40213-81.152-87.3664-145.4403 16.0216-64.3007 81.1406-103.43142 145.4224-87.4028 64.296 16.0287 103.422 81.1588 87.391 145.4551l.001-.001z" fill="#f7931a"/><path d="m180.92 110.915c2.389-15.9716-9.77-24.5567-26.397-30.2838l5.394-21.6344-13.17-3.2815-5.251 21.0648c-3.462-.8635-7.017-1.6772-10.551-2.4838l5.289-21.2037-13.161-3.2816-5.397 21.6274c-2.865-.6524-5.679-1.2971-8.409-1.9764l.015-.068-18.1611-4.5351-3.5032 14.0658s9.7706 2.2397 9.5647 2.3776c5.3326 1.331 6.2976 4.8613 6.1376 7.6594l-6.1446 24.6463c.3672.094.8435.229 1.3691.44-.4394-.109-.9069-.228-1.392-.345l-8.6121 34.527c-.6517 1.62-2.306 4.052-6.0345 3.128.132.191-9.5718-2.389-9.5718-2.389l-6.5384 15.075 17.138 4.273c3.1882.799 6.3125 1.636 9.3893 2.422l-5.4496 21.883 13.1546 3.281 5.396-21.65c3.594.976 7.081 1.876 10.496 2.724l-5.379 21.548 13.17 3.281 5.449-21.841c22.457 4.25 39.342 2.537 46.45-17.776 5.727-16.353-.285-25.786-12.1-31.937 8.605-1.985 15.087-7.644 16.815-19.336l-.004-.003zm-30.089 42.192c-4.07 16.354-31.604 7.514-40.531 5.297l7.231-28.991c8.927 2.229 37.554 6.639 33.301 23.694zm4.073-42.429c-3.713 14.875-26.63 7.318-34.064 5.465l6.557-26.2932c7.434 1.8532 31.375 5.3118 27.508 20.8282z" fill="#fff"/></g></svg>