<svg fill="none" height="256" viewBox="0 0 256 256" width="256" xmlns="http://www.w3.org/2000/svg" xmlns:xlink="http://www.w3.org/1999/xlink"><clipPath id="a"><path d="m38 8h179.429v240h-179.429z"/></clipPath><path d="m0 0h256v256h-256z" fill="#fff"/><g clip-path="url(#a)"><path d="m128.918 8c-50.1285.20136-90.7166 40.7895-90.918 90.9181 0 10.0389 1.6205 20.0109 4.7942 29.5329 2.3684 6.481 9.3968 9.972 15.9937 7.968 6.3763-2.445 9.761-9.416 7.7283-15.936-2.6944-7.422-3.893-15.294-3.5382-23.1758 1.0931-36.2061 31.3256-64.6744 67.532-63.5813 36.206 1.0931 64.674 31.3256 63.581 67.5321-1.026 33.895-27.72 61.424-61.577 63.485 0 0-12.763.777-19.11 1.553-2.34.336-4.66.796-6.952 1.381-.326.336-.853.336-1.189.01l-.009-.01c-.23-.297-.23-.719 0-1.016l1.975-10.778 11.986-53.906c1.438-6.7313-2.848-13.3569-9.579-14.7952s-13.3571 2.8478-14.7954 9.5789c0 0-28.5066 131.9473-28.5066 133.1463-1.63 6.414 2.2437 12.934 8.6584 14.564.0671.02.1438.039.211.048h.6616c6.4051 1.659 12.9444-2.195 14.5936-8.6.0288-.106.0576-.211.0768-.326-.0192-.202-.0192-.403 0-.595.3547-1.553 3.9504-19.11 3.9504-19.11 2.7231-13.251 13.4052-23.405 26.7712-25.457 2.752-.422 14.315-1.199 14.315-1.199 49.937-4.976 86.383-49.496 81.397-99.4326-4.545-45.5453-42.275-80.61043-88.051-81.7994z" fill="#1e1e1e"/><path d="m134.432 217.633c-8.199-1.706-16.215 3.558-17.921 11.746-.02.077-.029.154-.048.23-1.774 8.141 3.384 16.186 11.535 17.96.009 0 .019 0 .028.009h.422c7.978 1.928 16.004-2.982 17.921-10.95.019-.057.029-.125.048-.182v-.834c1.41-8.227-3.845-16.119-11.985-17.979z" fill="#e6007a"/></g></svg>