<svg fill="none" height="256" viewBox="0 0 256 256" width="256" xmlns="http://www.w3.org/2000/svg"><path d="m0 0h256v256h-256z" fill="#fff"/><path d="m188.266 38.2222-41.731 61.9998c-2.886 4.222 2.664 9.334 6.659 5.778l41.066-35.7778c1.11-.8889 2.663-.2222 2.663 1.3334v111.7774c0 1.556-1.997 2.223-2.885 1.111l-124.3066-148.8884c-3.9956-4.8889-9.7669-7.5556-16.2042-7.5556h-4.4395c-11.5427 0-21.0877 9.5556-21.0877 21.3333v157.3337c0 11.777 9.545 21.333 21.3097 21.333 7.3252 0 14.2064-3.778 18.202-10.222l41.7313-62c2.886-4.222-2.664-9.334-6.659-5.778l-41.0657 35.556c-1.1099.888-2.6637.222-2.6637-1.334v-111.5553c0-1.5556 1.9978-2.2223 2.8857-1.1111l124.3067 148.8884c3.995 4.889 9.989 7.556 16.204 7.556h4.439c11.765 0 21.31-9.556 21.31-21.333v-157.3337c0-11.7777-9.545-21.3333-21.31-21.3333-7.547 0-14.428 3.7778-18.424 10.2222z" fill="#000"/></svg>