<svg fill="none" height="256" viewBox="0 0 256 256" width="256" xmlns="http://www.w3.org/2000/svg"><path d="m0 0h256v256h-256z" fill="#fff"/><path d="m204.699 58.1885c-.061-.1188-.163-.2118-.286-.2625-14.297-6.5593-29.383-11.2365-44.883-13.9148-.141-.0262-.286-.0073-.415.054-.13.0613-.237.1618-.306.2873-2.054 3.7286-3.919 7.5584-5.587 11.475-16.708-2.5362-33.703-2.5362-50.41 0-1.679-3.9265-3.5742-7.7573-5.6757-11.475-.0721-.1228-.1794-.221-.3081-.2819-.1287-.0608-.2728-.0815-.4134-.0594-15.5011 2.6726-30.5886 7.3502-44.883 13.9152-.1223.0518-.2256.1404-.2955.2535-28.5859 42.6891-36.4166 84.3291-32.5751 125.4531.0108.101.0418.198.0911.287.0492.088.1158.166.1958.228 16.6453 12.325 35.2632 21.732 55.0594 27.821.1394.042.2882.04.4265-.005s.2594-.132.3471-.248c4.2517-5.785 8.0191-11.911 11.2638-18.316.0446-.088.0701-.184.0747-.283.0047-.098-.0116-.196-.0477-.288s-.0912-.175-.1617-.244c-.0705-.068-.1548-.122-.2474-.156-5.9409-2.273-11.6924-5.013-17.2005-8.194-.1-.059-.1841-.142-.2447-.241-.0605-.099-.0958-.211-.1027-.327-.0068-.116.0149-.232.0634-.337.0485-.106.1222-.197.2147-.268 1.1557-.866 2.3122-1.766 3.4158-2.676.0981-.081.2167-.133.3426-.15.1259-.016.254.002.3699.054 36.0857 16.469 75.1537 16.469 110.8127 0 .116-.055.246-.076.373-.061.128.016.249.067.348.148 1.104.91 2.26 1.819 3.425 2.685.093.07.167.161.216.266.05.105.072.221.066.337s-.04.228-.1.328c-.06.099-.143.182-.243.242-5.496 3.208-11.252 5.946-17.209 8.186-.092.035-.176.089-.246.159s-.125.154-.16.247c-.036.092-.051.191-.046.29.006.098.032.195.077.283 3.299 6.369 7.061 12.487 11.256 18.306.085.119.205.209.344.256s.289.049.429.006c19.832-6.068 38.482-15.476 55.148-27.82.082-.059.149-.135.199-.222.049-.088.079-.185.088-.285 4.599-47.543-7.699-88.8416-32.6-125.4525zm-113.2649 100.4035c-10.8645 0-19.8165-9.97-19.8165-22.214 0-12.245 8.7783-22.216 19.8165-22.216 11.1239 0 19.9899 10.058 19.8159 22.215 0 12.245-8.779 22.215-19.8159 22.215zm73.2679 0c-10.865 0-19.817-9.97-19.817-22.214 0-12.245 8.779-22.216 19.817-22.216 11.125 0 19.99 10.058 19.816 22.215 0 12.245-8.691 22.215-19.816 22.215z" fill="currentColor"/></svg>