<svg fill="none" height="256" viewBox="0 0 256 256" width="256" xmlns="http://www.w3.org/2000/svg"><path d="m0 0h256v256h-256z" fill="#fff"/><path d="m128.025 71.5828c-31.2152 0-56.3931 25.1779-56.3931 56.3922 0 31.215 25.1779 56.393 56.3931 56.393 31.214 0 56.392-25.178 56.392-56.393 0-31.2143-25.178-56.3922-56.392-56.3922zm0 93.0552c-20.172 0-36.663-16.442-36.663-36.663 0-20.22 16.442-36.6621 36.663-36.6621 20.22 0 36.662 16.4421 36.662 36.6621 0 20.221-16.491 36.663-36.662 36.663zm71.852-95.3619c0 7.3128-5.889 13.1533-13.153 13.1533-7.313 0-13.153-5.8895-13.153-13.1533s5.889-13.1534 13.153-13.1534 13.153 5.8896 13.153 13.1534zm37.35 13.3497c-.834-17.6197-4.859-33.227-17.767-46.0859-12.859-12.8589-28.466-16.8835-46.086-17.7669-18.159-1.0307-72.589-1.0307-90.7482 0-17.5706.8344-33.1779 4.8589-46.0859 17.7178s-16.8835 28.4662-17.7669 46.0859c-1.0307 18.1593-1.0307 72.5893 0 90.7483.8344 17.62 4.8589 33.227 17.7669 46.086s28.4662 16.883 46.0859 17.767c18.1592 1.031 72.5892 1.031 90.7482 0 17.62-.834 33.227-4.859 46.086-17.767 12.859-12.859 16.884-28.466 17.767-46.086 1.031-18.159 1.031-72.54 0-90.6992zm-23.46 110.1842c-3.828 9.619-11.239 17.03-20.908 20.908-14.479 5.742-48.834 4.417-64.834 4.417s-50.4054 1.276-64.8348-4.417c-9.6196-3.828-17.0307-11.24-20.908-20.908-5.7423-14.479-4.4172-48.835-4.4172-64.835s-1.276-50.4045 4.4172-64.8339c3.8282-9.6196 11.2393-17.0307 20.908-20.908 14.4785-5.7423 48.8348-4.4172 64.8348-4.4172s50.404-1.276 64.834 4.4172c9.62 3.8282 17.031 11.2393 20.908 20.908 5.742 14.4785 4.417 48.8339 4.417 64.8339s1.325 50.405-4.417 64.835z" fill="currentColor"/></svg>