<svg fill="none" height="256" viewBox="0 0 256 256" width="256" xmlns="http://www.w3.org/2000/svg"><path d="m0 0h256v256h-256z" fill="#fff"/><g stroke="#000" stroke-linecap="round" stroke-linejoin="round" stroke-width="18"><path d="m128 238c60.751 0 110-49.249 110-110 0-60.7513-49.249-110-110-110-60.7513 0-110 49.2487-110 110 0 60.751 49.2487 110 110 110z"/><path d="m18 128h220"/><path d="m128 18c27.514 30.1219 43.15 69.2124 44 110-.85 40.788-16.486 79.878-44 110-27.514-30.122-43.1503-69.212-44-110 .8497-40.7876 16.486-79.8781 44-110z"/></g></svg>